STARTFONT 2.3
FONT -FontForge-Open Sans-Book-I-Normal-Sans--14-140-72-72-P-76-ISO10646-1
SIZE 14 72 72  4
FONTBOUNDINGBOX 25 19 -7 -4
COMMENT "Generated by fontforge, http://fontforge.sourceforge.net"
COMMENT "Digitized data copyright (c) 2010-2011, Google Corporation."
STARTPROPERTIES 42
FOUNDRY "FontForge"
FAMILY_NAME "Open Sans"
WEIGHT_NAME "Book"
SLANT "I"
SETWIDTH_NAME "Normal"
ADD_STYLE_NAME "Sans"
PIXEL_SIZE 14
POINT_SIZE 140
RESOLUTION_X 72
RESOLUTION_Y 72
SPACING "P"
AVERAGE_WIDTH 76
CHARSET_REGISTRY "ISO10646"
CHARSET_ENCODING "1"
FONTNAME_REGISTRY ""
CHARSET_COLLECTIONS "ISO8859-2 ISO8859-5 ISO8859-7 ISO8859-9 ISO8859-4 ISO10646-1"
BITS_PER_PIXEL 4
FONT_NAME "OpenSans-Italic"
FACE_NAME "Open Sans Italic"
COPYRIGHT "Digitized data copyright (c) 2010-2011, Google Corporation."
FONT_VERSION "1.10"
FONT_ASCENT 11
FONT_DESCENT 3
UNDERLINE_POSITION -1
UNDERLINE_THICKNESS 1
X_HEIGHT 7
CAP_HEIGHT 9
RAW_ASCENT 799
RAW_DESCENT 200
ITALIC_ANGLE 4992
NORM_SPACE 4
RELATIVE_WEIGHT 40
RELATIVE_SETWIDTH 50
SUPERSCRIPT_X 0
SUPERSCRIPT_Y 6
SUPERSCRIPT_SIZE 9
SUBSCRIPT_X 0
SUBSCRIPT_Y 1
SUBSCRIPT_SIZE 9
FIGURE_WIDTH 8
AVG_LOWERCASE_WIDTH 74
AVG_UPPERCASE_WIDTH 85
ENDPROPERTIES
CHARS 936
STARTCHAR space
ENCODING 32
SWIDTH 259 0
DWIDTH 4 0
BBX 1 1 0 0
BITMAP
00
ENDCHAR
STARTCHAR exclam
ENCODING 33
SWIDTH 258 0
DWIDTH 4 0
BBX 4 10 0 0
BITMAP
00BA
00D6
01F2
03D0
0690
0950
0B10
0000
6B00
8B00
ENDCHAR
STARTCHAR quotedbl
ENCODING 34
SWIDTH 386 0
DWIDTH 5 0
BBX 5 4 1 6
BITMAP
1F3A90
2E0C50
4A0D10
660C00
ENDCHAR
STARTCHAR numbersign
ENCODING 35
SWIDTH 645 0
DWIDTH 9 0
BBX 10 10 0 0
BITMAP
0000D10D10
0003C02C00
0007707700
09DFDDFDD2
001D01D000
0069058000
7DFEDFED40
00E10D0000
03B03B0000
0770870000
ENDCHAR
STARTCHAR dollar
ENCODING 36
SWIDTH 550 0
DWIDTH 8 0
BBX 8 12 0 -1
BITMAP
00006800
003BFEB2
01E4C240
04C1D000
02E8A000
004DE600
000A7E40
000D1B60
331D4E20
5CEFB300
00770000
00950000
ENDCHAR
STARTCHAR percent
ENCODING 37
SWIDTH 792 0
DWIDTH 11 0
BBX 10 10 1 0
BITMAP
07DC1006A0
4B09502C10
950950C300
C20C297000
C34B5A7DC2
5DC4C4C086
000C396096
00970B40B3
05B00B43C0
2D1005DC20
ENDCHAR
STARTCHAR ampersand
ENCODING 38
SWIDTH 669 0
DWIDTH 9 0
BBX 9 10 0 0
BITMAP
0008DE8000
005C11E300
008901E200
005C3C8000
002FD40000
07C6E206B0
4D107C1D30
89000BD800
5D203BF400
09EEB55E20
ENDCHAR
STARTCHAR quotesingle
ENCODING 39
SWIDTH 216 0
DWIDTH 3 0
BBX 3 4 1 6
BITMAP
1F30
2E00
4A00
6600
ENDCHAR
STARTCHAR parenleft
ENCODING 40
SWIDTH 285 0
DWIDTH 4 0
BBX 5 12 0 -2
BITMAP
0006A0
004C10
00D400
07B000
0D5000
2F1000
5D0000
6B0000
6B0000
4C0000
1E1000
0A5000
ENDCHAR
STARTCHAR parenright
ENCODING 41
SWIDTH 285 0
DWIDTH 4 0
BBX 5 12 -1 -2
BITMAP
005900
001E10
000D40
000B50
000B60
000D40
001F20
005C00
00B600
04D000
1D4000
A60000
ENDCHAR
STARTCHAR asterisk
ENCODING 42
SWIDTH 551 0
DWIDTH 8 0
BBX 7 6 1 5
BITMAP
00069000
35086000
39BC7660
008C8660
0A93C000
0500C200
ENDCHAR
STARTCHAR plus
ENCODING 43
SWIDTH 550 0
DWIDTH 8 0
BBX 8 7 0 1
BITMAP
00055000
00077000
00077000
2FFFFFF2
00077000
00077000
00044000
ENDCHAR
STARTCHAR comma
ENCODING 44
SWIDTH 240 0
DWIDTH 3 0
BBX 3 3 -1 -1
BITMAP
08C0
1E30
7800
ENDCHAR
STARTCHAR hyphen
ENCODING 45
SWIDTH 312 0
DWIDTH 4 0
BBX 4 2 0 2
BITMAP
8FFC
1111
ENDCHAR
STARTCHAR period
ENCODING 46
SWIDTH 252 0
DWIDTH 4 0
BBX 2 2 0 0
BITMAP
6B
9B
ENDCHAR
STARTCHAR slash
ENCODING 47
SWIDTH 350 0
DWIDTH 5 0
BBX 7 10 -1 0
BITMAP
000005C0
00000D40
00007B00
0001E300
00099000
002E1000
00A70000
04D10000
0C600000
5C000000
ENDCHAR
STARTCHAR zero
ENCODING 48
SWIDTH 550 0
DWIDTH 8 0
BBX 8 10 0 0
BITMAP
0019EE70
00AB13F3
04E100C6
0A8000B7
0E4000C6
1F1000E3
2F0004E0
1F100A90
0C817E10
03CEB200
ENDCHAR
STARTCHAR one
ENCODING 49
SWIDTH 550 0
DWIDTH 8 0
BBX 5 10 2 0
BITMAP
019F10
5DCD00
748900
00B600
00E300
03E000
06B000
098000
0D5000
1F2000
ENDCHAR
STARTCHAR two
ENCODING 50
SWIDTH 550 0
DWIDTH 8 0
BBX 8 10 0 0
BITMAP
005CFD70
009414F3
000000D5
000002F2
00000B80
0001BA00
001C8000
02D70000
3D511100
CFFFFF50
ENDCHAR
STARTCHAR three
ENCODING 51
SWIDTH 550 0
DWIDTH 8 0
BBX 8 10 0 0
BITMAP
005CEE70
008303F3
000000E3
00002AA0
008FE600
00005E20
00000B70
00000C70
53117E20
6CEEB300
ENDCHAR
STARTCHAR four
ENCODING 52
SWIDTH 550 0
DWIDTH 8 0
BBX 8 10 0 0
BITMAP
000006F4
00004CE1
0002D6D0
001C57A0
00A80A70
07B00D40
5D101F10
CFFFFFF6
11118910
0000C500
ENDCHAR
STARTCHAR five
ENCODING 53
SWIDTH 550 0
DWIDTH 8 0
BBX 8 10 0 0
BITMAP
003FFFF6
00891110
00C40000
01E10000
05FDEA10
00102C80
000007B0
000009A0
44016E30
4CEEB300
ENDCHAR
STARTCHAR six
ENCODING 54
SWIDTH 550 0
DWIDTH 8 0
BBX 8 10 0 0
BITMAP
0002AEF7
003E8211
00D60000
06C00000
0BABEC30
0EC207C0
1F3003E0
1F1005C0
0C803E50
03CED600
ENDCHAR
STARTCHAR seven
ENCODING 55
SWIDTH 550 0
DWIDTH 8 0
BBX 7 10 1 0
BITMAP
6FFFFFB0
00000D50
00006B00
0001E300
00099000
003E1000
00C70000
05D00000
1D400000
8B000000
ENDCHAR
STARTCHAR eight
ENCODING 56
SWIDTH 550 0
DWIDTH 8 0
BBX 8 10 0 0
BITMAP
0019EEA1
009B11C7
00D500A8
00AB27E2
002EFB20
04B43D30
2E1008A0
4D0006C0
2F503D70
05DFD800
ENDCHAR
STARTCHAR nine
ENCODING 57
SWIDTH 550 0
DWIDTH 8 0
BBX 8 10 0 0
BITMAP
004CED40
02E505E1
099000D3
0B6001E4
08B12AF2
01ADC9E0
000008A0
00001E30
1104C900
4DFD6000
ENDCHAR
STARTCHAR colon
ENCODING 58
SWIDTH 252 0
DWIDTH 4 0
BBX 3 8 0 0
BITMAP
06E0
06A0
0000
0000
0000
0000
6B00
9B00
ENDCHAR
STARTCHAR semicolon
ENCODING 59
SWIDTH 252 0
DWIDTH 4 0
BBX 4 9 -1 -1
BITMAP
006E
006A
0000
0000
0000
0000
08C0
1E30
7800
ENDCHAR
STARTCHAR less
ENCODING 60
SWIDTH 550 0
DWIDTH 8 0
BBX 8 6 0 2
BITMAP
000004B2
0005CA40
07C82000
1CB50000
0039D940
000005B2
ENDCHAR
STARTCHAR equal
ENCODING 61
SWIDTH 550 0
DWIDTH 8 0
BBX 8 4 0 3
BITMAP
2EEEEEE2
00000000
00000000
2FFFFFF2
ENDCHAR
STARTCHAR greater
ENCODING 62
SWIDTH 550 0
DWIDTH 8 0
BBX 8 6 0 2
BITMAP
2A400000
04BC5000
00028C60
00015BB1
04AD8200
2B500000
ENDCHAR
STARTCHAR question
ENCODING 63
SWIDTH 426 0
DWIDTH 6 0
BBX 6 10 1 0
BITMAP
4BEE70
3413F3
0000E3
0007C0
009C20
09A100
1D0000
000000
880000
C80000
ENDCHAR
STARTCHAR at
ENCODING 64
SWIDTH 847 0
DWIDTH 12 0
BBX 12 11 0 -1
BITMAP
00006BDED700
002C82002AA0
01C4000000D3
08803BCD8097
0D12D4096096
2D08800E20B4
3C09707E04C0
2E03DD69DB20
0C5000000000
04E610033000
003AEDDA3000
ENDCHAR
STARTCHAR A
ENCODING 65
SWIDTH 555 0
DWIDTH 8 0
BBX 9 10 -1 0
BITMAP
000009E000
00003DF100
0000B7E300
0004E1C400
000C70B600
005E109800
00DFFFFA00
07D1116C00
1E50004E00
8C00002F10
ENDCHAR
STARTCHAR B
ENCODING 66
SWIDTH 598 0
DWIDTH 8 0
BBX 9 10 0 0
BITMAP
006FFFD500
0098016F10
00C5001F20
01F102AB00
04FFFF8000
07A004E300
0A7000B800
0D4000C700
1F1018E200
5FFFEA2000
ENDCHAR
STARTCHAR C
ENCODING 67
SWIDTH 584 0
DWIDTH 8 0
BBX 8 10 1 0
BITMAP
0029DFD7
03E93133
0D800000
6D000000
B8000000
D5000000
E5000000
C8000000
5F612400
06CFEB00
ENDCHAR
STARTCHAR D
ENCODING 68
SWIDTH 666 0
DWIDTH 9 0
BBX 9 10 0 0
BITMAP
006FFEC400
0098017F30
00C5000AA0
01F20006C0
04E00006D0
07B00008B0
0A80000D60
0D40008D10
1F113AD300
5FFEC81000
ENDCHAR
STARTCHAR E
ENCODING 69
SWIDTH 511 0
DWIDTH 7 0
BBX 8 10 0 0
BITMAP
006FFFF9
00981110
00C50000
01F10000
04FFFF70
07A11100
0A700000
0D400000
1F211100
5FFFFB00
ENDCHAR
STARTCHAR F
ENCODING 70
SWIDTH 472 0
DWIDTH 7 0
BBX 8 10 0 0
BITMAP
006FFFF9
00991110
00C50000
01F30000
04F00000
07FFFF60
0A911100
0D500000
1F200000
5D000000
ENDCHAR
STARTCHAR G
ENCODING 71
SWIDTH 676 0
DWIDTH 9 0
BBX 9 10 1 0
BITMAP
0029DFDA10
03E9313700
1D80000000
6D00000000
B800000000
D5007FFA00
E50001C600
C80000F300
5F6115E000
05CEEC7000
ENDCHAR
STARTCHAR H
ENCODING 72
SWIDTH 678 0
DWIDTH 10 0
BBX 10 10 0 0
BITMAP
006B0000B6
00980000E3
00C50003F0
01F10006C0
04FFFFFF90
07A1111D60
0A70001F20
0D40003E00
1F10006B00
5D00009800
ENDCHAR
STARTCHAR I
ENCODING 73
SWIDTH 272 0
DWIDTH 4 0
BBX 4 10 0 0
BITMAP
006B
0098
00C5
01F2
04E0
07A0
0A70
0D40
1F10
5D00
ENDCHAR
STARTCHAR J
ENCODING 74
SWIDTH 267 0
DWIDTH 4 0
BBX 7 13 -3 -3
BITMAP
000006B0
00000980
00000C50
00000F20
00003E00
00006B00
00009800
0000D500
0001F200
0004E000
0007A000
013E5000
2FE70000
ENDCHAR
STARTCHAR K
ENCODING 75
SWIDTH 557 0
DWIDTH 8 0
BBX 9 10 0 0
BITMAP
006B001C80
009801C800
00C51C8000
01F3C80000
04ECC00000
07E5E20000
0A70990000
0D403E1000
1F100C6000
5D0006D000
ENDCHAR
STARTCHAR L
ENCODING 76
SWIDTH 474 0
DWIDTH 7 0
BBX 6 10 0 0
BITMAP
006B00
009800
00C500
01F200
04E000
07A000
0A7000
0D4000
1F2111
5FFFFB
ENDCHAR
STARTCHAR M
ENCODING 77
SWIDTH 836 0
DWIDTH 12 0
BBX 12 10 0 0
BITMAP
006F600005FA
009D80000DD7
00D9A0006AD4
01F4C001D4F1
04D1E00885C0
07A0E12D1890
0A60C2970B60
0D30A7D00E30
2F009F503F00
5C007C006C00
ENDCHAR
STARTCHAR N
ENCODING 78
SWIDTH 702 0
DWIDTH 10 0
BBX 10 10 0 0
BITMAP
006F20005C
009E700089
00D7D000B6
01F1D400E2
04D08903E0
07A02E16B0
0A600C6980
0D3006BC50
2F0001EE10
5C0000AD00
ENDCHAR
STARTCHAR O
ENCODING 79
SWIDTH 720 0
DWIDTH 10 0
BBX 9 10 1 0
BITMAP
003AEEB300
04E7229E10
1E50000D60
7C00000A90
C700000A90
E500000C70
E500002F30
C80000AB00
5F612AE200
05CED92000
ENDCHAR
STARTCHAR P
ENCODING 80
SWIDTH 565 0
DWIDTH 8 0
BBX 8 10 0 0
BITMAP
006FFEA2
009802BA
00C5005D
01F2007C
04E016E5
07FFEB40
0A700000
0D400000
1F100000
5D000000
ENDCHAR
STARTCHAR Q
ENCODING 81
SWIDTH 720 0
DWIDTH 10 0
BBX 9 12 1 -2
BITMAP
003AEEB300
04E7229E10
1E50000D60
7C00000A90
C700000A80
E500000C70
E500002F20
C800009B00
5F6129E200
05CEFA2000
0000AB0000
00001C9000
ENDCHAR
STARTCHAR R
ENCODING 82
SWIDTH 568 0
DWIDTH 8 0
BBX 8 10 0 0
BITMAP
006FFEA2
009802BA
00C5005D
01F2007C
04E015E5
07FFFC40
0A807B00
0D402F20
1F100B70
5D0006D0
ENDCHAR
STARTCHAR S
ENCODING 83
SWIDTH 501 0
DWIDTH 7 0
BBX 8 10 0 0
BITMAP
004CEEA1
03E61260
07C00000
06E10000
00BD5000
0006E800
00003F20
00001F20
5312AC00
8EFD9200
ENDCHAR
STARTCHAR T
ENCODING 84
SWIDTH 498 0
DWIDTH 7 0
BBX 8 10 1 0
BITMAP
9FFFFFF2
001F2000
004E0000
007B0000
00A70000
00D40000
02F10000
05D00000
08A00000
0B700000
ENDCHAR
STARTCHAR U
ENCODING 85
SWIDTH 675 0
DWIDTH 9 0
BBX 9 10 1 0
BITMAP
0890000A80
0B60000D40
0E30001F10
3E00005D00
6B00008A00
980000B700
C60000E300
D50005D000
9C214E5000
1AEEC50000
ENDCHAR
STARTCHAR V
ENCODING 86
SWIDTH 547 0
DWIDTH 8 0
BBX 8 10 1 0
BITMAP
A800009B
890002F3
7B000A90
5C002E20
3E00A800
2F03E100
0F2B7000
0D6E1000
0CD60000
0AD00000
ENDCHAR
STARTCHAR W
ENCODING 87
SWIDTH 852 0
DWIDTH 12 0
BBX 12 10 1 0
BITMAP
7B0008E0005D
6B001DF000B7
5C0079E103E1
5C00D2E20980
4D06A0D21E20
4D0D30C37A00
3E5B00B4D300
2DB400A9B000
2EC000AE4000
1F60009C0000
ENDCHAR
STARTCHAR X
ENCODING 88
SWIDTH 519 0
DWIDTH 7 0
BBX 10 10 -1 0
BITMAP
004E0004D2
000D402D40
0007A0C600
0002EAA000
0000CD0000
0004EE0000
002D3D4000
00C6089000
09A003E100
5D1000D500
ENDCHAR
STARTCHAR Y
ENCODING 89
SWIDTH 502 0
DWIDTH 7 0
BBX 8 10 1 0
BITMAP
990005E1
5C001E50
1F109900
0C44D100
089D4000
04F90000
02F10000
06C00000
09900000
0C600000
ENDCHAR
STARTCHAR Z
ENCODING 90
SWIDTH 530 0
DWIDTH 7 0
BBX 8 10 0 0
BITMAP
00EFFFFE
001112D6
00000B90
00008C00
0005E200
002E4000
01D70000
0AA00000
7D111100
FFFFFF20
ENDCHAR
STARTCHAR bracketleft
ENCODING 91
SWIDTH 286 0
DWIDTH 4 0
BBX 6 12 0 -2
BITMAP
009FE1
00C400
01F100
04C000
079000
0A6000
0E3000
2E0000
5B0000
980000
C50000
FF9000
ENDCHAR
STARTCHAR backslash
ENCODING 92
SWIDTH 350 0
DWIDTH 5 0
BBX 3 10 1 0
BITMAP
6A00
4C00
2E00
0E10
0C30
0A60
0880
06A0
03C0
01F0
ENDCHAR
STARTCHAR bracketright
ENCODING 93
SWIDTH 286 0
DWIDTH 4 0
BBX 6 12 -1 -2
BITMAP
008FF2
0003D0
0006A0
000A70
000D40
001F10
004C00
008900
00B600
00E200
03E000
DFB000
ENDCHAR
STARTCHAR asciicircum
ENCODING 94
SWIDTH 517 0
DWIDTH 7 0
BBX 7 6 0 4
BITMAP
0001D500
00099A00
004B0D00
01D20A40
09700680
5C0002D0
ENDCHAR
STARTCHAR underscore
ENCODING 95
SWIDTH 394 0
DWIDTH 6 0
BBX 7 1 -2 -2
BITMAP
3EEEEE50
ENDCHAR
STARTCHAR grave
ENCODING 96
SWIDTH 554 0
DWIDTH 8 0
BBX 3 2 4 8
BITMAP
C600
2C10
ENDCHAR
STARTCHAR a
ENCODING 97
SWIDTH 564 0
DWIDTH 8 0
BBX 8 8 0 0
BITMAP
004CE968
03E508E5
0B8003F2
1F2004E0
4E0008B0
4D001E80
2F21AD50
08EC4C20
ENDCHAR
STARTCHAR b
ENCODING 98
SWIDTH 577 0
DWIDTH 8 0
BBX 8 11 0 0
BITMAP
007B0000
00A70000
00D40000
01F4CE80
04EB22E3
07E100C5
0A8000D5
0D4001F2
1F3007C0
4E804E40
778ED500
ENDCHAR
STARTCHAR c
ENCODING 99
SWIDTH 450 0
DWIDTH 6 0
BBX 7 8 0 0
BITMAP
004CED30
03E50210
0C700000
2F100000
4D000000
4E000000
1E602200
04CED300
ENDCHAR
STARTCHAR d
ENCODING 100
SWIDTH 577 0
DWIDTH 8 0
BBX 9 11 0 0
BITMAP
0000000E30
0000002F10
0000005C00
004CE98900
03E507E600
0B8002F300
1F2003F000
4E0007C000
4D001E9000
2F21AD6000
08EC3C3000
ENDCHAR
STARTCHAR e
ENCODING 101
SWIDTH 493 0
DWIDTH 7 0
BBX 7 8 0 0
BITMAP
004CEC20
03D30C70
0B526E30
2FED9300
4D000000
4E000000
1E702400
04DED500
ENDCHAR
STARTCHAR f
ENCODING 102
SWIDTH 312 0
DWIDTH 4 0
BBX 8 14 -2 -3
BITMAP
000009ED
00005C11
0000A700
002AFDB0
0002F100
0005C000
00089000
000B6000
000E3000
002E0000
005C0000
00980000
01E40000
8E800000
ENDCHAR
STARTCHAR g
ENCODING 103
SWIDTH 500 0
DWIDTH 7 0
BBX 9 11 -1 -3
BITMAP
0019DEFC50
008A01F100
00D400F200
00D407D000
005ECB2000
02D1000000
03FFD91000
4C213B9000
C50006A000
B8003D5000
2BDDC60000
ENDCHAR
STARTCHAR h
ENCODING 104
SWIDTH 577 0
DWIDTH 8 0
BBX 8 11 0 0
BITMAP
007A0000
00A70000
00D40000
01F3CEA0
04EA21E3
07E100E3
0A8002F1
0D4005D0
1F1008A0
4D000B70
7A000E30
ENDCHAR
STARTCHAR i
ENCODING 105
SWIDTH 253 0
DWIDTH 4 0
BBX 4 11 0 0
BITMAP
0079
0043
0000
01F1
04D0
07A0
0A70
0D40
1F10
4D00
7A00
ENDCHAR
STARTCHAR j
ENCODING 106
SWIDTH 253 0
DWIDTH 4 0
BBX 6 14 -2 -3
BITMAP
000079
000043
000000
0002F1
0005C0
000890
000B60
000E30
002F00
005C00
008900
00C500
03E100
BE6000
ENDCHAR
STARTCHAR k
ENCODING 107
SWIDTH 487 0
DWIDTH 7 0
BBX 7 11 0 0
BITMAP
007B0000
00A70000
00D40000
01F109B0
04D08C10
0797C100
0ABF3000
0DBB7000
1F14E000
5D00D600
8A007C00
ENDCHAR
STARTCHAR l
ENCODING 108
SWIDTH 253 0
DWIDTH 4 0
BBX 4 11 0 0
BITMAP
007B
00A7
00D4
01F1
04D0
07A0
0A70
0D40
1F10
5D00
8A00
ENDCHAR
STARTCHAR m
ENCODING 109
SWIDTH 872 0
DWIDTH 12 0
BBX 12 8 0 0
BITMAP
01E3CE61AEB1
04EA14EA41D5
07E102F500C5
0A8005D000E3
0D40089002F0
1F100B6006C0
4D000E300990
7A002F000C60
ENDCHAR
STARTCHAR n
ENCODING 110
SWIDTH 577 0
DWIDTH 8 0
BBX 8 8 0 0
BITMAP
01E3CEA0
04EA22F3
07E100E3
0A8001F1
0D4005D0
1F1008A0
4D000B70
7A000E40
ENDCHAR
STARTCHAR o
ENCODING 111
SWIDTH 561 0
DWIDTH 8 0
BBX 8 8 0 0
BITMAP
004CEB20
04E408D0
0C6001F2
2F1000F2
4D0003F1
4E0008A0
1E504E30
04CEC300
ENDCHAR
STARTCHAR p
ENCODING 112
SWIDTH 577 0
DWIDTH 8 0
BBX 9 11 -1 -3
BITMAP
002E3CE800
005EB22E30
008E100C50
00B8000D50
00E4001F20
02F3007D00
05E804E400
0998ED5000
0C60000000
0F30000000
3E00000000
ENDCHAR
STARTCHAR q
ENCODING 113
SWIDTH 577 0
DWIDTH 8 0
BBX 8 11 0 -3
BITMAP
004CE968
03E508E5
0B8003F2
1F2004E0
4E0008B0
4D001E80
2F21BD40
08EC4E10
00003D00
00007A00
0000A700
ENDCHAR
STARTCHAR r
ENCODING 114
SWIDTH 395 0
DWIDTH 6 0
BBX 6 8 0 0
BITMAP
01E3DC
04EA21
07E100
0A9000
0D4000
1F1000
4D0000
7A0000
ENDCHAR
STARTCHAR s
ENCODING 115
SWIDTH 428 0
DWIDTH 6 0
BBX 6 8 0 0
BITMAP
04CFD6
0D6023
0F4000
07E600
004D80
0004F0
5108D0
AEEB30
ENDCHAR
STARTCHAR t
ENCODING 116
SWIDTH 324 0
DWIDTH 5 0
BBX 5 10 0 0
BITMAP
006600
00D300
3CFDC0
05C000
089000
0B6000
0E3000
2F1000
2F1100
0AE900
ENDCHAR
STARTCHAR u
ENCODING 117
SWIDTH 577 0
DWIDTH 8 0
BBX 8 8 0 0
BITMAP
03E00098
06C000C5
099000F2
0C6003E0
0F2007B0
3F001E80
2F21AD50
09EC3D20
ENDCHAR
STARTCHAR v
ENCODING 118
SWIDTH 461 0
DWIDTH 6 0
BBX 7 8 0 0
BITMAP
4D0005D0
3E000D50
1F105D00
0E20D500
0D45D000
0B5C5000
09AC0000
08F50000
ENDCHAR
STARTCHAR w
ENCODING 119
SWIDTH 716 0
DWIDTH 10 0
BBX 11 8 0 0
BITMAP
3E004F400D50
2E00AC504D00
2F02D860B700
1F087872E100
1F1D17789000
0F69078E2000
0EC206CB0000
0EA005F40000
ENDCHAR
STARTCHAR x
ENCODING 120
SWIDTH 478 0
DWIDTH 7 0
BBX 8 8 -1 0
BITMAP
00A700AA
004D06C1
000D7E20
0006F400
000BF300
008A8900
05D12E10
2E300B70
ENDCHAR
STARTCHAR y
ENCODING 121
SWIDTH 461 0
DWIDTH 6 0
BBX 9 11 -2 -3
BITMAP
004D0005D0
002F000D50
000E206C00
000C41D400
000A67B000
00087D3000
0006DA0000
0004F20000
0009800000
005E100000
5EC3000000
ENDCHAR
STARTCHAR z
ENCODING 122
SWIDTH 443 0
DWIDTH 6 0
BBX 7 8 -1 0
BITMAP
006DDEF0
00000B80
00008B00
0004E100
002E4000
00B70000
08B00000
1FEDDA00
ENDCHAR
STARTCHAR braceleft
ENCODING 123
SWIDTH 349 0
DWIDTH 5 0
BBX 6 12 0 -2
BITMAP
0006E7
002E30
005B00
009700
03E200
BE4000
098000
079000
0A7000
0D4000
0E4000
07E200
ENDCHAR
STARTCHAR bar
ENCODING 124
SWIDTH 550 0
DWIDTH 8 0
BBX 2 14 3 -3
BITMAP
4A
4A
4A
4A
4A
4A
4A
4A
4A
4A
4A
4A
4A
4A
ENDCHAR
STARTCHAR braceright
ENCODING 125
SWIDTH 349 0
DWIDTH 5 0
BBX 6 12 -1 -2
BITMAP
003E70
0003E0
0003D0
0006A0
000970
000891
0004EB
003E30
008900
00B500
03E100
7E6000
ENDCHAR
STARTCHAR asciitilde
ENCODING 126
SWIDTH 550 0
DWIDTH 8 0
BBX 8 2 0 4
BITMAP
1AEC5044
3504BEB2
ENDCHAR
STARTCHAR nonbreakingspace
ENCODING 160
SWIDTH 259 0
DWIDTH 4 0
BBX 1 1 0 0
BITMAP
00
ENDCHAR
STARTCHAR exclamdown
ENCODING 161
SWIDTH 258 0
DWIDTH 4 0
BBX 4 11 0 -3
BITMAP
02E4
02C2
0000
0570
0940
0C20
1E00
4D00
8A00
B800
E600
ENDCHAR
STARTCHAR cent
ENCODING 162
SWIDTH 550 0
DWIDTH 8 0
BBX 7 10 1 0
BITMAP
0000C000
005DFD20
05E30200
0E500000
4E000000
6C000000
6C000000
3F402100
06EEC200
00B20000
ENDCHAR
STARTCHAR sterling
ENCODING 163
SWIDTH 550 0
DWIDTH 8 0
BBX 9 10 -1 0
BITMAP
00002BEE90
0000C80140
0002E00000
0006B00000
0009800000
02DFEDC000
001F100000
005C000000
02C4111000
1FFFFFF700
ENDCHAR
STARTCHAR currency
ENCODING 164
SWIDTH 550 0
DWIDTH 8 0
BBX 6 7 1 2
BITMAP
820009
6CDDBA
3C1097
68003A
3C1097
6CDDB9
82000A
ENDCHAR
STARTCHAR yen
ENCODING 165
SWIDTH 550 0
DWIDTH 8 0
BBX 9 10 0 0
BITMAP
03D0001E40
00E200B800
00A606C000
006A2D2000
002DC50000
08EFEE6000
000D300000
1DEFED1000
004C000000
0079000000
ENDCHAR
STARTCHAR brokenbar
ENCODING 166
SWIDTH 550 0
DWIDTH 8 0
BBX 2 14 3 -3
BITMAP
4A
4A
4A
4A
4A
00
00
00
00
4A
4A
4A
4A
4A
ENDCHAR
STARTCHAR section
ENCODING 167
SWIDTH 485 0
DWIDTH 7 0
BBX 7 11 0 0
BITMAP
003CDD70
00D50120
00D70000
008FC300
07A16E10
0C400E20
08C38A00
006ED000
0001D400
3102E300
6DDD6000
ENDCHAR
STARTCHAR dieresis
ENCODING 168
SWIDTH 554 0
DWIDTH 8 0
BBX 4 1 3 9
BITMAP
A33A
ENDCHAR
STARTCHAR copyright
ENCODING 169
SWIDTH 832 0
DWIDTH 12 0
BBX 11 10 1 0
BITMAP
004ABBB50000
08910017A000
5804CDB06700
B12E20100B00
B05A00000820
B06A00000820
B12D20100B00
5805DD906700
08910017A000
004ABBB60000
ENDCHAR
STARTCHAR ordfeminine
ENCODING 170
SWIDTH 334 0
DWIDTH 5 0
BBX 5 5 1 5
BITMAP
0ABA30
760D10
B10C00
C05A00
7B9700
ENDCHAR
STARTCHAR guillemotleft
ENCODING 171
SWIDTH 467 0
DWIDTH 7 0
BBX 7 6 0 1
BITMAP
00480830
04D26B00
3E35D100
2E189000
0971E100
01A07500
ENDCHAR
STARTCHAR logicalnot
ENCODING 172
SWIDTH 550 0
DWIDTH 8 0
BBX 8 3 0 2
BITMAP
2FFFFFF2
000000C2
000000C2
ENDCHAR
STARTCHAR uni00AD
ENCODING 173
SWIDTH 312 0
DWIDTH 4 0
BBX 4 2 0 2
BITMAP
8FFC
1111
ENDCHAR
STARTCHAR registered
ENCODING 174
SWIDTH 832 0
DWIDTH 12 0
BBX 11 10 1 0
BITMAP
004ABBB50000
08910017A000
5809DD806700
B10940D10B00
B00942D10820
B009DF400820
B10948800B00
580940C36700
08910017A000
004ABBB60000
ENDCHAR
STARTCHAR overscore
ENCODING 175
SWIDTH 381 0
DWIDTH 5 0
BBX 7 1 1 11
BITMAP
5EEEED10
ENDCHAR
STARTCHAR degree
ENCODING 176
SWIDTH 428 0
DWIDTH 6 0
BBX 5 4 1 6
BITMAP
0ACB10
670490
670490
0ACB20
ENDCHAR
STARTCHAR plusminus
ENCODING 177
SWIDTH 550 0
DWIDTH 8 0
BBX 8 8 0 0
BITMAP
00077000
00077000
00077000
2FFFFFF2
00077000
00077000
00000000
2FFFFFF2
ENDCHAR
STARTCHAR twosuperior
ENCODING 178
SWIDTH 350 0
DWIDTH 5 0
BBX 6 6 0 4
BITMAP
01BCB0
0020C2
0002C0
003B20
05A100
3FCC70
ENDCHAR
STARTCHAR threesuperior
ENCODING 179
SWIDTH 350 0
DWIDTH 5 0
BBX 6 6 0 4
BITMAP
02BCA0
0010C2
0002C0
00AD40
1004B0
2CBC40
ENDCHAR
STARTCHAR acute
ENCODING 180
SWIDTH 554 0
DWIDTH 8 0
BBX 4 2 3 8
BITMAP
03E3
2B20
ENDCHAR
STARTCHAR mu
ENCODING 181
SWIDTH 583 0
DWIDTH 8 0
BBX 9 11 -1 -3
BITMAP
002F100790
005D000B60
008A000E30
00B7002F10
00E4006C00
02F100D900
05F319D600
09BEC4C300
0C50000000
0F20000000
3E00000000
ENDCHAR
STARTCHAR paragraph
ENCODING 182
SWIDTH 654 0
DWIDTH 9 0
BBX 8 13 1 -2
BITMAP
06DFFFF4
3FFFF184
8FFFF084
9FFFF084
8FFFF084
4FFFF084
07DEF084
0000C084
0000C084
0000C084
0000C084
0000C084
0000C084
ENDCHAR
STARTCHAR periodcentered
ENCODING 183
SWIDTH 252 0
DWIDTH 4 0
BBX 2 2 1 4
BITMAP
79
B9
ENDCHAR
STARTCHAR cedilla
ENCODING 184
SWIDTH 205 0
DWIDTH 3 0
BBX 4 3 -2 -3
BITMAP
02B0
01A5
2BB2
ENDCHAR
STARTCHAR onesuperior
ENCODING 185
SWIDTH 350 0
DWIDTH 5 0
BBX 4 6 1 4
BITMAP
04D6
19B2
00D0
03B0
0680
0950
ENDCHAR
STARTCHAR ordmasculine
ENCODING 186
SWIDTH 335 0
DWIDTH 5 0
BBX 5 5 1 5
BITMAP
1AB800
840B10
B00A00
B01B00
5BB300
ENDCHAR
STARTCHAR guillemotright
ENCODING 187
SWIDTH 467 0
DWIDTH 7 0
BBX 6 6 0 1
BITMAP
0B1390
0880D2
01E289
06C19B
3D27B1
831B10
ENDCHAR
STARTCHAR onequarter
ENCODING 188
SWIDTH 741 0
DWIDTH 10 0
BBX 9 10 1 0
BITMAP
07E0002C10
57C000C300
0590097000
08505B0000
0C22D13E10
0D0C41BD00
00870A6A00
05B0856700
2D11CCED20
B40000C100
ENDCHAR
STARTCHAR onehalf
ENCODING 189
SWIDTH 741 0
DWIDTH 10 0
BBX 10 10 0 0
BITMAP
02B9000780
0896004C00
00B301D200
00E00B5000
02C0794BD7
0583C0102D
001C200078
00A5000690
0790008700
3C1008ECC3
ENDCHAR
STARTCHAR threequarters
ENCODING 190
SWIDTH 764 0
DWIDTH 11 0
BBX 11 10 0 0
BITMAP
04CD70002D10
0101E000C400
0005A0087000
01BD205B0000
100772D12E10
4CBB2B41BD00
0000880A6A00
0004B0856700
001D21CCED20
00B40000C100
ENDCHAR
STARTCHAR questiondown
ENCODING 191
SWIDTH 426 0
DWIDTH 6 0
BBX 6 11 0 -3
BITMAP
0004E2
0005B1
000000
000960
004E10
05E400
4E3000
C60000
F30000
D81350
4DEC60
ENDCHAR
STARTCHAR Agrave
ENCODING 192
SWIDTH 555 0
DWIDTH 8 0
BBX 9 13 -1 0
BITMAP
00002E2000
000005A000
0000000000
000009E000
00003DF100
0000B7E300
0004E1C400
000C70B600
005E109800
00DFFFFA00
07D1116C00
1E50004E00
8C00002F10
ENDCHAR
STARTCHAR Aacute
ENCODING 193
SWIDTH 555 0
DWIDTH 8 0
BBX 9 13 -1 0
BITMAP
0000003E30
000002B200
0000000000
000009E000
00003DF100
0000B7E300
0004E1C400
000C70B600
005E109800
00DFFFFA00
07D1116C00
1E50004E00
8C00002F10
ENDCHAR
STARTCHAR Acircumflex
ENCODING 194
SWIDTH 555 0
DWIDTH 8 0
BBX 9 13 -1 0
BITMAP
000005F700
00006A2B30
0000000000
000009E000
00003DF100
0000B7E300
0004E1C400
000C70B600
005E109800
00DFFFFA00
07D1116C00
1E50004E00
8C00002F10
ENDCHAR
STARTCHAR Atilde
ENCODING 195
SWIDTH 555 0
DWIDTH 8 0
BBX 9 13 -1 0
BITMAP
00006E81B0
0000B19E50
0000000000
000009E000
00003DF100
0000B7E300
0004E1C400
000C70B600
005E109800
00DFFFFA00
07D1116C00
1E50004E00
8C00002F10
ENDCHAR
STARTCHAR Adieresis
ENCODING 196
SWIDTH 555 0
DWIDTH 8 0
BBX 9 12 -1 0
BITMAP
0000490B20
0000000000
000009E000
00003DF100
0000B7E300
0004E1C400
000C70B600
005E109800
00DFFFFA00
07D1116C00
1E50004E00
8C00002F10
ENDCHAR
STARTCHAR Aring
ENCODING 197
SWIDTH 555 0
DWIDTH 8 0
BBX 9 12 -1 0
BITMAP
00000AB600
0000391B00
00000FF500
00003DF100
0000B7E300
0004E1C400
000C70B600
005E109800
00DFFFFA00
07D1116C00
1E50004E00
8C00002F10
ENDCHAR
STARTCHAR AE
ENCODING 198
SWIDTH 816 0
DWIDTH 11 0
BBX 13 10 -1 0
BITMAP
000000BFFFFFE0
000006D6C11110
00001E48900000
0000AB0B500000
0004F20EFFFB00
001D802E100000
009FFFFB000000
03F41198000000
0C8000C6111000
7D0001FFFFF000
ENDCHAR
STARTCHAR Ccedilla
ENCODING 199
SWIDTH 584 0
DWIDTH 8 0
BBX 8 13 1 -3
BITMAP
0029DFD7
03E93133
0D800000
6D000000
B8000000
D5000000
E5000000
C8000000
5F612400
06CFEB00
00570000
002D1000
04BA0000
ENDCHAR
STARTCHAR Egrave
ENCODING 200
SWIDTH 511 0
DWIDTH 7 0
BBX 8 13 0 0
BITMAP
0000C600
00002C10
00000000
006FFFF9
00981110
00C50000
01F10000
04FFFF70
07A11100
0A700000
0D400000
1F211100
5FFFFB00
ENDCHAR
STARTCHAR Eacute
ENCODING 201
SWIDTH 511 0
DWIDTH 7 0
BBX 8 13 0 0
BITMAP
000005D2
00003B10
00000000
006FFFF9
00981110
00C50000
01F10000
04FFFF70
07A11100
0A700000
0D400000
1F211100
5FFFFB00
ENDCHAR
STARTCHAR Ecircumflex
ENCODING 202
SWIDTH 511 0
DWIDTH 7 0
BBX 8 13 0 0
BITMAP
00004F80
0006A2B3
00000000
006FFFF9
00981110
00C50000
01F10000
04FFFF70
07A11100
0A700000
0D400000
1F211100
5FFFFB00
ENDCHAR
STARTCHAR Edieresis
ENCODING 203
SWIDTH 511 0
DWIDTH 7 0
BBX 8 12 0 0
BITMAP
000490B2
00000000
006FFFF9
00981110
00C50000
01F10000
04FFFF70
07A11100
0A700000
0D400000
1F211100
5FFFFB00
ENDCHAR
STARTCHAR Igrave
ENCODING 204
SWIDTH 272 0
DWIDTH 4 0
BBX 4 13 0 0
BITMAP
01D4
003B
0000
006B
0098
00C5
01F2
04E0
07A0
0A70
0D40
1F10
5D00
ENDCHAR
STARTCHAR Iacute
ENCODING 205
SWIDTH 272 0
DWIDTH 4 0
BBX 6 13 0 0
BITMAP
0002D5
001B40
000000
006B00
009800
00C500
01F200
04E000
07A000
0A7000
0D4000
1F1000
5D0000
ENDCHAR
STARTCHAR Icircumflex
ENCODING 206
SWIDTH 272 0
DWIDTH 4 0
BBX 6 13 0 0
BITMAP
003E90
05A2A4
000000
006B00
009800
00C500
01F200
04E000
07A000
0A7000
0D4000
1F1000
5D0000
ENDCHAR
STARTCHAR Idieresis
ENCODING 207
SWIDTH 272 0
DWIDTH 4 0
BBX 6 12 0 0
BITMAP
01C085
000000
006B00
009800
00C500
01F200
04E000
07A000
0A7000
0D4000
1F1000
5D0000
ENDCHAR
STARTCHAR Eth
ENCODING 208
SWIDTH 666 0
DWIDTH 9 0
BBX 9 10 0 0
BITMAP
006FFEC400
0099017F30
00C6000AA0
00E30006C0
03F00006D0
6FFFF108B0
0990000D60
0C50008D10
1F113AD300
4FFEC81000
ENDCHAR
STARTCHAR Ntilde
ENCODING 209
SWIDTH 702 0
DWIDTH 10 0
BBX 10 13 0 0
BITMAP
00004EA1B0
0000A27E70
0000000000
006F20005C
009E700089
00D7D000B6
01F1D400E2
04D08903E0
07A02E16B0
0A600C6980
0D3006BC50
2F0001EE10
5C0000AD00
ENDCHAR
STARTCHAR Ograve
ENCODING 210
SWIDTH 720 0
DWIDTH 10 0
BBX 9 13 1 0
BITMAP
0002E20000
00005A0000
0000000000
003AEEB300
04E7229E10
1E50000D60
7C00000A90
C700000A90
E500000C70
E500002F30
C80000AB00
5F612AE200
05CED92000
ENDCHAR
STARTCHAR Oacute
ENCODING 211
SWIDTH 720 0
DWIDTH 10 0
BBX 9 13 1 0
BITMAP
000003D300
00002B2000
0000000000
003AEEB300
04E7229E10
1E50000D60
7C00000A90
C700000A90
E500000C70
E500002F30
C80000AB00
5F612AE200
05CED92000
ENDCHAR
STARTCHAR Ocircumflex
ENCODING 212
SWIDTH 720 0
DWIDTH 10 0
BBX 9 13 1 0
BITMAP
00005F7000
0006A2B300
0000000000
003AEEB300
04E7229E10
1E50000D60
7C00000A90
C700000A90
E500000C70
E500002F30
C80000AB00
5F612AE200
05CED92000
ENDCHAR
STARTCHAR Otilde
ENCODING 213
SWIDTH 720 0
DWIDTH 10 0
BBX 9 13 1 0
BITMAP
0007E72A00
001B2AE300
0000000000
003AEEB300
04E7229E10
1E50000D60
7C00000A90
C700000A90
E500000C70
E500002F30
C80000AB00
5F612AE200
05CED92000
ENDCHAR
STARTCHAR Odieresis
ENCODING 214
SWIDTH 720 0
DWIDTH 10 0
BBX 9 12 1 0
BITMAP
000490B200
0000000000
003AEEB300
04E7229E10
1E50000D60
7C00000A90
C700000A90
E500000C70
E500002F30
C80000AB00
5F612AE200
05CED92000
ENDCHAR
STARTCHAR multiply
ENCODING 215
SWIDTH 550 0
DWIDTH 8 0
BBX 6 6 1 2
BITMAP
850049
3D44D3
03EE30
03EE30
3D44D3
840049
ENDCHAR
STARTCHAR Oslash
ENCODING 216
SWIDTH 720 0
DWIDTH 10 0
BBX 10 12 0 -1
BITMAP
0000000002
0003AEEA9B
004E722BF2
01E5003EE6
07C001D5A9
0C700C70A9
0E509A00C7
0E47C102F3
0CBD100AB0
06F812AE20
1D8CED9200
0300000000
ENDCHAR
STARTCHAR Ugrave
ENCODING 217
SWIDTH 675 0
DWIDTH 9 0
BBX 9 13 1 0
BITMAP
0003E10000
0000680000
0000000000
0890000A80
0B60000D40
0E30001F10
3E00005D00
6B00008A00
980000B700
C60000E300
D50005D000
9C214E5000
1AEEC50000
ENDCHAR
STARTCHAR Uacute
ENCODING 218
SWIDTH 675 0
DWIDTH 9 0
BBX 9 13 1 0
BITMAP
000003E300
00002B2000
0000000000
0890000A80
0B60000D40
0E30001F10
3E00005D00
6B00008A00
980000B700
C60000E300
D50005D000
9C214E5000
1AEEC50000
ENDCHAR
STARTCHAR Ucircumflex
ENCODING 219
SWIDTH 675 0
DWIDTH 9 0
BBX 9 13 1 0
BITMAP
00006F6000
000792C200
0000000000
0890000A80
0B60000D40
0E30001F10
3E00005D00
6B00008A00
980000B700
C60000E300
D50005D000
9C214E5000
1AEEC50000
ENDCHAR
STARTCHAR Udieresis
ENCODING 220
SWIDTH 675 0
DWIDTH 9 0
BBX 9 12 1 0
BITMAP
000670C000
0000000000
0890000A80
0B60000D40
0E30001F10
3E00005D00
6B00008A00
980000B700
C60000E300
D50005D000
9C214E5000
1AEEC50000
ENDCHAR
STARTCHAR Yacute
ENCODING 221
SWIDTH 502 0
DWIDTH 7 0
BBX 8 13 1 0
BITMAP
00009A00
00079000
00000000
990005E1
5C001E50
1F109900
0C44D100
089D4000
04F90000
02F10000
06C00000
09900000
0C600000
ENDCHAR
STARTCHAR Thorn
ENCODING 222
SWIDTH 565 0
DWIDTH 8 0
BBX 8 10 0 0
BITMAP
006C0000
00990000
00CFFD70
01F303E5
04E000A8
07B000D6
0A802AE1
0DFFD920
1F200000
5D000000
ENDCHAR
STARTCHAR germandbls
ENCODING 223
SWIDTH 577 0
DWIDTH 8 0
BBX 10 14 -2 -3
BITMAP
000008DEB1
00006C10B8
0000C400B7
0001F11AB0
0004D0B900
0008A0E300
000B608D30
000E3008D0
002F0001F1
005C3207D0
00994DEC30
00C5000000
03E1000000
AE60000000
ENDCHAR
STARTCHAR agrave
ENCODING 224
SWIDTH 564 0
DWIDTH 8 0
BBX 8 11 0 0
BITMAP
0005D000
00008600
00000000
004CE968
03E508E5
0B8003F2
1F2004E0
4E0008B0
4D001E80
2F21AD50
08EC4C20
ENDCHAR
STARTCHAR aacute
ENCODING 225
SWIDTH 564 0
DWIDTH 8 0
BBX 8 11 0 0
BITMAP
00000B90
00008700
00000000
004CE968
03E508E5
0B8003F2
1F2004E0
4E0008B0
4D001E80
2F21AD50
08EC4C20
ENDCHAR
STARTCHAR acircumflex
ENCODING 226
SWIDTH 564 0
DWIDTH 8 0
BBX 8 11 0 0
BITMAP
0001CE10
001B5690
00000000
004CE968
03E508E5
0B8003F2
1F2004E0
4E0008B0
4D001E80
2F21AD50
08EC4C20
ENDCHAR
STARTCHAR atilde
ENCODING 227
SWIDTH 564 0
DWIDTH 8 0
BBX 8 11 0 0
BITMAP
001CC374
00754DB0
00000000
004CE968
03E508E5
0B8003F2
1F2004E0
4E0008B0
4D001E80
2F21AD50
08EC4C20
ENDCHAR
STARTCHAR adieresis
ENCODING 228
SWIDTH 564 0
DWIDTH 8 0
BBX 8 10 0 0
BITMAP
000A34A0
00000000
004CE968
03E508E5
0B8003F2
1F2004E0
4E0008B0
4D001E80
2F21AD50
08EC4C20
ENDCHAR
STARTCHAR aring
ENCODING 229
SWIDTH 564 0
DWIDTH 8 0
BBX 8 12 0 0
BITMAP
0002BB30
00075570
0003BB20
00000000
004CE968
03E508E5
0B8003F2
1F2004E0
4E0008B0
4D001E80
2F21AD50
08EC4C20
ENDCHAR
STARTCHAR ae
ENCODING 230
SWIDTH 814 0
DWIDTH 11 0
BBX 12 8 0 0
BITMAP
004DE6A7DE90
03E51AFA23F1
0B8007D139C0
1F2008FDC710
4E000C700000
5D004F800000
3F23BFE20420
09EB3B9EEB20
ENDCHAR
STARTCHAR ccedilla
ENCODING 231
SWIDTH 450 0
DWIDTH 6 0
BBX 7 11 0 -3
BITMAP
004CED30
03E50210
0C700000
2F100000
4D000000
4E000000
1E602200
04CED300
00750000
002D0000
06B90000
ENDCHAR
STARTCHAR egrave
ENCODING 232
SWIDTH 493 0
DWIDTH 7 0
BBX 7 11 0 0
BITMAP
000A8000
0001C200
00000000
004CEC20
03D30C70
0B526E30
2FED9300
4D000000
4E000000
1E702400
04DED500
ENDCHAR
STARTCHAR eacute
ENCODING 233
SWIDTH 493 0
DWIDTH 7 0
BBX 7 11 0 0
BITMAP
00000C70
0000A600
00000000
004CEC20
03D30C70
0B526E30
2FED9300
4D000000
4E000000
1E702400
04DED500
ENDCHAR
STARTCHAR ecircumflex
ENCODING 234
SWIDTH 493 0
DWIDTH 7 0
BBX 7 11 0 0
BITMAP
0003EB00
004B3A50
00000000
004CEC20
03D30C70
0B526E30
2FED9300
4D000000
4E000000
1E702400
04DED500
ENDCHAR
STARTCHAR edieresis
ENCODING 235
SWIDTH 493 0
DWIDTH 7 0
BBX 7 10 0 0
BITMAP
001C0860
00000000
004CEC20
03D30C70
0B526E30
2FED9300
4D000000
4E000000
1E702400
04DED500
ENDCHAR
STARTCHAR igrave
ENCODING 236
SWIDTH 253 0
DWIDTH 4 0
BBX 4 11 0 0
BITMAP
0990
01B2
0000
01F1
04D0
07A0
0A70
0D40
1F10
4D00
7A00
ENDCHAR
STARTCHAR iacute
ENCODING 237
SWIDTH 253 0
DWIDTH 4 0
BBX 5 11 0 0
BITMAP
0009A0
007900
000000
01F100
04D000
07A000
0A7000
0D4000
1F1000
4D0000
7A0000
ENDCHAR
STARTCHAR icircumflex
ENCODING 238
SWIDTH 253 0
DWIDTH 4 0
BBX 5 11 0 0
BITMAP
01CD10
2B5690
000000
01F100
04D000
07A000
0A7000
0D4000
1F1000
4D0000
7A0000
ENDCHAR
STARTCHAR idieresis
ENCODING 239
SWIDTH 253 0
DWIDTH 4 0
BBX 5 10 0 0
BITMAP
0B3490
000000
01F100
04D000
07A000
0A7000
0D4000
1F1000
4D0000
7A0000
ENDCHAR
STARTCHAR eth
ENCODING 240
SWIDTH 568 0
DWIDTH 8 0
BBX 8 11 0 0
BITMAP
0002C387
0001BF70
000A68A0
000001F1
007DE8D3
08C209F4
1F2002F2
5D0003E0
5D0008A0
2F405E20
05DEB300
ENDCHAR
STARTCHAR ntilde
ENCODING 241
SWIDTH 577 0
DWIDTH 8 0
BBX 8 11 0 0
BITMAP
000BD466
00573DC1
00000000
01E3CEA0
04EA22F3
07E100E3
0A8001F1
0D4005D0
1F1008A0
4D000B70
7A000E40
ENDCHAR
STARTCHAR ograve
ENCODING 242
SWIDTH 561 0
DWIDTH 8 0
BBX 8 11 0 0
BITMAP
0008A000
0000B400
00000000
004CEB20
04E408D0
0C6001F2
2F1000F2
4D0003F1
4E0008A0
1E504E30
04CEC300
ENDCHAR
STARTCHAR oacute
ENCODING 243
SWIDTH 561 0
DWIDTH 8 0
BBX 8 11 0 0
BITMAP
00000C80
00009600
00000000
004CEB20
04E408D0
0C6001F2
2F1000F2
4D0003F1
4E0008A0
1E504E30
04CEC300
ENDCHAR
STARTCHAR ocircumflex
ENCODING 244
SWIDTH 561 0
DWIDTH 8 0
BBX 8 11 0 0
BITMAP
0001CD10
002B4790
00000000
004CEB20
04E408D0
0C6001F2
2F1000F2
4D0003F1
4E0008A0
1E504E30
04CEC300
ENDCHAR
STARTCHAR otilde
ENCODING 245
SWIDTH 561 0
DWIDTH 8 0
BBX 8 11 0 0
BITMAP
002DC283
00845DA0
00000000
004CEB20
04E408D0
0C6001F2
2F1000F2
4D0003F1
4E0008A0
1E504E30
04CEC300
ENDCHAR
STARTCHAR odieresis
ENCODING 246
SWIDTH 561 0
DWIDTH 8 0
BBX 8 10 0 0
BITMAP
000C1670
00000000
004CEB20
04E408D0
0C6001F2
2F1000F2
4D0003F1
4E0008A0
1E504E30
04CEC300
ENDCHAR
STARTCHAR divide
ENCODING 247
SWIDTH 550 0
DWIDTH 8 0
BBX 8 6 0 2
BITMAP
00099000
00055000
00000000
2FFFFFF2
00055000
00099000
ENDCHAR
STARTCHAR oslash
ENCODING 248
SWIDTH 561 0
DWIDTH 8 0
BBX 8 8 0 0
BITMAP
005CECB3
04E40CE0
0C507BF2
2E03D1F1
4D1D32E0
4DB60790
1EB04D20
4BCEC300
ENDCHAR
STARTCHAR ugrave
ENCODING 249
SWIDTH 577 0
DWIDTH 8 0
BBX 8 11 0 0
BITMAP
0008A000
0000A400
00000000
03E00098
06C000C5
099000F2
0C6003E0
0F2007B0
3F001E80
2F21AD50
09EC3D20
ENDCHAR
STARTCHAR uacute
ENCODING 250
SWIDTH 577 0
DWIDTH 8 0
BBX 8 11 0 0
BITMAP
000007C1
00005A10
00000000
03E00098
06C000C5
099000F2
0C6003E0
0F2007B0
3F001E80
2F21AD50
09EC3D20
ENDCHAR
STARTCHAR ucircumflex
ENCODING 251
SWIDTH 577 0
DWIDTH 8 0
BBX 8 11 0 0
BITMAP
0000AF20
001A64B0
00000000
03E00098
06C000C5
099000F2
0C6003E0
0F2007B0
3F001E80
2F21AD50
09EC3D20
ENDCHAR
STARTCHAR udieresis
ENCODING 252
SWIDTH 577 0
DWIDTH 8 0
BBX 8 10 0 0
BITMAP
000A33A0
00000000
03E00098
06C000C5
099000F2
0C6003E0
0F2007B0
3F001E80
2F21AD50
09EC3D20
ENDCHAR
STARTCHAR yacute
ENCODING 253
SWIDTH 461 0
DWIDTH 6 0
BBX 9 14 -2 -3
BITMAP
0000006C10
000004B100
0000000000
004D0005D0
002F000D50
000E206C00
000C41D400
000A67B000
00087D3000
0006DA0000
0004F20000
0009800000
005E100000
5EC3000000
ENDCHAR
STARTCHAR thorn
ENCODING 254
SWIDTH 577 0
DWIDTH 8 0
BBX 9 14 -1 -3
BITMAP
0007B00000
000A700000
000D400000
001F4CE800
004EB22E30
008E100C50
00B8000D50
00E4001F20
02F3007D00
05E804E400
0898ED5000
0C60000000
0E20000000
3E00000000
ENDCHAR
STARTCHAR ydieresis
ENCODING 255
SWIDTH 461 0
DWIDTH 6 0
BBX 9 13 -2 -3
BITMAP
0000851C00
0000000000
004D0005D0
002F000D50
000E206C00
000C41D400
000A67B000
00087D3000
0006DA0000
0004F20000
0009800000
005E100000
5EC3000000
ENDCHAR
STARTCHAR Amacron
ENCODING 256
SWIDTH 555 0
DWIDTH 8 0
BBX 9 12 -1 0
BITMAP
00006FFF40
0000000000
000009E000
00003DF100
0000B7E300
0004E1C400
000C70B600
005E109800
00DFFFFA00
07D1116C00
1E50004E00
8C00002F10
ENDCHAR
STARTCHAR amacron
ENCODING 257
SWIDTH 564 0
DWIDTH 8 0
BBX 8 10 0 0
BITMAP
000DFFC0
00000000
004CE968
03E508E5
0B8003F2
1F2004E0
4E0008B0
4D001E80
2F21AD50
08EC4C20
ENDCHAR
STARTCHAR Abreve
ENCODING 258
SWIDTH 555 0
DWIDTH 8 0
BBX 9 13 -1 0
BITMAP
0000670850
00001CE900
0000000000
000009E000
00003DF100
0000B7E300
0004E1C400
000C70B600
005E109800
00DFFFFA00
07D1116C00
1E50004E00
8C00002F10
ENDCHAR
STARTCHAR abreve
ENCODING 259
SWIDTH 564 0
DWIDTH 8 0
BBX 8 11 0 0
BITMAP
000A31B1
0004EE50
00000000
004CE968
03E508E5
0B8003F2
1F2004E0
4E0008B0
4D001E80
2F21AD50
08EC4C20
ENDCHAR
STARTCHAR Aogonek
ENCODING 260
SWIDTH 555 0
DWIDTH 8 0
BBX 9 13 -1 -3
BITMAP
000009E000
00003DF100
0000B7E300
0004E1C400
000C70B600
005E109800
00DFFFFA00
07D1116C00
1E50004E00
8C00002F10
0000009400
0000059000
000003D600
ENDCHAR
STARTCHAR aogonek
ENCODING 261
SWIDTH 564 0
DWIDTH 8 0
BBX 8 11 0 -3
BITMAP
004CE968
03E508E5
0B8003F2
1F2004E0
4E0008B0
4D001E80
2F21AD50
08EC4C20
00008500
0003B000
0002D700
ENDCHAR
STARTCHAR Cacute
ENCODING 262
SWIDTH 584 0
DWIDTH 8 0
BBX 8 13 1 0
BITMAP
000002D5
00001B40
00000000
0029DFD7
03E93133
0D800000
6D000000
B8000000
D5000000
E5000000
C8000000
5F612400
06CFEB00
ENDCHAR
STARTCHAR cacute
ENCODING 263
SWIDTH 450 0
DWIDTH 6 0
BBX 7 11 0 0
BITMAP
00000A90
00008800
00000000
004CED30
03E50210
0C700000
2F100000
4D000000
4E000000
1E602200
04CED300
ENDCHAR
STARTCHAR Ccircumflex
ENCODING 264
SWIDTH 584 0
DWIDTH 8 0
BBX 8 13 1 0
BITMAP
00005F70
0006A2B3
00000000
0029DFD7
03E93133
0D800000
6D000000
B8000000
D5000000
E5000000
C8000000
5F612400
06CFEB00
ENDCHAR
STARTCHAR ccircumflex
ENCODING 265
SWIDTH 450 0
DWIDTH 6 0
BBX 7 11 0 0
BITMAP
0003EA00
004B3A50
00000000
004CED30
03E50210
0C700000
2F100000
4D000000
4E000000
1E602200
04CED300
ENDCHAR
STARTCHAR Cdot
ENCODING 266
SWIDTH 584 0
DWIDTH 8 0
BBX 8 13 1 0
BITMAP
00003D00
00004B00
00000000
0029DFD7
03E93133
0D800000
6D000000
B8000000
D5000000
E5000000
C8000000
5F612400
06CFEB00
ENDCHAR
STARTCHAR cdot
ENCODING 267
SWIDTH 450 0
DWIDTH 6 0
BBX 7 11 0 0
BITMAP
00009600
0000B400
00000000
004CED30
03E50210
0C700000
2F100000
4D000000
4E000000
1E602200
04CED300
ENDCHAR
STARTCHAR Ccaron
ENCODING 268
SWIDTH 584 0
DWIDTH 8 0
BBX 8 13 1 0
BITMAP
000693B3
0000CD20
00000000
0029DFD7
03E93133
0D800000
6D000000
B8000000
D5000000
E5000000
C8000000
5F612400
06CFEB00
ENDCHAR
STARTCHAR ccaron
ENCODING 269
SWIDTH 450 0
DWIDTH 6 0
BBX 7 11 0 0
BITMAP
001C3880
0005F700
00000000
004CED30
03E50210
0C700000
2F100000
4D000000
4E000000
1E602200
04CED300
ENDCHAR
STARTCHAR Dcaron
ENCODING 270
SWIDTH 666 0
DWIDTH 9 0
BBX 9 13 0 0
BITMAP
0001C37900
00004F8000
0000000000
006FFEC400
0098017F30
00C5000AA0
01F20006C0
04E00006D0
07B00008B0
0A80000D60
0D40008D10
1F113AD300
5FFEC81000
ENDCHAR
STARTCHAR dcaron
ENCODING 271
SWIDTH 577 0
DWIDTH 8 0
BBX 11 11 0 0
BITMAP
0000000E3B60
0000002F5900
0000005C0000
004CE9890000
03E507E60000
0B8002F30000
1F2003F00000
4E0007C00000
4D001E900000
2F21AD600000
08EC3C300000
ENDCHAR
STARTCHAR Dcroat
ENCODING 272
SWIDTH 666 0
DWIDTH 9 0
BBX 9 10 0 0
BITMAP
006FFEC400
0099017F30
00C6000AA0
00E30006C0
03F00006D0
6FFFF108B0
0990000D60
0C50008D10
1F113AD300
4FFEC81000
ENDCHAR
STARTCHAR dcroat
ENCODING 273
SWIDTH 577 0
DWIDTH 8 0
BBX 9 11 0 0
BITMAP
0000000E30
0000ADEFD0
0000006B00
004CE98800
04E408E500
0C8002F200
1F2003E000
4E0007C000
5D001D9000
2F21AD6000
08EC3C3000
ENDCHAR
STARTCHAR Emacron
ENCODING 274
SWIDTH 511 0
DWIDTH 7 0
BBX 8 12 0 0
BITMAP
0007FFF3
00000000
006FFFF9
00981110
00C50000
01F10000
04FFFF70
07A11100
0A700000
0D400000
1F211100
5FFFFB00
ENDCHAR
STARTCHAR emacron
ENCODING 275
SWIDTH 493 0
DWIDTH 7 0
BBX 7 10 0 0
BITMAP
002FFF90
00000000
004CEC20
03D30C70
0B526E30
2FED9300
4D000000
4E000000
1E702400
04DED500
ENDCHAR
STARTCHAR Ebreve
ENCODING 276
SWIDTH 511 0
DWIDTH 7 0
BBX 8 13 0 0
BITMAP
00049076
0001BEA0
00000000
006FFFF9
00981110
00C50000
01F10000
04FFFF70
07A11100
0A700000
0D400000
1F211100
5FFFFB00
ENDCHAR
STARTCHAR ebreve
ENCODING 277
SWIDTH 493 0
DWIDTH 7 0
BBX 7 11 0 0
BITMAP
000C13A0
0008EC20
00000000
004CEC20
03D30C70
0B526E30
2FED9300
4D000000
4E000000
1E702400
04DED500
ENDCHAR
STARTCHAR Edotaccent
ENCODING 278
SWIDTH 511 0
DWIDTH 7 0
BBX 8 13 0 0
BITMAP
00003C00
00004B00
00000000
006FFFF9
00981110
00C50000
01F10000
04FFFF70
07A11100
0A700000
0D400000
1F211100
5FFFFB00
ENDCHAR
STARTCHAR edotaccent
ENCODING 279
SWIDTH 493 0
DWIDTH 7 0
BBX 7 11 0 0
BITMAP
0000B400
0000C200
00000000
004CEC20
03D30C70
0B526E30
2FED9300
4D000000
4E000000
1E702400
04DED500
ENDCHAR
STARTCHAR Eogonek
ENCODING 280
SWIDTH 511 0
DWIDTH 7 0
BBX 8 13 0 -3
BITMAP
006FFFF9
00981110
00C50000
01F10000
04FFFF70
07A11100
0A700000
0D400000
1F211100
5FFFFB00
00049000
000D1000
000BC000
ENDCHAR
STARTCHAR eogonek
ENCODING 281
SWIDTH 493 0
DWIDTH 7 0
BBX 7 11 0 -3
BITMAP
004CEC20
03D30C70
0B526E30
2FED9300
4D000000
4E000000
1E702400
04DED500
00076000
002C0000
002D8000
ENDCHAR
STARTCHAR Ecaron
ENCODING 282
SWIDTH 511 0
DWIDTH 7 0
BBX 8 13 0 0
BITMAP
0004B2A5
00009E40
00000000
006FFFF9
00981110
00C50000
01F10000
04FFFF70
07A11100
0A700000
0D400000
1F211100
5FFFFB00
ENDCHAR
STARTCHAR ecaron
ENCODING 283
SWIDTH 493 0
DWIDTH 7 0
BBX 7 11 0 0
BITMAP
001C3880
0005F700
00000000
004CEC20
03D30C70
0B526E30
2FED9300
4D000000
4E000000
1E702400
04DED500
ENDCHAR
STARTCHAR Gcircumflex
ENCODING 284
SWIDTH 676 0
DWIDTH 9 0
BBX 9 13 1 0
BITMAP
00005F7000
000792C200
0000000000
0029DFDA10
03E9313700
1D80000000
6D00000000
B800000000
D5007FFA00
E50001C600
C80000F300
5F6115E000
05CEEC7000
ENDCHAR
STARTCHAR gcircumflex
ENCODING 285
SWIDTH 500 0
DWIDTH 7 0
BBX 9 14 -1 -3
BITMAP
00003E9000
0005A2B400
0000000000
0019DEFC50
008A01F100
00D400F200
00D407D000
005ECB2000
02D1000000
03FFD91000
4C213B9000
C50006A000
B8003D5000
2BDDC60000
ENDCHAR
STARTCHAR Gbreve
ENCODING 286
SWIDTH 676 0
DWIDTH 9 0
BBX 9 13 1 0
BITMAP
0007609400
0002CE8000
0000000000
0029DFDA10
03E9313700
1D80000000
6D00000000
B800000000
D5007FFA00
E50001C600
C80000F300
5F6115E000
05CEEC7000
ENDCHAR
STARTCHAR gbreve
ENCODING 287
SWIDTH 500 0
DWIDTH 7 0
BBX 9 14 -1 -3
BITMAP
0003A05800
0000AEB100
0000000000
0019DEFC50
008A01F100
00D400F200
00D407D000
005ECB2000
02D1000000
03FFD91000
4C213B9000
C50006A000
B8003D5000
2BDDC60000
ENDCHAR
STARTCHAR Gdot
ENCODING 288
SWIDTH 676 0
DWIDTH 9 0
BBX 9 13 1 0
BITMAP
00002D0000
00002C0000
0000000000
0029DFDA10
03E9313700
1D80000000
6D00000000
B800000000
D5007FFA00
E50001C600
C80000F300
5F6115E000
05CEEC7000
ENDCHAR
STARTCHAR gdot
ENCODING 289
SWIDTH 500 0
DWIDTH 7 0
BBX 9 14 -1 -3
BITMAP
0000097000
00000A5000
0000000000
0019DEFC50
008A01F100
00D400F200
00D407D000
005ECB2000
02D1000000
03FFD91000
4C213B9000
C50006A000
B8003D5000
2BDDC60000
ENDCHAR
STARTCHAR Gcommaaccent
ENCODING 290
SWIDTH 676 0
DWIDTH 9 0
BBX 9 13 1 -3
BITMAP
0029DFDA10
03E9313700
1D80000000
6D00000000
B800000000
D5007FFA00
E50001C600
C80000F300
5F6115E000
05CEEC7000
0000000000
002E100000
0094000000
ENDCHAR
STARTCHAR gcommaaccent
ENCODING 291
SWIDTH 500 0
DWIDTH 7 0
BBX 9 14 -1 -3
BITMAP
000000B200
0000089000
0000000000
0019DEFC50
008A01F100
00D400F200
00D407D000
005ECB2000
02D1000000
03FFD91000
4C213B9000
C50006A000
B8003D5000
2BDDC60000
ENDCHAR
STARTCHAR Hcircumflex
ENCODING 292
SWIDTH 678 0
DWIDTH 10 0
BBX 10 13 0 0
BITMAP
000008F400
0000883C10
0000000000
006B0000B6
00980000E3
00C50003F0
01F10006C0
04FFFFFF90
07A1111D60
0A70001F20
0D40003E00
1F10006B00
5D00009800
ENDCHAR
STARTCHAR hcircumflex
ENCODING 293
SWIDTH 577 0
DWIDTH 8 0
BBX 8 11 0 0
BITMAP
007A5F70
00AE92C2
00D40000
01F3CEA0
04EA21E3
07E100E3
0A8002F1
0D4005D0
1F1008A0
4D000B70
7A000E30
ENDCHAR
STARTCHAR Hbar
ENCODING 294
SWIDTH 678 0
DWIDTH 10 0
BBX 11 10 0 0
BITMAP
006C0000B700
00990000E500
1FFFFFFFFF60
00E20005D000
03FFFFFFA000
06A1111D7000
0A70001F3000
0D40003F0000
1F10006C0000
4D0000980000
ENDCHAR
STARTCHAR hbar
ENCODING 295
SWIDTH 577 0
DWIDTH 8 0
BBX 8 11 0 0
BITMAP
007A0000
0AFEDB00
00E30000
02F3CE90
05DA21F2
08E100E3
0B8002F1
0E4005D0
1F1008A0
4D000B60
7A000E30
ENDCHAR
STARTCHAR Itilde
ENCODING 296
SWIDTH 272 0
DWIDTH 4 0
BBX 6 13 0 0
BITMAP
05E91B
0B18E6
000000
006B00
009800
00C500
01F200
04E000
07A000
0A7000
0D4000
1F1000
5D0000
ENDCHAR
STARTCHAR itilde
ENCODING 297
SWIDTH 253 0
DWIDTH 4 0
BBX 6 11 0 0
BITMAP
1CC375
654DB0
000000
01F100
04D000
07A000
0A7000
0D4000
1F1000
4D0000
7A0000
ENDCHAR
STARTCHAR Imacron
ENCODING 298
SWIDTH 272 0
DWIDTH 4 0
BBX 6 12 0 0
BITMAP
05FFF5
000000
006B00
009800
00C500
01F200
04E000
07A000
0A7000
0D4000
1F1000
5D0000
ENDCHAR
STARTCHAR imacron
ENCODING 299
SWIDTH 253 0
DWIDTH 4 0
BBX 5 10 0 0
BITMAP
1EFFA0
000000
01F100
04D000
07A000
0A7000
0D4000
1F1000
4D0000
7A0000
ENDCHAR
STARTCHAR Ibreve
ENCODING 300
SWIDTH 272 0
DWIDTH 4 0
BBX 6 13 0 0
BITMAP
03A058
00AEB1
000000
006B00
009800
00C500
01F200
04E000
07A000
0A7000
0D4000
1F1000
5D0000
ENDCHAR
STARTCHAR ibreve
ENCODING 301
SWIDTH 253 0
DWIDTH 4 0
BBX 5 11 0 0
BITMAP
0C12B0
07ED30
000000
01F100
04D000
07A000
0A7000
0D4000
1F1000
4D0000
7A0000
ENDCHAR
STARTCHAR Iogonek
ENCODING 302
SWIDTH 272 0
DWIDTH 4 0
BBX 5 13 -1 -3
BITMAP
0006B0
000980
000C50
001F20
004E00
007A00
00A700
00D400
01F100
05D000
094000
680000
4D5000
ENDCHAR
STARTCHAR iogonek
ENCODING 303
SWIDTH 253 0
DWIDTH 4 0
BBX 5 14 -1 -3
BITMAP
000790
000430
000000
001F10
004D00
007A00
00A700
00D400
01F100
04D000
07A000
1A2000
950000
7D3000
ENDCHAR
STARTCHAR Idotaccent
ENCODING 304
SWIDTH 272 0
DWIDTH 4 0
BBX 5 13 0 0
BITMAP
000C30
000D20
000000
006B00
009800
00C500
01F200
04E000
07A000
0A7000
0D4000
1F1000
5D0000
ENDCHAR
STARTCHAR dotlessi
ENCODING 305
SWIDTH 253 0
DWIDTH 4 0
BBX 4 8 0 0
BITMAP
01F1
04D0
07A0
0A70
0D40
1F10
4D00
7A00
ENDCHAR
STARTCHAR IJ
ENCODING 306
SWIDTH 540 0
DWIDTH 8 0
BBX 8 13 0 -3
BITMAP
006B0099
009800C6
00C500E3
01F203E0
04E006C0
07A00980
0A700C50
0D400F20
1F103E00
5D006B00
0000A800
0115E200
05FD5000
ENDCHAR
STARTCHAR ij
ENCODING 307
SWIDTH 507 0
DWIDTH 7 0
BBX 8 14 0 -3
BITMAP
007900D2
00430060
00000000
01F10890
04D00B60
07A00E30
0A703E00
0D406B00
1F109800
4D00C500
7A00F200
0003E000
00099000
03EC2000
ENDCHAR
STARTCHAR Jcircumflex
ENCODING 308
SWIDTH 267 0
DWIDTH 4 0
BBX 9 16 -3 -3
BITMAP
000004F800
00005A2B30
0000000000
000006B000
0000098000
00000C5000
00000F2000
00003E0000
00006B0000
0000980000
0000D50000
0001F20000
0004E00000
0007A00000
013E500000
2FE7000000
ENDCHAR
STARTCHAR jcircumflex
ENCODING 309
SWIDTH 253 0
DWIDTH 4 0
BBX 7 14 -2 -3
BITMAP
0001CD00
002B4780
00000000
0002F100
0005C000
00089000
000B6000
000E3000
002F0000
005C0000
00890000
00C50000
03E10000
BE600000
ENDCHAR
STARTCHAR Kcommaaccent
ENCODING 310
SWIDTH 557 0
DWIDTH 8 0
BBX 9 13 0 -3
BITMAP
006B001C80
009801C800
00C51C8000
01F3C80000
04ECC00000
07E5E20000
0A70990000
0D403E1000
1F100C6000
5D0006D000
0000000000
003D100000
00A3000000
ENDCHAR
STARTCHAR kcommaaccent
ENCODING 311
SWIDTH 487 0
DWIDTH 7 0
BBX 7 14 0 -3
BITMAP
007B0000
00A70000
00D40000
01F109B0
04D08C10
0797C100
0ABF3000
0DBB7000
1F14E000
5D00D600
8A007C00
00000000
00A60000
04A00000
ENDCHAR
STARTCHAR kgreenlandic
ENCODING 312
SWIDTH 487 0
DWIDTH 7 0
BBX 7 8 0 0
BITMAP
02F109B0
05C08C10
0897C100
0BBF3000
0EBB7000
2F14E000
5D00D600
8A007C00
ENDCHAR
STARTCHAR Lacute
ENCODING 313
SWIDTH 474 0
DWIDTH 7 0
BBX 6 13 0 0
BITMAP
0000C7
000A60
000000
006B00
009800
00C500
01F200
04E000
07A000
0A7000
0D4000
1F2111
5FFFFB
ENDCHAR
STARTCHAR lacute
ENCODING 314
SWIDTH 253 0
DWIDTH 4 0
BBX 6 11 0 0
BITMAP
007CD5
00BF40
00D400
01F100
04D000
07A000
0A7000
0D4000
1F1000
5D0000
8A0000
ENDCHAR
STARTCHAR Lcommaaccent
ENCODING 315
SWIDTH 474 0
DWIDTH 7 0
BBX 6 13 0 -3
BITMAP
006B00
009800
00C500
01F200
04E000
07A000
0A7000
0D4000
1F2111
5FFFFB
000000
002E10
009400
ENDCHAR
STARTCHAR lcommaaccent
ENCODING 316
SWIDTH 253 0
DWIDTH 4 0
BBX 5 14 -1 -3
BITMAP
0007B0
000A70
000D40
001F10
004D00
007A00
00A700
00D400
01F100
05D000
08A000
000000
0D3000
770000
ENDCHAR
STARTCHAR Lcaron
ENCODING 317
SWIDTH 474 0
DWIDTH 7 0
BBX 8 10 0 0
BITMAP
006B02E1
00980940
00C50000
01F20000
04E00000
07A00000
0A700000
0D400000
1F211100
5FFFFB00
ENDCHAR
STARTCHAR lcaron
ENCODING 318
SWIDTH 253 0
DWIDTH 4 0
BBX 6 11 0 0
BITMAP
007B4D
00A8B2
00D400
01F100
04D000
07A000
0A7000
0D4000
1F1000
5D0000
8A0000
ENDCHAR
STARTCHAR Ldot
ENCODING 319
SWIDTH 474 0
DWIDTH 7 0
BBX 6 10 0 0
BITMAP
006B00
009800
00C500
01F200
04E02D
07A03C
0A7000
0D4000
1F2111
5FFFFB
ENDCHAR
STARTCHAR ldot
ENCODING 320
SWIDTH 283 0
DWIDTH 4 0
BBX 5 11 0 0
BITMAP
007B00
00A700
00D400
01F100
04D690
07A780
0A7000
0D4000
1F1000
5D0000
8A0000
ENDCHAR
STARTCHAR Lslash
ENCODING 321
SWIDTH 474 0
DWIDTH 7 0
BBX 6 10 0 0
BITMAP
006B00
009800
00D500
01F200
04F790
09E600
8E8000
0D4000
1F2111
5FFFFB
ENDCHAR
STARTCHAR lslash
ENCODING 322
SWIDTH 250 0
DWIDTH 4 0
BBX 4 11 0 0
BITMAP
007A
00B7
00E4
02F1
05EA
2CC2
AE60
0E30
2F00
5C00
8900
ENDCHAR
STARTCHAR Nacute
ENCODING 323
SWIDTH 702 0
DWIDTH 10 0
BBX 10 13 0 0
BITMAP
0000003E30
000002B300
0000000000
006F20005C
009E700089
00D7D000B6
01F1D400E2
04D08903E0
07A02E16B0
0A600C6980
0D3006BC50
2F0001EE10
5C0000AD00
ENDCHAR
STARTCHAR nacute
ENCODING 324
SWIDTH 577 0
DWIDTH 8 0
BBX 8 11 0 0
BITMAP
000006C1
00004B10
00000000
01E3CEA0
04EA22F3
07E100E3
0A8001F1
0D4005D0
1F1008A0
4D000B70
7A000E40
ENDCHAR
STARTCHAR Ncommaaccent
ENCODING 325
SWIDTH 702 0
DWIDTH 10 0
BBX 10 13 0 -3
BITMAP
006F20005C
009E700089
00D7D000B6
01F1D400E2
04D08903E0
07A02E16B0
0A600C6980
0D3006BC50
2F0001EE10
5C0000AD00
0000000000
000A700000
003A000000
ENDCHAR
STARTCHAR ncommaaccent
ENCODING 326
SWIDTH 577 0
DWIDTH 8 0
BBX 8 11 0 -3
BITMAP
01E3CEA0
04EA22F3
07E100E3
0A8001F1
0D4005D0
1F1008A0
4D000B70
7A000E40
00000000
00980000
02B00000
ENDCHAR
STARTCHAR Ncaron
ENCODING 327
SWIDTH 702 0
DWIDTH 10 0
BBX 10 13 0 0
BITMAP
00005A2A40
00000AE300
0000000000
006F20005C
009E700089
00D7D000B6
01F1D400E2
04D08903E0
07A02E16B0
0A600C6980
0D3006BC50
2F0001EE10
5C0000AD00
ENDCHAR
STARTCHAR ncaron
ENCODING 328
SWIDTH 577 0
DWIDTH 8 0
BBX 8 11 0 0
BITMAP
000965B2
0001EC10
00000000
01E3CEA0
04EA22F3
07E100E3
0A8001F1
0D4005D0
1F1008A0
4D000B70
7A000E40
ENDCHAR
STARTCHAR napostrophe
ENCODING 329
SWIDTH 645 0
DWIDTH 9 0
BBX 9 10 0 0
BITMAP
03F2000000
0980000000
2C3D3CE900
005DA22F30
008E100F20
00B8002F00
00E3005C00
02F0008900
05C000B600
089000E300
ENDCHAR
STARTCHAR Eng
ENCODING 330
SWIDTH 702 0
DWIDTH 10 0
BBX 10 13 0 -3
BITMAP
006F20005C
009E700089
00D7D000C6
01F1D400F3
04D08903E0
07A02E16C0
0A600C6980
0D3006BC50
2F0001FF20
5C0000AE00
0000007B00
000023D500
0002EE7000
ENDCHAR
STARTCHAR eng
ENCODING 331
SWIDTH 577 0
DWIDTH 8 0
BBX 8 11 0 -3
BITMAP
01E3CEA0
04EA21F3
07E100E3
0A8002F1
0D4005C0
1F100890
4D000C60
7A000F30
00003E00
00009A00
002EC200
ENDCHAR
STARTCHAR Omacron
ENCODING 332
SWIDTH 720 0
DWIDTH 10 0
BBX 9 12 1 0
BITMAP
0008FFF300
0000000000
003AEEB300
04E7229E10
1E50000D60
7C00000A90
C700000A90
E500000C70
E500002F30
C80000AB00
5F612AE200
05CED92000
ENDCHAR
STARTCHAR omacron
ENCODING 333
SWIDTH 561 0
DWIDTH 8 0
BBX 8 10 0 0
BITMAP
001FFF90
00000000
004CEB20
04E408D0
0C6001F2
2F1000F2
4D0003F1
4E0008A0
1E504E30
04CEC300
ENDCHAR
STARTCHAR Obreve
ENCODING 334
SWIDTH 720 0
DWIDTH 10 0
BBX 9 13 1 0
BITMAP
000941A200
0003DE7000
0000000000
003AEEB300
04E7229E10
1E50000D60
7C00000A90
C700000A90
E500000C70
E500002F30
C80000AB00
5F612AE200
05CED92000
ENDCHAR
STARTCHAR obreve
ENCODING 335
SWIDTH 561 0
DWIDTH 8 0
BBX 8 11 0 0
BITMAP
000C13A0
0008EC20
00000000
004CEB20
04E408D0
0C6001F2
2F1000F2
4D0003F1
4E0008A0
1E504E30
04CEC300
ENDCHAR
STARTCHAR Ohungarumlaut
ENCODING 336
SWIDTH 720 0
DWIDTH 10 0
BBX 9 13 1 0
BITMAP
00002D3B70
0001A29500
0000000000
003AEEB300
04E7229E10
1E50000D60
7C00000A90
C700000A90
E500000C70
E500002F30
C80000AB00
5F612AE200
05CED92000
ENDCHAR
STARTCHAR ohungarumlaut
ENCODING 337
SWIDTH 561 0
DWIDTH 8 0
BBX 8 11 0 0
BITMAP
0001D499
000A3770
00000000
004CEB20
04E408D0
0C6001F2
2F1000F2
4D0003F1
4E0008A0
1E504E30
04CEC300
ENDCHAR
STARTCHAR OE
ENCODING 338
SWIDTH 854 0
DWIDTH 12 0
BBX 12 10 1 0
BITMAP
003AEFFFFFF6
04E721D61110
1E5000F20000
7C0003D00000
C70007FFFF40
E5000A700000
E5000D400000
C8002F100000
5F616D111100
05CEFFFFF800
ENDCHAR
STARTCHAR oe
ENCODING 339
SWIDTH 863 0
DWIDTH 12 0
BBX 12 8 0 0
BITMAP
004CEC32BFD4
04E407DD4099
0C6000F715D6
2F1001FEDA50
4D0002F10000
4E0008F20000
1E504DD90140
04CEC33CFE80
ENDCHAR
STARTCHAR Racute
ENCODING 340
SWIDTH 568 0
DWIDTH 8 0
BBX 8 13 0 0
BITMAP
000003E3
00002B20
00000000
006FFEA2
009802BA
00C5005D
01F2007C
04E015E5
07FFFC40
0A807B00
0D402F20
1F100B70
5D0006D0
ENDCHAR
STARTCHAR racute
ENCODING 341
SWIDTH 395 0
DWIDTH 6 0
BBX 7 11 0 0
BITMAP
00005D10
0004B100
00000000
01E3DC00
04EA2100
07E10000
0A900000
0D400000
1F100000
4D000000
7A000000
ENDCHAR
STARTCHAR Rcommaaccent
ENCODING 342
SWIDTH 568 0
DWIDTH 8 0
BBX 8 13 0 -3
BITMAP
006FFEA2
009802BA
00C5005D
01F2007C
04E015E5
07FFFC40
0A807B00
0D402F20
1F100B70
5D0006D0
00000000
002E1000
00940000
ENDCHAR
STARTCHAR rcommaaccent
ENCODING 343
SWIDTH 395 0
DWIDTH 6 0
BBX 7 11 -1 -3
BITMAP
001E3DC0
004EA210
007E1000
00A90000
00D40000
01F10000
04D00000
07A00000
00000000
0D300000
76000000
ENDCHAR
STARTCHAR Rcaron
ENCODING 344
SWIDTH 568 0
DWIDTH 8 0
BBX 8 13 0 0
BITMAP
0003B2A5
00009F40
00000000
006FFEA2
009802BA
00C5005D
01F2007C
04E015E5
07FFFC40
0A807B00
0D402F20
1F100B70
5D0006D0
ENDCHAR
STARTCHAR rcaron
ENCODING 345
SWIDTH 395 0
DWIDTH 6 0
BBX 7 11 0 0
BITMAP
00784B20
000DD200
00000000
01E3DC00
04EA2100
07E10000
0A900000
0D400000
1F100000
4D000000
7A000000
ENDCHAR
STARTCHAR Sacute
ENCODING 346
SWIDTH 501 0
DWIDTH 7 0
BBX 8 13 0 0
BITMAP
000006C1
00005A10
00000000
004CEEA1
03E61260
07C00000
06E10000
00BD5000
0006E800
00003F20
00001F20
5312AC00
8EFD9200
ENDCHAR
STARTCHAR sacute
ENCODING 347
SWIDTH 428 0
DWIDTH 6 0
BBX 7 11 0 0
BITMAP
00007C10
0005A100
00000000
04CFD600
0D602300
0F400000
07E60000
004D8000
0004F000
5108D000
AEEB3000
ENDCHAR
STARTCHAR Scircumflex
ENCODING 348
SWIDTH 501 0
DWIDTH 7 0
BBX 8 13 0 0
BITMAP
0000BE10
001A65A0
00000000
004CEEA1
03E61260
07C00000
06E10000
00BD5000
0006E800
00003F20
00001F20
5312AC00
8EFD9200
ENDCHAR
STARTCHAR scircumflex
ENCODING 349
SWIDTH 428 0
DWIDTH 6 0
BBX 6 11 0 0
BITMAP
001CD1
02B569
000000
04CFD6
0D6023
0F4000
07E600
004D80
0004F0
5108D0
AEEB30
ENDCHAR
STARTCHAR Scedilla
ENCODING 350
SWIDTH 501 0
DWIDTH 7 0
BBX 8 13 0 -3
BITMAP
004CEEA1
03E61260
07C00000
06E10000
00BD5000
0006E800
00003F20
00001F20
5312AC00
8EFD9200
00C10000
00780000
0AC40000
ENDCHAR
STARTCHAR scedilla
ENCODING 351
SWIDTH 428 0
DWIDTH 6 0
BBX 6 11 0 -3
BITMAP
04CFD6
0D6023
0F4000
07E600
004D80
0004F0
5108D0
AEEB30
058000
02D100
4BA000
ENDCHAR
STARTCHAR Scaron
ENCODING 352
SWIDTH 501 0
DWIDTH 7 0
BBX 8 13 0 0
BITMAP
000B3790
0004F900
00000000
004CEEA1
03E61260
07C00000
06E10000
00BD5000
0006E800
00003F20
00001F20
5312AC00
8EFD9200
ENDCHAR
STARTCHAR scaron
ENCODING 353
SWIDTH 428 0
DWIDTH 6 0
BBX 6 11 0 0
BITMAP
00B46A
003FA0
000000
04CFD6
0D6023
0F4000
07E600
004D80
0004F0
5108D0
AEEB30
ENDCHAR
STARTCHAR Tcedilla
ENCODING 354
SWIDTH 498 0
DWIDTH 7 0
BBX 8 13 1 -3
BITMAP
9FFFFFF2
001F2000
004E0000
007B0000
00A70000
00D40000
02F10000
05D00000
08A00000
0B700000
1C000000
08700000
AC400000
ENDCHAR
STARTCHAR tcedilla
ENCODING 355
SWIDTH 324 0
DWIDTH 5 0
BBX 5 13 0 -3
BITMAP
006600
00D300
3CFDC0
05C000
089000
0B6000
0E3000
2F1000
2F1100
0AE900
094000
04C000
7B7000
ENDCHAR
STARTCHAR Tcaron
ENCODING 356
SWIDTH 498 0
DWIDTH 7 0
BBX 8 13 1 0
BITMAP
00874B20
000DC100
00000000
9FFFFFF2
001F2000
004E0000
007B0000
00A70000
00D40000
02F10000
05D00000
08A00000
0B700000
ENDCHAR
STARTCHAR tcaron
ENCODING 357
SWIDTH 324 0
DWIDTH 5 0
BBX 7 11 0 0
BITMAP
00000C50
00665800
00D30000
3CFDC000
05C00000
08900000
0B600000
0E300000
2F100000
2F110000
0AE90000
ENDCHAR
STARTCHAR Tbar
ENCODING 358
SWIDTH 498 0
DWIDTH 7 0
BBX 8 10 1 0
BITMAP
9FFFFFF2
002F2000
005D0000
00890000
AEFEE600
00E30000
02F00000
05C00000
08900000
0B600000
ENDCHAR
STARTCHAR tbar
ENCODING 359
SWIDTH 324 0
DWIDTH 5 0
BBX 5 10 0 0
BITMAP
006600
00D300
3CFDC0
05D000
07A000
8FED20
0D4000
1F1000
2F1100
0AE900
ENDCHAR
STARTCHAR Utilde
ENCODING 360
SWIDTH 675 0
DWIDTH 9 0
BBX 9 13 1 0
BITMAP
0008E72A00
001A2AE300
0000000000
0890000A80
0B60000D40
0E30001F10
3E00005D00
6B00008A00
980000B700
C60000E300
D50005D000
9C214E5000
1AEEC50000
ENDCHAR
STARTCHAR utilde
ENCODING 361
SWIDTH 577 0
DWIDTH 8 0
BBX 8 11 0 0
BITMAP
000AD548
00483CD1
00000000
03E00098
06C000C5
099000F2
0C6003E0
0F2007B0
3F001E80
2F21AD50
09EC3D20
ENDCHAR
STARTCHAR Umacron
ENCODING 362
SWIDTH 675 0
DWIDTH 9 0
BBX 9 12 1 0
BITMAP
0009FFF200
0000000000
0890000A80
0B60000D40
0E30001F10
3E00005D00
6B00008A00
980000B700
C60000E300
D50005D000
9C214E5000
1AEEC50000
ENDCHAR
STARTCHAR umacron
ENCODING 363
SWIDTH 577 0
DWIDTH 8 0
BBX 8 10 0 0
BITMAP
000CFFD0
00000000
03E00098
06C000C5
099000F2
0C6003E0
0F2007B0
3F001E80
2F21AD50
09EC3D20
ENDCHAR
STARTCHAR Ubreve
ENCODING 364
SWIDTH 675 0
DWIDTH 9 0
BBX 9 13 1 0
BITMAP
000851A200
0003DE7000
0000000000
0890000A80
0B60000D40
0E30001F10
3E00005D00
6B00008A00
980000B700
C60000E300
D50005D000
9C214E5000
1AEEC50000
ENDCHAR
STARTCHAR ubreve
ENCODING 365
SWIDTH 577 0
DWIDTH 8 0
BBX 8 11 0 0
BITMAP
000B21B0
0005ED40
00000000
03E00098
06C000C5
099000F2
0C6003E0
0F2007B0
3F001E80
2F21AD50
09EC3D20
ENDCHAR
STARTCHAR Uring
ENCODING 366
SWIDTH 675 0
DWIDTH 9 0
BBX 9 14 1 0
BITMAP
0000AB5000
000381B000
0001BB5000
0000000000
0890000A80
0B60000D40
0E30001F10
3E00005D00
6B00008A00
980000B700
C60000E300
D50005D000
9C214E5000
1AEEC50000
ENDCHAR
STARTCHAR uring
ENCODING 367
SWIDTH 577 0
DWIDTH 8 0
BBX 8 12 0 0
BITMAP
0002BB30
00075570
0003BB20
00000000
03E00098
06C000C5
099000F2
0C6003E0
0F2007B0
3F001E80
2F21AD50
09EC3D20
ENDCHAR
STARTCHAR Uhungarumlaut
ENCODING 368
SWIDTH 675 0
DWIDTH 9 0
BBX 9 13 1 0
BITMAP
00005C2D40
0003A1A300
0000000000
0890000A80
0B60000D40
0E30001F10
3E00005D00
6B00008A00
980000B700
C60000E300
D50005D000
9C214E5000
1AEEC50000
ENDCHAR
STARTCHAR uhungarumlaut
ENCODING 369
SWIDTH 577 0
DWIDTH 8 0
BBX 9 11 0 0
BITMAP
0000A85C10
000764A100
0000000000
03E0009800
06C000C500
099000F200
0C6003E000
0F2007B000
3F001E8000
2F21AD5000
09EC3D2000
ENDCHAR
STARTCHAR Uogonek
ENCODING 370
SWIDTH 675 0
DWIDTH 9 0
BBX 9 13 1 -3
BITMAP
0890000A80
0B60000D40
0E30001F10
3E00005D00
6B00008A00
980000B700
C60000E300
D50005D000
9C214E5000
1AEEC50000
001A200000
0095000000
007D300000
ENDCHAR
STARTCHAR uogonek
ENCODING 371
SWIDTH 577 0
DWIDTH 8 0
BBX 8 11 0 -3
BITMAP
03E00098
06C000C5
099000F2
0C6003E0
0F2007B0
3F001E80
2F21AD50
09EC3D20
00008500
0003B000
0002D700
ENDCHAR
STARTCHAR Wcircumflex
ENCODING 372
SWIDTH 852 0
DWIDTH 12 0
BBX 12 13 1 0
BITMAP
000005F80000
00006A2B3000
000000000000
7B0008E0005D
6B001DF000B7
5C0079E103E1
5C00D2E20980
4D06A0D21E20
4D0D30C37A00
3E5B00B4D300
2DB400A9B000
2EC000AE4000
1F60009C0000
ENDCHAR
STARTCHAR wcircumflex
ENCODING 373
SWIDTH 716 0
DWIDTH 10 0
BBX 11 11 0 0
BITMAP
00001CD00000
0002B4780000
000000000000
3E004F400D50
2E00AC504D00
2F02D860B700
1F087872E100
1F1D17789000
0F69078E2000
0EC206CB0000
0EA005F40000
ENDCHAR
STARTCHAR Ycircumflex
ENCODING 374
SWIDTH 502 0
DWIDTH 7 0
BBX 8 13 1 0
BITMAP
001DD000
02B47800
00000000
990005E1
5C001E50
1F109900
0C44D100
089D4000
04F90000
02F10000
06C00000
09900000
0C600000
ENDCHAR
STARTCHAR ycircumflex
ENCODING 375
SWIDTH 461 0
DWIDTH 6 0
BBX 9 14 -2 -3
BITMAP
00000BE100
0001A65A00
0000000000
004D0005D0
002F000D50
000E206C00
000C41D400
000A67B000
00087D3000
0006DA0000
0004F20000
0009800000
005E100000
5EC3000000
ENDCHAR
STARTCHAR Ydieresis
ENCODING 376
SWIDTH 502 0
DWIDTH 7 0
BBX 8 12 1 0
BITMAP
00B34900
00000000
990005E1
5C001E50
1F109900
0C44D100
089D4000
04F90000
02F10000
06C00000
09900000
0C600000
ENDCHAR
STARTCHAR Zacute
ENCODING 377
SWIDTH 530 0
DWIDTH 7 0
BBX 8 13 0 0
BITMAP
000003E3
00002B20
00000000
00EFFFFE
001112D6
00000B90
00008C00
0005E200
002E4000
01D70000
0AA00000
7D111100
FFFFFF20
ENDCHAR
STARTCHAR zacute
ENCODING 378
SWIDTH 443 0
DWIDTH 6 0
BBX 8 11 -1 0
BITMAP
000004D2
00003B20
00000000
006DDEF0
00000B80
00008B00
0004E100
002E4000
00B70000
08B00000
1FEDDA00
ENDCHAR
STARTCHAR Zdotaccent
ENCODING 379
SWIDTH 530 0
DWIDTH 7 0
BBX 8 13 0 0
BITMAP
00004C00
00005A00
00000000
00EFFFFE
001112D6
00000B90
00008C00
0005E200
002E4000
01D70000
0AA00000
7D111100
FFFFFF20
ENDCHAR
STARTCHAR zdotaccent
ENCODING 380
SWIDTH 443 0
DWIDTH 6 0
BBX 7 11 -1 0
BITMAP
00005A00
00007800
00000000
006DDEF0
00000B80
00008B00
0004E100
002E4000
00B70000
08B00000
1FEDDA00
ENDCHAR
STARTCHAR Zcaron
ENCODING 381
SWIDTH 530 0
DWIDTH 7 0
BBX 8 13 0 0
BITMAP
0005A3A4
0000AE30
00000000
00EFFFFE
001112D6
00000B90
00008C00
0005E200
002E4000
01D70000
0AA00000
7D111100
FFFFFF20
ENDCHAR
STARTCHAR zcaron
ENCODING 382
SWIDTH 443 0
DWIDTH 6 0
BBX 8 11 -1 0
BITMAP
000784B2
0000DD20
00000000
006DDEF0
00000B80
00008B00
0004E100
002E4000
00B70000
08B00000
1FEDDA00
ENDCHAR
STARTCHAR longs
ENCODING 383
SWIDTH 274 0
DWIDTH 4 0
BBX 8 14 -2 -3
BITMAP
00001BEB
00009A01
0000D400
0002F100
0005D000
0008A000
000B6000
000E3000
002F0000
006C0000
00990000
00C50000
03E10000
BE600000
ENDCHAR
STARTCHAR florin
ENCODING 402
SWIDTH 550 0
DWIDTH 8 0
BBX 8 14 0 -3
BITMAP
00003DE6
0000C601
0002F000
0005C000
007EED30
000B6000
000E3000
002F0000
005C0000
00990000
00C60000
00F20000
06D00000
DD300000
ENDCHAR
STARTCHAR Ohorn
ENCODING 416
SWIDTH 713 0
DWIDTH 10 0
BBX 11 10 1 0
BITMAP
003AEEB30D70
04E7229EC800
1E50000D7000
7C00000A9000
C700000A9000
E500000C7000
E500002F3000
C80000AB0000
5F612AE20000
05CED9200000
ENDCHAR
STARTCHAR ohorn
ENCODING 417
SWIDTH 561 0
DWIDTH 8 0
BBX 10 9 0 0
BITMAP
00000003F2
004CEC3B80
04E408F500
0C6001F200
2F1000F200
4D0003F000
4E0008A000
1E504E3000
04CEC30000
ENDCHAR
STARTCHAR Uhorn
ENCODING 431
SWIDTH 722 0
DWIDTH 10 0
BBX 11 11 1 0
BITMAP
0000000005E0
0890000A8B80
0B60000DD800
0E30001F2000
3E00005D0000
6B00008A0000
980000B70000
C60000E30000
C50005D00000
9C215E600000
19EEC5000000
ENDCHAR
STARTCHAR uhorn
ENCODING 432
SWIDTH 617 0
DWIDTH 9 0
BBX 11 9 0 0
BITMAP
000000003F10
03E0009AB700
06C000CB4000
099000F20000
0C6003E00000
0F2007B00000
3F001E800000
2F21AD500000
09EC3D200000
ENDCHAR
STARTCHAR uni01F0
ENCODING 496
SWIDTH 253 0
DWIDTH 4 0
BBX 8 14 -2 -3
BITMAP
000A55A1
0002EB00
00000000
0002F100
0005C000
00089000
000B6000
000E3000
002F0000
005C0000
00890000
00C50000
03E10000
BE600000
ENDCHAR
STARTCHAR Aringacute
ENCODING 506
SWIDTH 555 0
DWIDTH 8 0
BBX 9 13 -1 0
BITMAP
0000003E50
000002C400
00001BB500
0000483900
00003EF200
0000B7E300
0004E1C500
000C80B600
005E109800
00DFFFFA00
07D1116C00
1E50003E00
8C00001F10
ENDCHAR
STARTCHAR aringacute
ENCODING 507
SWIDTH 564 0
DWIDTH 8 0
BBX 8 14 0 0
BITMAP
000005E3
00003C20
00000000
0003BB20
00085760
00019810
004CE968
03E508E5
0B8003F2
1F2004E0
4E0008B0
4D001E80
2F21AD50
08EC4C20
ENDCHAR
STARTCHAR AEacute
ENCODING 508
SWIDTH 816 0
DWIDTH 11 0
BBX 13 13 -1 0
BITMAP
0000000002E400
000000001B3000
00000000000000
000000BFFFFFE0
000006D6C11110
00001E48900000
0000AB0B500000
0004F20EFFFB00
001D802E100000
009FFFFB000000
03F41198000000
0C8000C6111000
7D0001FFFFF000
ENDCHAR
STARTCHAR aeacute
ENCODING 509
SWIDTH 814 0
DWIDTH 11 0
BBX 12 11 0 0
BITMAP
00000008B100
0000006A0000
000000000000
004DE6A7DE90
03E51AFA23F1
0B8007D139C0
1F2008FDC710
4E000C700000
5D004F800000
3F23BFE20420
09EB3B9EEB20
ENDCHAR
STARTCHAR Oslashacute
ENCODING 510
SWIDTH 720 0
DWIDTH 10 0
BBX 10 14 0 -1
BITMAP
0000004D20
000003B200
0000000002
0003AEEA9B
004E722BF2
01E5003EE6
07C001D5A9
0C700C70A9
0E509A00C7
0E47C102F3
0CBD100AB0
06F812AE20
1D8CED9200
0300000000
ENDCHAR
STARTCHAR oslashacute
ENCODING 511
SWIDTH 561 0
DWIDTH 8 0
BBX 8 11 0 0
BITMAP
00000C80
00009600
00000000
005CECB3
04E40CE0
0C507BF2
2E03D1F1
4D1D32E0
4DB60790
1EB04D20
4BCEC300
ENDCHAR
STARTCHAR Scommaaccent
ENCODING 536
SWIDTH 501 0
DWIDTH 7 0
BBX 8 13 0 -3
BITMAP
004CEEA1
03E61260
07C00000
06E10000
00BD5000
0006E800
00003F20
00001F20
5312AC00
8EFD9200
00000000
01D20000
08600000
ENDCHAR
STARTCHAR scommaaccent
ENCODING 537
SWIDTH 428 0
DWIDTH 6 0
BBX 6 11 0 -3
BITMAP
04CFD6
0D6023
0F4000
07E600
004D80
0004F0
5108D0
AEEB30
000000
098000
2B0000
ENDCHAR
STARTCHAR Tcommaaccent
ENCODING 538
SWIDTH 498 0
DWIDTH 7 0
BBX 8 13 1 -3
BITMAP
9FFFFFF2
001F2000
004E0000
007B0000
00A70000
00D40000
02F10000
05D00000
08A00000
0B700000
00000000
4D000000
B3000000
ENDCHAR
STARTCHAR tcommaaccent
ENCODING 539
SWIDTH 324 0
DWIDTH 5 0
BBX 5 13 0 -3
BITMAP
006600
00D300
3CFDC0
05C000
089000
0B6000
0E3000
2F1000
2F1100
0AE900
000000
0C4000
680000
ENDCHAR
STARTCHAR dotlessj
ENCODING 567
SWIDTH 253 0
DWIDTH 4 0
BBX 6 11 -2 -3
BITMAP
0002F1
0005C0
000890
000B60
000E30
002F00
005C00
008900
00C500
03E100
BE6000
ENDCHAR
STARTCHAR uni02BC
ENCODING 700
SWIDTH 169 0
DWIDTH 2 0
BBX 3 3 1 7
BITMAP
1E50
6C00
C200
ENDCHAR
STARTCHAR circumflex
ENCODING 710
SWIDTH 554 0
DWIDTH 8 0
BBX 5 2 2 8
BITMAP
00BE10
1A65A0
ENDCHAR
STARTCHAR caron
ENCODING 711
SWIDTH 554 0
DWIDTH 8 0
BBX 5 2 3 8
BITMAP
874B20
1DC100
ENDCHAR
STARTCHAR macron
ENCODING 713
SWIDTH 535 0
DWIDTH 8 0
BBX 5 1 2 8
BITMAP
2FFF90
ENDCHAR
STARTCHAR breve
ENCODING 728
SWIDTH 554 0
DWIDTH 8 0
BBX 5 2 3 8
BITMAP
B21B10
4EE500
ENDCHAR
STARTCHAR dotaccent
ENCODING 729
SWIDTH 243 0
DWIDTH 3 0
BBX 2 2 2 9
BITMAP
87
A5
ENDCHAR
STARTCHAR ring
ENCODING 730
SWIDTH 577 0
DWIDTH 8 0
BBX 4 3 3 8
BITMAP
0AB5
391B
0BB5
ENDCHAR
STARTCHAR ogonek
ENCODING 731
SWIDTH 182 0
DWIDTH 3 0
BBX 2 3 -1 -3
BITMAP
49
D1
BC
ENDCHAR
STARTCHAR tilde
ENCODING 732
SWIDTH 554 0
DWIDTH 8 0
BBX 6 2 2 8
BITMAP
2DB293
835E90
ENDCHAR
STARTCHAR hungarumlaut
ENCODING 733
SWIDTH 554 0
DWIDTH 8 0
BBX 6 2 2 8
BITMAP
02D3B6
1A2950
ENDCHAR
STARTCHAR uni02F3
ENCODING 755
SWIDTH 333 0
DWIDTH 5 0
BBX 4 3 -1 -4
BITMAP
2BB3
7548
2BB3
ENDCHAR
STARTCHAR uni0300
ENCODING 768
SWIDTH 0 0
DWIDTH 0 0
BBX 3 2 -5 8
BITMAP
A800
1C20
ENDCHAR
STARTCHAR uni0301
ENCODING 769
SWIDTH 0 0
DWIDTH 0 0
BBX 4 2 -4 8
BITMAP
07C1
5A10
ENDCHAR
STARTCHAR uni0303
ENCODING 771
SWIDTH 0 0
DWIDTH 0 0
BBX 6 2 -6 8
BITMAP
3DB2A2
936E80
ENDCHAR
STARTCHAR hook
ENCODING 777
SWIDTH 0 0
DWIDTH 0 0
BBX 3 3 -4 8
BITMAP
AC30
3B40
C200
ENDCHAR
STARTCHAR uni030F
ENCODING 783
SWIDTH 0 0
DWIDTH 0 0
BBX 5 2 -7 8
BITMAP
B85D00
1C2870
ENDCHAR
STARTCHAR dotbelow
ENCODING 803
SWIDTH 0 0
DWIDTH 0 0
BBX 2 2 -6 -3
BITMAP
96
A5
ENDCHAR
STARTCHAR tonos
ENCODING 900
SWIDTH 562 0
DWIDTH 8 0
BBX 3 3 4 8
BITMAP
0B80
2E10
9500
ENDCHAR
STARTCHAR dieresistonos
ENCODING 901
SWIDTH 562 0
DWIDTH 8 0
BBX 4 3 3 9
BITMAP
00A9
0390
B21C
ENDCHAR
STARTCHAR Alphatonos
ENCODING 902
SWIDTH 555 0
DWIDTH 8 0
BBX 9 10 -1 0
BITMAP
001F49E000
007A3DF100
00C2B7E300
0004E1C400
000C70B600
005E109800
00DFFFFA00
07D1116C00
1E50004E00
8C00002F10
ENDCHAR
STARTCHAR anoteleia
ENCODING 903
SWIDTH 252 0
DWIDTH 4 0
BBX 2 2 1 4
BITMAP
79
B9
ENDCHAR
STARTCHAR Epsilontonos
ENCODING 904
SWIDTH 567 0
DWIDTH 8 0
BBX 9 10 0 0
BITMAP
08C9FFFF60
0D3C611100
680F200000
003D000000
007FFFF400
00A7111000
00D4000000
01F1000000
04D1110000
07FFFF8000
ENDCHAR
STARTCHAR Etatonos
ENCODING 905
SWIDTH 753 0
DWIDTH 11 0
BBX 11 10 0 0
BITMAP
08C5C0000A70
0D3990000E40
680C50002F10
000F20005D00
003FFFFFF900
006B1111C600
00970000F300
00D40003F000
01F10006C000
04D000099000
ENDCHAR
STARTCHAR Iotatonos
ENCODING 906
SWIDTH 363 0
DWIDTH 5 0
BBX 6 10 0 0
BITMAP
05E2F1
0B65C0
3B0890
000B60
000E30
003E00
006B00
009800
00C500
01F200
ENDCHAR
STARTCHAR Omicrontonos
ENCODING 908
SWIDTH 756 0
DWIDTH 11 0
BBX 11 10 0 0
BITMAP
05E17DFD7000
0C6BC414E700
3B7C10005E00
00E500002F10
04E000002F10
06D000004F00
06C000009B00
04F10003F400
00CB315E9000
0019DEC60000
ENDCHAR
STARTCHAR Upsilontonos
ENCODING 910
SWIDTH 640 0
DWIDTH 9 0
BBX 11 10 0 0
BITMAP
08CA70006D10
0D36B002E400
6802E00B8000
0000D35D0000
000098E30000
00006F800000
00004E000000
00007B000000
0000A8000000
0000D5000000
ENDCHAR
STARTCHAR Omegatonos
ENCODING 911
SWIDTH 782 0
DWIDTH 11 0
BBX 11 10 0 0
BITMAP
03F27CEE9100
0A8BC413CB00
2C7D10002F30
00D600000D60
01F200000E50
02F100002F20
01F200009B00
00C70005E200
014D206D3100
5FFF74FFFC00
ENDCHAR
STARTCHAR iotadieresistonos
ENCODING 912
SWIDTH 305 0
DWIDTH 4 0
BBX 5 12 0 0
BITMAP
000C70
005700
0C13B0
000000
03E000
06B000
098000
0C5000
0F2000
3E0000
4E1000
0BE700
ENDCHAR
STARTCHAR Alpha
ENCODING 913
SWIDTH 555 0
DWIDTH 8 0
BBX 9 10 -1 0
BITMAP
000009E000
00003DF100
0000B7E300
0004E1C400
000C70B600
005E109800
00DFFFFA00
07D1116C00
1E50004E00
8C00002F10
ENDCHAR
STARTCHAR Beta
ENCODING 914
SWIDTH 598 0
DWIDTH 8 0
BBX 9 10 0 0
BITMAP
006FFFD500
0098016F10
00C5001F20
01F102AB00
04FFFF8000
07A004E300
0A7000B800
0D4000C700
1F1018E200
5FFFEA2000
ENDCHAR
STARTCHAR Gamma
ENCODING 915
SWIDTH 476 0
DWIDTH 7 0
BBX 8 10 0 0
BITMAP
006FFFF9
00991110
00C50000
01F20000
04E00000
07B00000
0A800000
0D400000
1F100000
5D000000
ENDCHAR
STARTCHAR uni0394
ENCODING 916
SWIDTH 558 0
DWIDTH 8 0
BBX 8 10 -1 0
BITMAP
000009E0
00002CE0
0000A6E2
0003D0C4
000B60B5
003D0097
00B60089
04D0006A
0C61115C
4FFFFFFD
ENDCHAR
STARTCHAR Epsilon
ENCODING 917
SWIDTH 511 0
DWIDTH 7 0
BBX 8 10 0 0
BITMAP
006FFFF9
00981110
00C50000
01F10000
04FFFF70
07A11100
0A700000
0D400000
1F211100
5FFFFB00
ENDCHAR
STARTCHAR Zeta
ENCODING 918
SWIDTH 530 0
DWIDTH 7 0
BBX 8 10 0 0
BITMAP
00EFFFFE
001112D6
00000B90
00008C00
0005E200
002E4000
01D70000
0AA00000
7D111100
FFFFFF20
ENDCHAR
STARTCHAR Eta
ENCODING 919
SWIDTH 678 0
DWIDTH 10 0
BBX 10 10 0 0
BITMAP
006B0000B6
00980000E3
00C50003F0
01F10006C0
04FFFFFF90
07A1111D60
0A70001F20
0D40003E00
1F10006B00
5D00009800
ENDCHAR
STARTCHAR Theta
ENCODING 920
SWIDTH 720 0
DWIDTH 10 0
BBX 9 10 1 0
BITMAP
003AEEB300
04E7229E10
1E50000D60
7C00000A90
C78FFF2A90
E500000C70
E500002F30
C80000AB00
5F612AE200
05CED92000
ENDCHAR
STARTCHAR Iota
ENCODING 921
SWIDTH 272 0
DWIDTH 4 0
BBX 4 10 0 0
BITMAP
006B
0098
00C5
01F2
04E0
07A0
0A70
0D40
1F10
5D00
ENDCHAR
STARTCHAR Kappa
ENCODING 922
SWIDTH 557 0
DWIDTH 8 0
BBX 9 10 0 0
BITMAP
006B001C80
009801C800
00C51C8000
01F3C80000
04ECC00000
07E5E20000
0A70990000
0D403E1000
1F100C6000
5D0006D000
ENDCHAR
STARTCHAR Lambda
ENCODING 923
SWIDTH 558 0
DWIDTH 8 0
BBX 9 10 -1 0
BITMAP
000009E000
00002DE100
0000A7D300
0004E1B500
000C60A700
005D008900
00D5006B00
06C0004D00
1E40002F00
8C00001F20
ENDCHAR
STARTCHAR Mu
ENCODING 924
SWIDTH 836 0
DWIDTH 12 0
BBX 12 10 0 0
BITMAP
006F600005FA
009D80000DD7
00D9A0006AD4
01F4C001D4F1
04D1E00885C0
07A0E12D1890
0A60C2970B60
0D30A7D00E30
2F009F503F00
5C007C006C00
ENDCHAR
STARTCHAR Nu
ENCODING 925
SWIDTH 702 0
DWIDTH 10 0
BBX 10 10 0 0
BITMAP
006F20005C
009E700089
00D7D000B6
01F1D400E2
04D08903E0
07A02E16B0
0A600C6980
0D3006BC50
2F0001EE10
5C0000AD00
ENDCHAR
STARTCHAR Xi
ENCODING 926
SWIDTH 517 0
DWIDTH 7 0
BBX 9 10 -1 0
BITMAP
000EFFFFA0
0001111100
0000000000
0000000000
003FFFF200
0000000000
0000000000
0000000000
0111111000
1FFFFFF000
ENDCHAR
STARTCHAR Omicron
ENCODING 927
SWIDTH 720 0
DWIDTH 10 0
BBX 9 10 1 0
BITMAP
003AEEB300
04E7229E10
1E50000D60
7C00000A90
C700000A90
E500000C70
E500002F30
C80000AB00
5F612AE200
05CED92000
ENDCHAR
STARTCHAR Pi
ENCODING 928
SWIDTH 679 0
DWIDTH 10 0
BBX 10 10 0 0
BITMAP
006FFFFFF7
00980001E4
00C50002F1
01F20005D0
04E0000990
07A0000C60
0A70000F30
0D40003F00
1F10006C00
5D00009900
ENDCHAR
STARTCHAR Rho
ENCODING 929
SWIDTH 565 0
DWIDTH 8 0
BBX 8 10 0 0
BITMAP
006FFEA2
009802BA
00C5005D
01F2007C
04E016E5
07FFEB40
0A700000
0D400000
1F100000
5D000000
ENDCHAR
STARTCHAR Sigma
ENCODING 931
SWIDTH 520 0
DWIDTH 7 0
BBX 9 10 -1 0
BITMAP
002FFFFFB0
000E411100
0007B00000
0001E30000
00008A0000
0001D50000
001C700000
00A9000000
08B1111000
2FFFFFF400
ENDCHAR
STARTCHAR Tau
ENCODING 932
SWIDTH 498 0
DWIDTH 7 0
BBX 8 10 1 0
BITMAP
9FFFFFF2
001F2000
004E0000
007B0000
00A70000
00D40000
02F10000
05D00000
08A00000
0B700000
ENDCHAR
STARTCHAR Upsilon
ENCODING 933
SWIDTH 502 0
DWIDTH 7 0
BBX 8 10 1 0
BITMAP
990005E1
5C001E50
1F109900
0C44D100
089D4000
04F90000
02F10000
06C00000
09900000
0C600000
ENDCHAR
STARTCHAR Phi
ENCODING 934
SWIDTH 744 0
DWIDTH 10 0
BBX 9 10 1 0
BITMAP
00002F1000
018DFFD800
1CA3A94D80
8B00C605D0
D500F304E0
E403F006C0
D606C00C70
7D39A3BC00
07DFFC7000
001F200000
ENDCHAR
STARTCHAR Chi
ENCODING 935
SWIDTH 519 0
DWIDTH 7 0
BBX 10 10 -1 0
BITMAP
004E0004D2
000D402D40
0007A0C600
0002EAA000
0000CD0000
0004EE0000
002D3D4000
00C6089000
09A003E100
5D1000D500
ENDCHAR
STARTCHAR Psi
ENCODING 936
SWIDTH 734 0
DWIDTH 10 0
BBX 10 10 1 0
BITMAP
0F303F106D
3F006C009A
6C009900C7
8900C601F3
9901F306D0
5E34E16E50
07DFFEB400
000A800000
000D500000
001F200000
ENDCHAR
STARTCHAR uni03A9
ENCODING 937
SWIDTH 732 0
DWIDTH 10 0
BBX 10 10 0 0
BITMAP
0004BEEB30
007E6229E2
03F30000C8
09B000008A
0C7000009A
0D600000C7
0B700004E1
07B0001D50
11D503D610
FFFB0EFFF2
ENDCHAR
STARTCHAR Iotadieresis
ENCODING 938
SWIDTH 272 0
DWIDTH 4 0
BBX 6 12 0 0
BITMAP
02B095
000000
006B00
009800
00C500
01F200
04E000
07A000
0A7000
0D4000
1F1000
5D0000
ENDCHAR
STARTCHAR Upsilondieresis
ENCODING 939
SWIDTH 502 0
DWIDTH 7 0
BBX 8 12 1 0
BITMAP
00B34900
00000000
990005E1
5C001E50
1F109900
0C44D100
089D4000
04F90000
02F10000
06C00000
09900000
0C600000
ENDCHAR
STARTCHAR alphatonos
ENCODING 940
SWIDTH 568 0
DWIDTH 8 0
BBX 8 12 0 0
BITMAP
00000AA0
00001E20
00008600
00000000
004CE94B
03E509E6
0B8003F2
1F2004D0
4E0008A0
4D001E70
2F21AE50
08EC38E3
ENDCHAR
STARTCHAR epsilontonos
ENCODING 941
SWIDTH 444 0
DWIDTH 6 0
BBX 7 12 0 0
BITMAP
00003F20
00009800
0001C000
00000000
008DEC20
07B10300
07B10000
03DF9000
3D400000
89000000
7C104200
1AEEB200
ENDCHAR
STARTCHAR etatonos
ENCODING 942
SWIDTH 577 0
DWIDTH 8 0
BBX 8 15 0 -3
BITMAP
00000A90
00002E20
00008600
00000000
01E3CEA0
04EA21F3
07E100E3
0A8002F1
0D4005C0
1F100890
4D000C60
7A000F20
00003E00
00006B00
00009800
ENDCHAR
STARTCHAR iotatonos
ENCODING 943
SWIDTH 305 0
DWIDTH 4 0
BBX 5 12 0 0
BITMAP
000B80
002E10
009500
000000
03E000
06B000
098000
0C5000
0F2000
3E0000
4E1000
0BE700
ENDCHAR
STARTCHAR upsilondieresistonos
ENCODING 944
SWIDTH 576 0
DWIDTH 8 0
BBX 8 12 0 0
BITMAP
00000C70
00006700
000C03A0
00000000
03E000A7
06B000B7
098000C5
0C5000E3
0F2002F1
1F1008A0
0D604E30
04CEC400
ENDCHAR
STARTCHAR alpha
ENCODING 945
SWIDTH 568 0
DWIDTH 8 0
BBX 8 8 0 0
BITMAP
004CE94B
03E509E6
0B8003F2
1F2004D0
4E0008A0
4D001E70
2F21AE50
08EC38E3
ENDCHAR
STARTCHAR beta
ENCODING 946
SWIDTH 577 0
DWIDTH 8 0
BBX 9 14 -1 -3
BITMAP
00006DEB20
0005D20AA0
000C6005D0
001F2007B0
004E014D30
007A4FD300
00B7007C00
00E4000E30
02F1001F10
05E401AB00
08BAED9100
0C60000000
0F30000000
3E00000000
ENDCHAR
STARTCHAR gamma
ENCODING 947
SWIDTH 458 0
DWIDTH 6 0
BBX 7 11 0 -3
BITMAP
4D0006C0
1F000D40
0E207B00
0C41E300
0A67A000
078D2000
05E90000
04F20000
09900000
1E300000
4E000000
ENDCHAR
STARTCHAR delta
ENCODING 948
SWIDTH 553 0
DWIDTH 8 0
BBX 8 11 0 0
BITMAP
0004DEC4
000E3044
001F1000
000BA100
0016FB00
03D72C80
1E4006C0
5C0004D0
7B0008A0
3E305E30
06DEC400
ENDCHAR
STARTCHAR epsilon
ENCODING 949
SWIDTH 444 0
DWIDTH 6 0
BBX 7 8 0 0
BITMAP
008DEC20
07B10300
07B10000
03DF9000
3D400000
89000000
7C104200
1AEEB200
ENDCHAR
STARTCHAR zeta
ENCODING 950
SWIDTH 453 0
DWIDTH 6 0
BBX 8 14 0 -3
BITMAP
004FFEF3
00001B70
0001C600
001C6000
00B80000
06C00000
0E400000
3E000000
4D000000
2F600000
05EC3000
0019D000
0003D000
001C5000
ENDCHAR
STARTCHAR eta
ENCODING 951
SWIDTH 577 0
DWIDTH 8 0
BBX 8 11 0 -3
BITMAP
01E3CEA0
04EA21F3
07E100E3
0A8002F1
0D4005C0
1F100890
4D000C60
7A000F20
00003E00
00006B00
00009800
ENDCHAR
STARTCHAR theta
ENCODING 952
SWIDTH 542 0
DWIDTH 8 0
BBX 8 11 0 0
BITMAP
0007DE70
008C23F1
02E200D4
08A000D4
0C5000E3
1FFFFFF1
3E0005C0
4D000980
4D001E20
2F32B800
07ED7000
ENDCHAR
STARTCHAR iota
ENCODING 953
SWIDTH 305 0
DWIDTH 4 0
BBX 4 8 0 0
BITMAP
03E0
06B0
0980
0C50
0F20
3E00
4E10
0BE7
ENDCHAR
STARTCHAR kappa
ENCODING 954
SWIDTH 487 0
DWIDTH 7 0
BBX 7 8 0 0
BITMAP
02F109B0
05C08C10
0897C100
0BBF3000
0EBB7000
2F14E000
5D00D600
8A007C00
ENDCHAR
STARTCHAR lambda
ENCODING 955
SWIDTH 482 0
DWIDTH 7 0
BBX 8 11 -1 0
BITMAP
007EA000
0001D400
0000A600
0000A800
0002EA00
000B8B00
004D3D00
00C52F00
06B00F10
1E300D40
8A0008E2
ENDCHAR
STARTCHAR uni03BC
ENCODING 956
SWIDTH 583 0
DWIDTH 8 0
BBX 9 11 -1 -3
BITMAP
002F100790
005D000B60
008A000E30
00B7002F10
00E4006C00
02F100D900
05F319D600
09BEC4C300
0C50000000
0F20000000
3E00000000
ENDCHAR
STARTCHAR nu
ENCODING 957
SWIDTH 488 0
DWIDTH 7 0
BBX 7 8 0 0
BITMAP
4D0004D0
2F000890
1F100C50
0E303E00
0C50A700
0A64D000
099D3000
07F40000
ENDCHAR
STARTCHAR xi
ENCODING 958
SWIDTH 444 0
DWIDTH 6 0
BBX 7 14 0 -3
BITMAP
006EFFA0
002A6100
00B50000
00E30000
00AA1000
003DEA00
08B30000
3D000000
6C000000
4F500000
08FC3000
002AC000
0005C000
002D4000
ENDCHAR
STARTCHAR omicron
ENCODING 959
SWIDTH 561 0
DWIDTH 8 0
BBX 8 8 0 0
BITMAP
004CEB20
04E408D0
0C6001F2
2F1000F2
4D0003F1
4E0008A0
1E504E30
04CEC300
ENDCHAR
STARTCHAR pi
ENCODING 960
SWIDTH 600 0
DWIDTH 8 0
BBX 9 8 0 0
BITMAP
3CFFFFFF90
01F103E000
04D006B000
07A0098000
0A700C5000
0D400F2000
1F102F1000
4D000CE000
ENDCHAR
STARTCHAR rho
ENCODING 961
SWIDTH 570 0
DWIDTH 8 0
BBX 9 11 -1 -3
BITMAP
0003BED400
001E605E10
006B000E40
00B7000E40
00E4001F20
02F1006C00
05F503E500
08AAED5000
0C60000000
0E20000000
3E00000000
ENDCHAR
STARTCHAR sigma1
ENCODING 962
SWIDTH 453 0
DWIDTH 6 0
BBX 7 11 0 -3
BITMAP
004CED30
04E50210
0C600000
2F100000
4D000000
4E000000
1E800000
03DD4000
0007E000
0003E000
001C5000
ENDCHAR
STARTCHAR sigma
ENCODING 963
SWIDTH 581 0
DWIDTH 8 0
BBX 9 8 0 0
BITMAP
005CEFFF40
06E5178000
0E5003D000
3F0003E000
5D0004D000
4E00089000
1E604E2000
04CEC40000
ENDCHAR
STARTCHAR tau
ENCODING 964
SWIDTH 417 0
DWIDTH 6 0
BBX 7 8 0 0
BITMAP
3CFFFF30
007B0000
00A80000
00D50000
01F20000
03E00000
04E00000
01BE7000
ENDCHAR
STARTCHAR upsilon
ENCODING 965
SWIDTH 576 0
DWIDTH 8 0
BBX 8 8 0 0
BITMAP
03E000A7
06B000B7
098000C5
0C5000E3
0F2002F1
1F1008A0
0D604E30
04CEC400
ENDCHAR
STARTCHAR phi
ENCODING 966
SWIDTH 669 0
DWIDTH 9 0
BBX 9 11 0 -3
BITMAP
007509EC20
04E25D1A80
0C60A807A0
2F10D40890
4D01F10B60
4D04D03E20
1E67A3D600
03CFFC5000
000E300000
002F000000
006C000000
ENDCHAR
STARTCHAR chi
ENCODING 967
SWIDTH 502 0
DWIDTH 7 0
BBX 10 11 -2 -3
BITMAP
002EB001E3
0001E30A70
0000B55C00
000098D200
00007F7000
00009D0000
0005DD0000
002E3F0000
00B70E2000
07B00B6000
3E2004E900
ENDCHAR
STARTCHAR psi
ENCODING 968
SWIDTH 713 0
DWIDTH 10 0
BBX 9 14 1 -3
BITMAP
00003E0000
00007B0000
0000A70000
3E00D40B70
6B01F10C60
9804D00D50
C507A00F20
E30A704E00
F30D40B800
BA2F39C100
2AEFD81000
0089000000
00B6000000
00E2000000
ENDCHAR
STARTCHAR omega
ENCODING 969
SWIDTH 729 0
DWIDTH 10 0
BBX 10 8 0 0
BITMAP
00C60000B6
05D00000A7
0C70000098
1F205C00A7
4E008900D4
4D00C603E1
2F24E81B80
08EC2CE900
ENDCHAR
STARTCHAR iotadieresis
ENCODING 970
SWIDTH 305 0
DWIDTH 4 0
BBX 5 10 0 0
BITMAP
0C1670
000000
03E000
06B000
098000
0C5000
0F2000
3E0000
4E1000
0BE700
ENDCHAR
STARTCHAR upsilondieresis
ENCODING 971
SWIDTH 576 0
DWIDTH 8 0
BBX 8 10 0 0
BITMAP
000B3490
00000000
03E000A7
06B000B7
098000C5
0C5000E3
0F2002F1
1F1008A0
0D604E30
04CEC400
ENDCHAR
STARTCHAR omicrontonos
ENCODING 972
SWIDTH 561 0
DWIDTH 8 0
BBX 8 12 0 0
BITMAP
00000B90
00002E10
00009500
00000000
004CEB20
04E408D0
0C6001F2
2F1000F2
4D0003F1
4E0008A0
1E504E30
04CEC300
ENDCHAR
STARTCHAR upsilontonos
ENCODING 973
SWIDTH 576 0
DWIDTH 8 0
BBX 8 12 0 0
BITMAP
00000C70
00004D10
0000A400
00000000
03E000A7
06B000B7
098000C5
0C5000E3
0F2002F1
1F1008A0
0D604E30
04CEC400
ENDCHAR
STARTCHAR omegatonos
ENCODING 974
SWIDTH 729 0
DWIDTH 10 0
BBX 10 12 0 0
BITMAP
0000008B00
000001E300
0000068000
0000000000
00C60000B6
05D00000A7
0C70000098
1F205C00A7
4E008900D4
4D00C603E1
2F24E81B80
08EC2CE900
ENDCHAR
STARTCHAR uni03D1
ENCODING 977
SWIDTH 569 0
DWIDTH 8 0
BBX 9 11 0 0
BITMAP
0008ED5000
005D14E100
007A00D400
003E41C500
0004ACFE30
8E4001F100
0B7004D000
1E20098000
4D001E2000
5D12C70000
0AED700000
ENDCHAR
STARTCHAR uni03D2
ENCODING 978
SWIDTH 509 0
DWIDTH 7 0
BBX 8 10 1 0
BITMAP
990005E6
5C003E30
1F10C600
0C46B000
089E3000
04F80000
02F10000
06C00000
09900000
0C600000
ENDCHAR
STARTCHAR uni03D6
ENCODING 982
SWIDTH 791 0
DWIDTH 11 0
BBX 12 8 0 0
BITMAP
1BFFFFFFFFF5
00B700007A00
04E100006C00
0A9000006B00
0D502E008A00
0E406C00D600
0C71CD17D000
04DE58EC3000
ENDCHAR
STARTCHAR uni0400
ENCODING 1024
SWIDTH 511 0
DWIDTH 7 0
BBX 8 13 0 0
BITMAP
0000C600
00002C10
00000000
006FFFF9
00981110
00C50000
01F10000
04FFFF70
07A11100
0A700000
0D400000
1F211100
5FFFFB00
ENDCHAR
STARTCHAR afii10023
ENCODING 1025
SWIDTH 511 0
DWIDTH 7 0
BBX 8 12 0 0
BITMAP
000490B2
00000000
006FFFF9
00981110
00C50000
01F10000
04FFFF70
07A11100
0A700000
0D400000
1F211100
5FFFFB00
ENDCHAR
STARTCHAR afii10051
ENCODING 1026
SWIDTH 666 0
DWIDTH 9 0
BBX 8 10 1 0
BITMAP
9FFFFF80
00A90000
00D50000
01F20000
04FFFE80
07B113E3
0A7000D4
0E4001F2
2F1118C0
5D06EC30
ENDCHAR
STARTCHAR afii10052
ENCODING 1027
SWIDTH 476 0
DWIDTH 7 0
BBX 8 13 0 0
BITMAP
000005D2
00003B10
00000000
006FFFF9
00991110
00C50000
01F20000
04E00000
07B00000
0A800000
0D400000
1F100000
5D000000
ENDCHAR
STARTCHAR afii10053
ENCODING 1028
SWIDTH 584 0
DWIDTH 8 0
BBX 8 10 1 0
BITMAP
0029DFD7
03E93133
0D600000
6C000000
BFFFFB00
D5111000
E5000000
C8000000
5F612400
06CFEB00
ENDCHAR
STARTCHAR afii10054
ENCODING 1029
SWIDTH 501 0
DWIDTH 7 0
BBX 8 10 0 0
BITMAP
004CEEA1
03E61260
07C00000
06E10000
00BD5000
0006E800
00003F20
00001F20
5312AC00
8EFD9200
ENDCHAR
STARTCHAR afii10055
ENCODING 1030
SWIDTH 272 0
DWIDTH 4 0
BBX 4 10 0 0
BITMAP
006B
0098
00C5
01F2
04E0
07A0
0A70
0D40
1F10
5D00
ENDCHAR
STARTCHAR afii10056
ENCODING 1031
SWIDTH 272 0
DWIDTH 4 0
BBX 6 12 0 0
BITMAP
02B095
000000
006B00
009800
00C500
01F200
04E000
07A000
0A7000
0D4000
1F1000
5D0000
ENDCHAR
STARTCHAR afii10057
ENCODING 1032
SWIDTH 267 0
DWIDTH 4 0
BBX 7 13 -3 -3
BITMAP
000006B0
00000980
00000C50
00000F20
00003E00
00006B00
00009800
0000D500
0001F200
0004E000
0007A000
013E5000
2FE70000
ENDCHAR
STARTCHAR afii10058
ENCODING 1033
SWIDTH 889 0
DWIDTH 12 0
BBX 13 10 -1 0
BITMAP
00000EFFFA0000
00003E11B60000
00007A00E30000
0000C602F00000
0001F105FFD800
0005C009803E60
000A800C500990
002F200F200B80
12AB003E017E20
6EB1006FFDA200
ENDCHAR
STARTCHAR afii10059
ENCODING 1034
SWIDTH 901 0
DWIDTH 13 0
BBX 12 10 0 0
BITMAP
006B0005D000
009800089000
00C5000C6000
01F1000F2000
04FFFFFFFEA1
07A1117B12C8
0A7000A8007B
0D4000D5008A
1F1001F215E4
5D0003FFEB40
ENDCHAR
STARTCHAR afii10060
ENCODING 1035
SWIDTH 666 0
DWIDTH 9 0
BBX 8 10 1 0
BITMAP
9FFFFF80
00A90000
00D50000
01F20000
04FFFE80
07B113E3
0A7000D4
0E4001F2
2F1004E0
5D0007A0
ENDCHAR
STARTCHAR afii10061
ENCODING 1036
SWIDTH 559 0
DWIDTH 8 0
BBX 9 13 0 0
BITMAP
000001C700
00000A6000
0000000000
006B001C90
009801C800
00C51C8000
01F2C80000
04EB800000
07BD600000
0A74E10000
0D40AA0000
1F101E5000
5D0006D100
ENDCHAR
STARTCHAR uni040D
ENCODING 1037
SWIDTH 696 0
DWIDTH 10 0
BBX 10 13 0 0
BITMAP
00002E2000
000005A000
0000000000
006B0001DB
0098000AE8
00C4007AC5
01F104D2F1
04D02D33D0
07A0C607A0
0A68900A70
0D8C100D40
1FE2001F10
5F50004C00
ENDCHAR
STARTCHAR afii10062
ENCODING 1038
SWIDTH 571 0
DWIDTH 8 0
BBX 10 13 0 0
BITMAP
000C404E00
0005DDC400
0000000000
06C00005E1
01F1001D50
00C5008B00
007902E200
003E0B7000
000D6D0000
0009F40000
000B900000
32AC100000
EEA1000000
ENDCHAR
STARTCHAR afii10145
ENCODING 1039
SWIDTH 679 0
DWIDTH 10 0
BBX 10 13 0 -3
BITMAP
006C0000B7
00980000E4
00C50002F1
01F20005D0
04E0000890
07B0000B60
0A80000E30
0D40003F00
1F21116C00
5FFFFFF900
0009700000
000C500000
000F200000
ENDCHAR
STARTCHAR afii10017
ENCODING 1040
SWIDTH 555 0
DWIDTH 8 0
BBX 9 10 -1 0
BITMAP
000009E000
00003DF100
0000B7E300
0004E1C400
000C70B600
005E109800
00DFFFFA00
07D1116C00
1E50004E00
8C00002F10
ENDCHAR
STARTCHAR afii10018
ENCODING 1041
SWIDTH 563 0
DWIDTH 8 0
BBX 8 10 0 0
BITMAP
006FFFF9
00991110
00C50000
00F20000
03FFEB30
07B019C0
0A7003F0
0D4005E0
1F103D80
4FFEC600
ENDCHAR
STARTCHAR afii10019
ENCODING 1042
SWIDTH 598 0
DWIDTH 8 0
BBX 9 10 0 0
BITMAP
006FFFD500
0098016F10
00C5001F20
01F102AB00
04FFFF8000
07A004E300
0A7000B800
0D4000C700
1F1018E200
5FFFEA2000
ENDCHAR
STARTCHAR afii10020
ENCODING 1043
SWIDTH 476 0
DWIDTH 7 0
BBX 8 10 0 0
BITMAP
006FFFF9
00991110
00C50000
01F20000
04E00000
07B00000
0A800000
0D400000
1F100000
5D000000
ENDCHAR
STARTCHAR afii10021
ENCODING 1044
SWIDTH 621 0
DWIDTH 9 0
BBX 11 13 -2 -3
BITMAP
0000007FFF80
000000C61D50
000003E11F10
000009805D00
00002E208A00
00009900B700
0002E200E400
000B8002F100
006D1116D100
07FFFFFFFD00
0A6000006B00
0D3000009800
1F000000C500
ENDCHAR
STARTCHAR afii10022
ENCODING 1045
SWIDTH 511 0
DWIDTH 7 0
BBX 8 10 0 0
BITMAP
006FFFF9
00981110
00C50000
01F10000
04FFFF70
07A11100
0A700000
0D400000
1F211100
5FFFFB00
ENDCHAR
STARTCHAR afii10024
ENCODING 1046
SWIDTH 775 0
DWIDTH 11 0
BBX 13 10 -1 0
BITMAP
004E100D400BA0
000B801F10AB00
0003E14D08C100
0000A98A7D1000
00003FCCD20000
0000ABEAC00000
0008C3F1E40000
007D15C07C0000
05E208901E5000
4E300C6007C000
ENDCHAR
STARTCHAR afii10025
ENCODING 1047
SWIDTH 532 0
DWIDTH 7 0
BBX 8 10 0 0
BITMAP
018DED70
029204F2
000001F2
00003A90
02FFE600
00004E40
00000A90
00000B80
72018E20
ADFEA300
ENDCHAR
STARTCHAR afii10026
ENCODING 1048
SWIDTH 696 0
DWIDTH 10 0
BBX 10 10 0 0
BITMAP
006B0001DB
0098000AE8
00C4007AC5
01F104D2F1
04D02D33D0
07A0C607A0
0A68900A70
0D8C100D40
1FE2001F10
5F50004C00
ENDCHAR
STARTCHAR afii10027
ENCODING 1049
SWIDTH 696 0
DWIDTH 10 0
BBX 10 13 0 0
BITMAP
0000E205C0
00007DDB30
0000000000
006B0001DB
0098000AE8
00C4007AC5
01F104D2F1
04D02D33D0
07A0C607A0
0A68900A70
0D8C100D40
1FE2001F10
5F50004C00
ENDCHAR
STARTCHAR afii10028
ENCODING 1050
SWIDTH 559 0
DWIDTH 8 0
BBX 9 10 0 0
BITMAP
006B001C90
009801C800
00C51C8000
01F2C80000
04EB800000
07BD600000
0A74E10000
0D40AA0000
1F101E5000
5D0006D100
ENDCHAR
STARTCHAR afii10029
ENCODING 1051
SWIDTH 644 0
DWIDTH 9 0
BBX 10 10 -1 0
BITMAP
00000EFFFE
00003E117B
00007A0098
0000C600D5
0001F101F2
0005C004E0
000A8007A0
002F200A70
12AB000E40
6EB1002F10
ENDCHAR
STARTCHAR afii10030
ENCODING 1052
SWIDTH 836 0
DWIDTH 12 0
BBX 12 10 0 0
BITMAP
006F600005FA
009D80000DD7
00D9A0006AD4
01F4C001D4F1
04D1E00885C0
07A0E12D1890
0A60C2970B60
0D30A7D00E30
2F009F503F00
5C007C006C00
ENDCHAR
STARTCHAR afii10031
ENCODING 1053
SWIDTH 678 0
DWIDTH 10 0
BBX 10 10 0 0
BITMAP
006B0000B6
00980000E3
00C50003F0
01F10006C0
04FFFFFF90
07A1111D60
0A70001F20
0D40003E00
1F10006B00
5D00009800
ENDCHAR
STARTCHAR afii10032
ENCODING 1054
SWIDTH 720 0
DWIDTH 10 0
BBX 9 10 1 0
BITMAP
003AEEB300
04E7229E10
1E50000D60
7C00000A90
C700000A90
E500000C70
E500002F30
C80000AB00
5F612AE200
05CED92000
ENDCHAR
STARTCHAR afii10033
ENCODING 1055
SWIDTH 679 0
DWIDTH 10 0
BBX 10 10 0 0
BITMAP
006FFFFFF7
00980001E4
00C50002F1
01F20005D0
04E0000990
07A0000C60
0A70000F30
0D40003F00
1F10006C00
5D00009900
ENDCHAR
STARTCHAR afii10034
ENCODING 1056
SWIDTH 565 0
DWIDTH 8 0
BBX 8 10 0 0
BITMAP
006FFEA2
009802BA
00C5005D
01F2007C
04E016E5
07FFEB40
0A700000
0D400000
1F100000
5D000000
ENDCHAR
STARTCHAR afii10035
ENCODING 1057
SWIDTH 584 0
DWIDTH 8 0
BBX 8 10 1 0
BITMAP
0029DFD7
03E93133
0D800000
6D000000
B8000000
D5000000
E5000000
C8000000
5F612400
06CFEB00
ENDCHAR
STARTCHAR afii10036
ENCODING 1058
SWIDTH 498 0
DWIDTH 7 0
BBX 8 10 1 0
BITMAP
9FFFFFF2
001F2000
004E0000
007B0000
00A70000
00D40000
02F10000
05D00000
08A00000
0B700000
ENDCHAR
STARTCHAR afii10037
ENCODING 1059
SWIDTH 571 0
DWIDTH 8 0
BBX 10 10 0 0
BITMAP
06C00005E1
01F1001D50
00C5008B00
007902E200
003E0B7000
000D6D0000
0009F40000
000B900000
32AC100000
EEA1000000
ENDCHAR
STARTCHAR afii10038
ENCODING 1060
SWIDTH 744 0
DWIDTH 10 0
BBX 9 10 1 0
BITMAP
00002F1000
018DFFD800
1CA3A94D80
8B00C605D0
D500F304E0
E403F006C0
D606C00C70
7D39A3BC00
07DFFC7000
001F200000
ENDCHAR
STARTCHAR afii10039
ENCODING 1061
SWIDTH 519 0
DWIDTH 7 0
BBX 10 10 -1 0
BITMAP
004E0004D2
000D402D40
0007A0C600
0002EAA000
0000CD0000
0004EE0000
002D3D4000
00C6089000
09A003E100
5D1000D500
ENDCHAR
STARTCHAR afii10040
ENCODING 1062
SWIDTH 665 0
DWIDTH 9 0
BBX 10 13 0 -3
BITMAP
006B0000E4
00980002F1
00D50005C0
01F2000890
04E0000C60
07A0000E30
0A70003E00
0D40006C00
2F21119910
5FFFFFFF70
0000000D40
0000001F10
0000003E00
ENDCHAR
STARTCHAR afii10041
ENCODING 1063
SWIDTH 639 0
DWIDTH 9 0
BBX 8 10 1 0
BITMAP
08A0004E
0B60008B
0E3000B7
3E0000E4
4F2027F1
0AFFCCD0
000009A0
00000C70
00000F30
00003F00
ENDCHAR
STARTCHAR afii10042
ENCODING 1064
SWIDTH 955 0
DWIDTH 13 0
BBX 14 10 0 0
BITMAP
006B00098000C5
0098000C5001F2
00D5001F2004E0
01F2004E0007B0
04E0007B000A70
07A000A7000D40
0A7000D4001F10
0D4001F1005D00
2F2115D1118A00
5FFFFFFFFFF700
ENDCHAR
STARTCHAR afii10043
ENCODING 1065
SWIDTH 957 0
DWIDTH 13 0
BBX 14 13 0 -3
BITMAP
006B00098000C5
0098000C5001F2
00D5001F2004E0
01F2004E0007A0
04E0007B000A70
07A000A7000D40
0A7000D4001F10
0D4001F1005D00
2F2115D1118A10
5FFFFFFFFFFF90
00000000000B60
00000000000E30
00000000002F00
ENDCHAR
STARTCHAR afii10044
ENCODING 1066
SWIDTH 625 0
DWIDTH 9 0
BBX 7 10 1 0
BITMAP
9FFB0000
00A80000
00D50000
01F10000
04FFEA20
07A02BA0
0A7005D0
0D4007C0
2F104E60
5FFEC500
ENDCHAR
STARTCHAR afii10045
ENCODING 1067
SWIDTH 786 0
DWIDTH 11 0
BBX 11 10 0 0
BITMAP
006B000003E0
0098000006B0
00C500000980
01F100000D50
04FFEA201F20
07A02BB04E00
0A7005E07B00
0D4006C0A700
1F104D60D400
5FFEC501F100
ENDCHAR
STARTCHAR afii10046
ENCODING 1068
SWIDTH 554 0
DWIDTH 8 0
BBX 7 10 0 0
BITMAP
006B0000
00980000
00C50000
01F10000
04FFEA20
07A02BB0
0A7005E0
0D4006C0
1F104D60
5FFEC500
ENDCHAR
STARTCHAR afii10047
ENCODING 1069
SWIDTH 584 0
DWIDTH 8 0
BBX 8 10 0 0
BITMAP
03BEEC40
015227F3
000000A9
0000008B
00CFFFFA
001111C9
000001F4
000009D0
6313AE30
8DFD9200
ENDCHAR
STARTCHAR afii10048
ENCODING 1070
SWIDTH 979 0
DWIDTH 14 0
BBX 14 10 0 0
BITMAP
006B0005CFE910
0098007E613CA0
00C504F30003F1
01F10AA00000F3
04FFFF500000F3
07A11F300002F2
0A700F300007D0
0D400D60001E60
1F1006E414CB00
5D00007DFD7000
ENDCHAR
STARTCHAR afii10049
ENCODING 1071
SWIDTH 568 0
DWIDTH 8 0
BBX 9 10 -1 0
BITMAP
00019DFFE0
000CA206B0
003F100A80
004E000D50
001E711F10
0005FFFD00
000BA07A00
008C10A700
05E200E400
2E4002F100
ENDCHAR
STARTCHAR afii10065
ENCODING 1072
SWIDTH 564 0
DWIDTH 8 0
BBX 8 8 0 0
BITMAP
004CE968
03E508E5
0B8003F2
1F2004E0
4E0008B0
4D001E80
2F21AD50
08EC4C20
ENDCHAR
STARTCHAR afii10066
ENCODING 1073
SWIDTH 541 0
DWIDTH 8 0
BBX 8 11 0 0
BITMAP
000058BE
002DC741
00C80000
06D00000
0C8AED30
1FC409A0
3F2005D0
4D0006C0
3E000A80
1E505E20
04DEC300
ENDCHAR
STARTCHAR afii10067
ENCODING 1074
SWIDTH 538 0
DWIDTH 8 0
BBX 8 8 0 0
BITMAP
005CED50
05E515F0
0D7001F1
3F202AA0
4FEEFB10
4D001A80
1E501B70
03CEE900
ENDCHAR
STARTCHAR afii10068
ENCODING 1075
SWIDTH 457 0
DWIDTH 6 0
BBX 6 8 0 0
BITMAP
05CEE6
02305E
00008C
006CB2
1CA300
7A0000
8B1150
1BEEA0
ENDCHAR
STARTCHAR afii10069
ENCODING 1076
SWIDTH 562 0
DWIDTH 8 0
BBX 8 11 0 0
BITMAP
003DEC20
001109D0
000001F3
000000D5
006DDAD5
06D208F4
0E4002F2
3E0005D0
4D000C60
2F419C00
06EE9100
ENDCHAR
STARTCHAR afii10070
ENCODING 1077
SWIDTH 493 0
DWIDTH 7 0
BBX 7 8 0 0
BITMAP
004CEC20
03D30C70
0B526E30
2FED9300
4D000000
4E000000
1E702400
04DED500
ENDCHAR
STARTCHAR afii10072
ENCODING 1078
SWIDTH 833 0
DWIDTH 12 0
BBX 13 8 -1 0
BITMAP
00EE700E119EE0
0004F23D0AC200
0000D5693F3000
0000DDEEED0000
0001E1C38A0000
0006A0E17A0000
004E32D03E2000
2EC405A007EB00
ENDCHAR
STARTCHAR afii10073
ENCODING 1079
SWIDTH 436 0
DWIDTH 6 0
BBX 6 8 0 0
BITMAP
07DFD3
03209A
0002B7
03FF80
0003E1
0000E3
5106D0
BEEB30
ENDCHAR
STARTCHAR afii10074
ENCODING 1080
SWIDTH 577 0
DWIDTH 8 0
BBX 8 8 0 0
BITMAP
03E00098
06C000C5
099000F2
0C6003E0
0F2007B0
3F001E80
2F21AD50
09EC3D20
ENDCHAR
STARTCHAR afii10075
ENCODING 1081
SWIDTH 577 0
DWIDTH 8 0
BBX 8 11 0 0
BITMAP
003D0098
000ADDA1
00000000
03E00098
06C000C5
099000F2
0C6003E0
0F2007B0
3F001E80
2F21AD50
09EC3D20
ENDCHAR
STARTCHAR afii10076
ENCODING 1082
SWIDTH 477 0
DWIDTH 7 0
BBX 8 8 0 0
BITMAP
02F109C1
05C07D10
0896D200
0BBD2000
0E9D1000
2F1B9000
4D02F300
7A008C00
ENDCHAR
STARTCHAR afii10077
ENCODING 1083
SWIDTH 537 0
DWIDTH 8 0
BBX 8 8 -1 0
BITMAP
00005DEC
0003E35C
00098089
000E20B6
005C00E3
00A602F0
05E106C0
9D400990
ENDCHAR
STARTCHAR afii10078
ENCODING 1084
SWIDTH 689 0
DWIDTH 10 0
BBX 10 8 0 0
BITMAP
01F50006F2
04F8001DE0
07BA007AB0
0A6C01C880
0D2D095A50
1E0C4C0D20
4B0AC41E00
7807B04B00
ENDCHAR
STARTCHAR afii10079
ENCODING 1085
SWIDTH 599 0
DWIDTH 8 0
BBX 8 8 0 0
BITMAP
01F1005D
04C0008A
079000B7
0AFFFFF4
0D3003F1
1F0005D0
4C0008A0
7A000B70
ENDCHAR
STARTCHAR afii10080
ENCODING 1086
SWIDTH 561 0
DWIDTH 8 0
BBX 8 8 0 0
BITMAP
004CEB20
04E408D0
0C6001F2
2F1000F2
4D0003F1
4E0008A0
1E504E30
04CEC300
ENDCHAR
STARTCHAR afii10081
ENCODING 1087
SWIDTH 577 0
DWIDTH 8 0
BBX 8 8 0 0
BITMAP
01E3CEA0
04EA22F3
07E100E3
0A8001F1
0D4005D0
1F1008A0
4D000B70
7A000E40
ENDCHAR
STARTCHAR afii10082
ENCODING 1088
SWIDTH 577 0
DWIDTH 8 0
BBX 9 11 -1 -3
BITMAP
002E3CE800
005EB22E30
008E100C50
00B8000D50
00E4001F20
02F3007D00
05E804E400
0998ED5000
0C60000000
0F30000000
3E00000000
ENDCHAR
STARTCHAR afii10083
ENCODING 1089
SWIDTH 450 0
DWIDTH 6 0
BBX 7 8 0 0
BITMAP
004CED30
03E50210
0C700000
2F100000
4D000000
4E000000
1E602200
04CED300
ENDCHAR
STARTCHAR afii10084
ENCODING 1090
SWIDTH 872 0
DWIDTH 12 0
BBX 12 8 0 0
BITMAP
01E3CE61AEB1
04EA14EA41D5
07E102F500C5
0A8005D000E3
0D40089002F0
1F100B6006C0
4D000E300990
7A002F000C60
ENDCHAR
STARTCHAR afii10085
ENCODING 1091
SWIDTH 461 0
DWIDTH 6 0
BBX 9 11 -2 -3
BITMAP
004D0005D0
002F000D50
000E206C00
000C41D400
000A67B000
00087D3000
0006DA0000
0004F20000
0009800000
005E100000
5EC3000000
ENDCHAR
STARTCHAR afii10086
ENCODING 1092
SWIDTH 663 0
DWIDTH 9 0
BBX 9 14 0 -3
BITMAP
0000088000
00000B5000
00000E1000
003AEFD500
04E56A4E30
0D60970A80
3F00C40890
4D00F10B70
3E03D02E20
0D86A3C700
02BFEC5000
000D400000
001F000000
004C000000
ENDCHAR
STARTCHAR afii10087
ENCODING 1093
SWIDTH 478 0
DWIDTH 7 0
BBX 8 8 -1 0
BITMAP
00A700AA
004D06C1
000D7E20
0006F400
000BF300
008A8900
05D12E10
2E300B70
ENDCHAR
STARTCHAR afii10088
ENCODING 1094
SWIDTH 595 0
DWIDTH 8 0
BBX 8 11 0 -3
BITMAP
03E00098
06C000C5
099000F2
0C6003E0
0F2007B0
3F001E80
2F21AD70
09EC46F6
000000F3
000003F0
000006C0
ENDCHAR
STARTCHAR afii10089
ENCODING 1095
SWIDTH 555 0
DWIDTH 8 0
BBX 7 8 1 0
BITMAP
7A000E40
A7003F10
D4009D00
D717FA00
5DE8B700
0000E400
0002F100
0005D000
ENDCHAR
STARTCHAR afii10090
ENCODING 1096
SWIDTH 872 0
DWIDTH 12 0
BBX 12 8 0 0
BITMAP
03E000C5007A
06B000F200A7
098003E000D4
0C5006B001F1
0F200A8005D0
3F002F500CA0
3F22BC718D70
0AEB24ED5B40
ENDCHAR
STARTCHAR afii10091
ENCODING 1097
SWIDTH 890 0
DWIDTH 12 0
BBX 12 11 0 -3
BITMAP
03E000C5007A
06B000F200A7
098003E000D4
0C5006B001F1
0F200A8005D0
3F002F500CA0
3F22BC718D90
0AEC24ED55F7
0000000000D5
0000000001F2
0000000004E0
ENDCHAR
STARTCHAR afii10092
ENCODING 1098
SWIDTH 591 0
DWIDTH 8 0
BBX 8 8 0 0
BITMAP
5FFF3000
002F0000
005C0000
009DDE90
00B602E4
00D400B5
00B804E2
003CEC40
ENDCHAR
STARTCHAR afii10093
ENCODING 1099
SWIDTH 721 0
DWIDTH 10 0
BBX 10 8 0 0
BITMAP
03E0000098
06C00000C5
09800000E2
0CCEE603E0
0E304F16B0
1F100F2980
0E507D0C50
05DEB20E20
ENDCHAR
STARTCHAR afii10094
ENCODING 1100
SWIDTH 519 0
DWIDTH 7 0
BBX 7 8 0 0
BITMAP
03E00000
06B00000
09800000
0CCEE900
0E302E40
1F100C50
0E504E10
05DFC400
ENDCHAR
STARTCHAR afii10095
ENCODING 1101
SWIDTH 456 0
DWIDTH 6 0
BBX 6 8 0 0
BITMAP
1BEE80
0302D5
000079
0CFFFA
0000B8
0001E4
302BC0
AEE910
ENDCHAR
STARTCHAR afii10096
ENCODING 1102
SWIDTH 780 0
DWIDTH 11 0
BBX 11 8 0 0
BITMAP
01F103BEC300
04C02E606D00
07909A000F30
0AFFF5000F30
0D30F3002F10
1F00D4007B00
4C009A03E400
7A001AED5000
ENDCHAR
STARTCHAR afii10097
ENCODING 1103
SWIDTH 526 0
DWIDTH 7 0
BBX 8 8 -1 0
BITMAP
0019EFFD
008B108A
00C500A7
00A910D4
001DFFF1
008B24D0
03F207A0
4E700A70
ENDCHAR
STARTCHAR uni0450
ENCODING 1104
SWIDTH 493 0
DWIDTH 7 0
BBX 7 11 0 0
BITMAP
001E3000
0003B000
00000000
004CEC20
03D30C70
0B526E30
2FED9300
4D000000
4E000000
1E702400
04DED500
ENDCHAR
STARTCHAR afii10071
ENCODING 1105
SWIDTH 493 0
DWIDTH 7 0
BBX 7 10 0 0
BITMAP
001C0860
00000000
004CEC20
03D30C70
0B526E30
2FED9300
4D000000
4E000000
1E702400
04DED500
ENDCHAR
STARTCHAR afii10099
ENCODING 1106
SWIDTH 577 0
DWIDTH 8 0
BBX 8 14 0 -3
BITMAP
007A0000
0AFEDB00
00E30000
02F4CE90
05DA22F2
08E100F2
0B8003E0
0E4006C0
1F100980
4D000C50
7A000F20
00003E00
00009A00
002EC200
ENDCHAR
STARTCHAR afii10100
ENCODING 1107
SWIDTH 457 0
DWIDTH 6 0
BBX 7 11 0 0
BITMAP
00002E40
0001B300
00000000
05CEE600
02305E00
00008C00
006CB200
1CA30000
7A000000
8B115000
1BEEA000
ENDCHAR
STARTCHAR afii10101
ENCODING 1108
SWIDTH 450 0
DWIDTH 6 0
BBX 7 8 0 0
BITMAP
004CED30
04E40210
0C500000
2FFFF300
4D000000
4E000000
1E602200
04CED300
ENDCHAR
STARTCHAR afii10102
ENCODING 1109
SWIDTH 428 0
DWIDTH 6 0
BBX 6 8 0 0
BITMAP
04CFD6
0D6023
0F4000
07E600
004D80
0004F0
5108D0
AEEB30
ENDCHAR
STARTCHAR afii10103
ENCODING 1110
SWIDTH 253 0
DWIDTH 4 0
BBX 4 11 0 0
BITMAP
0079
0043
0000
01F1
04D0
07A0
0A70
0D40
1F10
4D00
7A00
ENDCHAR
STARTCHAR afii10104
ENCODING 1111
SWIDTH 253 0
DWIDTH 4 0
BBX 5 10 0 0
BITMAP
0B3490
000000
01F100
04D000
07A000
0A7000
0D4000
1F1000
4D0000
7A0000
ENDCHAR
STARTCHAR afii10105
ENCODING 1112
SWIDTH 253 0
DWIDTH 4 0
BBX 6 14 -2 -3
BITMAP
000079
000043
000000
0002F1
0005C0
000890
000B60
000E30
002F00
005C00
008900
00C500
03E100
BE6000
ENDCHAR
STARTCHAR afii10106
ENCODING 1113
SWIDTH 762 0
DWIDTH 11 0
BBX 11 8 -1 0
BITMAP
00006EE70000
0003E2C60000
000A70E30000
000E23FBEC20
005C05B109A0
00A607A006B0
05E106D11B70
9D4000AEE900
ENDCHAR
STARTCHAR afii10107
ENCODING 1114
SWIDTH 812 0
DWIDTH 11 0
BBX 11 8 0 0
BITMAP
02F100D40000
05C001F10000
089005D00000
0BFFFFEEEA00
0E300A701D50
2F000C500A60
5C0009A03E30
8A0002BED500
ENDCHAR
STARTCHAR afii10108
ENCODING 1115
SWIDTH 577 0
DWIDTH 8 0
BBX 8 11 0 0
BITMAP
007A0000
0AFEDB00
00E30000
02F3CE90
05DA21F2
08E100E3
0B8002F1
0E4005D0
1F1008A0
4D000B60
7A000E30
ENDCHAR
STARTCHAR afii10109
ENCODING 1116
SWIDTH 477 0
DWIDTH 7 0
BBX 8 11 0 0
BITMAP
00000B80
00009700
00000000
02F109C1
05C07D10
0896D200
0BBD2000
0E9D1000
2F1B9000
4D02F300
7A008C00
ENDCHAR
STARTCHAR uni045D
ENCODING 1117
SWIDTH 577 0
DWIDTH 8 0
BBX 8 11 0 0
BITMAP
00099000
0001B300
00000000
03E00098
06C000C5
099000F2
0C6003E0
0F2007B0
3F001E80
2F21AD50
09EC3D20
ENDCHAR
STARTCHAR afii10110
ENCODING 1118
SWIDTH 461 0
DWIDTH 6 0
BBX 9 14 -2 -3
BITMAP
0000F107B0
00008DDB20
0000000000
004D0005D0
002F000D50
000E206C00
000C41D400
000A67B000
00087D3000
0006DA0000
0004F20000
0009800000
005E100000
5EC3000000
ENDCHAR
STARTCHAR afii10193
ENCODING 1119
SWIDTH 577 0
DWIDTH 8 0
BBX 8 11 0 -3
BITMAP
03E00098
06C000C5
099000F2
0C6003E0
0F2007B0
3F001E80
2F21AD50
09EC3D20
004B0000
00890000
00C60000
ENDCHAR
STARTCHAR uni0460
ENCODING 1120
SWIDTH 953 0
DWIDTH 13 0
BBX 12 10 1 0
BITMAP
005DEB14DEB1
05E5250242C9
1E500000006D
6D000000006D
A9000000007B
D6000D5000B8
E4001F2001F3
D6005F0009B0
9C22CE528E20
1AED64DEB300
ENDCHAR
STARTCHAR uni0461
ENCODING 1121
SWIDTH 717 0
DWIDTH 10 0
BBX 11 8 0 0
BITMAP
3E0098000F20
2F0089003E00
0F206B007A00
0D306C00D400
0C51EE05D000
0A698F1D5000
08AD0EAA0000
07F40CC10000
ENDCHAR
STARTCHAR uni0462
ENCODING 1122
SWIDTH 619 0
DWIDTH 9 0
BBX 7 11 1 0
BITMAP
005D0000
008A0000
DFFFFE00
11E41100
02F00000
05FFEA10
08912C90
0C6006C0
0E3008B0
3F016F40
6FFDA300
ENDCHAR
STARTCHAR uni0463
ENCODING 1123
SWIDTH 551 0
DWIDTH 8 0
BBX 7 10 0 0
BITMAP
006C0000
00890000
4FFFF600
00E30000
02E00000
05FDEC30
089108B0
097005C0
08B11B70
01BED800
ENDCHAR
STARTCHAR uni0464
ENCODING 1124
SWIDTH 860 0
DWIDTH 12 0
BBX 13 10 0 0
BITMAP
006B0003AEFD50
0098005E831420
00C502E4000000
01F109A0000000
04FFFFFFFF9000
07A12F31110000
0A701F30000000
0D400D60000000
1F1007E5124000
5D00007DFE9000
ENDCHAR
STARTCHAR uni0465
ENCODING 1125
SWIDTH 687 0
DWIDTH 10 0
BBX 10 8 0 0
BITMAP
01F102AEE7
04C02E7112
07909A0000
0AFFFFFF70
0D30F30000
1F00E40000
4C00AB1130
7A001AEE70
ENDCHAR
STARTCHAR uni0466
ENCODING 1126
SWIDTH 601 0
DWIDTH 8 0
BBX 9 10 -1 0
BITMAP
000003F200
00000CD500
00006A8700
0001D26A00
0009FFFC00
003D2E2F00
00B55B0E20
05C0880C50
1D40B50980
8A00E207A0
ENDCHAR
STARTCHAR uni0467
ENCODING 1127
SWIDTH 528 0
DWIDTH 7 0
BBX 8 8 -1 0
BITMAP
00008F40
0002D970
00095690
003EFEC0
00B4E3E0
04B2E0F1
0C45B0D4
5C0880B6
ENDCHAR
STARTCHAR uni0468
ENCODING 1128
SWIDTH 840 0
DWIDTH 12 0
BBX 11 10 0 0
BITMAP
006B0000D700
00980008DA00
00C5002E5C00
01F100B71F00
04FFFFFFFF30
07A11E4C5B50
0A708B0E1980
0D42E22E06A0
1F19906B04D0
5D3E109802F0
ENDCHAR
STARTCHAR uni0469
ENCODING 1129
SWIDTH 721 0
DWIDTH 10 0
BBX 10 8 0 0
BITMAP
01F100DE00
04D007AD20
07902E2B40
0AFFFFFF70
0D34E5C790
1F1B7795C0
4D3E1A63E0
7AB70C41F1
ENDCHAR
STARTCHAR uni046A
ENCODING 1130
SWIDTH 660 0
DWIDTH 9 0
BBX 11 10 -1 0
BITMAP
000AFFFFFF70
0007C0009B10
0000D509B000
00005D9A0000
0007DEEE6000
007C1C54F000
01E31F20F200
07B03E00E300
0D506B00E400
5D009800D500
ENDCHAR
STARTCHAR uni046B
ENCODING 1131
SWIDTH 603 0
DWIDTH 8 0
BBX 10 8 -1 0
BITMAP
004FFFFFE1
000C404D30
0003D5C200
003CDED600
02E3983E00
0990B50E30
1E20E20D50
8A01E00B70
ENDCHAR
STARTCHAR uni046C
ENCODING 1132
SWIDTH 915 0
DWIDTH 13 0
BBX 13 10 0 0
BITMAP
006B03FFFFFFE0
009801E4003D50
00C5006C02D400
01F1000C7D4000
04FFFFFFFEB100
07A11D65D0C700
0A707B08A08A00
0D40E40B707B00
1F16C00E406B00
5D0D502F105C00
ENDCHAR
STARTCHAR uni046D
ENCODING 1133
SWIDTH 800 0
DWIDTH 11 0
BBX 11 8 0 0
BITMAP
01F17FFFFFD0
04D01D205D20
079004C6D200
0AFFFEEDA200
0D34E1B55B00
1F1B70E31F00
4D3E11F00F20
7AA804C00D40
ENDCHAR
STARTCHAR uni046E
ENCODING 1134
SWIDTH 532 0
DWIDTH 7 0
BBX 9 16 -1 -4
BITMAP
0000B45D30
00003DD100
0018DFE600
0028205F10
0000000F30
0000002F10
000003C600
002FFF6000
000003D600
000000A900
000137E400
07CFDA4000
5E30000000
7D21110000
2CFFFF4000
0000011000
ENDCHAR
STARTCHAR uni046F
ENCODING 1135
SWIDTH 446 0
DWIDTH 6 0
BBX 8 13 -1 -3
BITMAP
000B35D2
0004DD10
006DFE50
002206C0
00001990
001FF900
00002D30
00000C50
00017E10
06BD9200
6C300000
99000000
3CEFE900
ENDCHAR
STARTCHAR uni0470
ENCODING 1136
SWIDTH 734 0
DWIDTH 10 0
BBX 10 10 1 0
BITMAP
0F303F106D
3F006C009A
6C009900C7
8900C601F3
9901F306D0
5E34E16E50
07DFFEB400
000A800000
000D500000
001F200000
ENDCHAR
STARTCHAR uni0471
ENCODING 1137
SWIDTH 713 0
DWIDTH 10 0
BBX 9 14 1 -3
BITMAP
00003E0000
00007B0000
0000A70000
3E00D40B70
6B01F10C60
9804D00D50
C507A00F20
E30A704E00
F30D40B800
BA2F39C100
2AEFD81000
0089000000
00B6000000
00E2000000
ENDCHAR
STARTCHAR uni0472
ENCODING 1138
SWIDTH 720 0
DWIDTH 10 0
BBX 9 10 1 0
BITMAP
003AEEB300
04E6228E10
1E30000C60
7A00000990
CFFFFFFF90
E400000E70
E500003F30
C90000CB00
5F612AE200
05CED92000
ENDCHAR
STARTCHAR uni0473
ENCODING 1139
SWIDTH 561 0
DWIDTH 8 0
BBX 8 8 0 0
BITMAP
004CEB30
04D306D0
0C4000F2
2FFFFFF2
4D0004E0
4E000AA0
1E606E20
04CEC300
ENDCHAR
STARTCHAR uni0474
ENCODING 1140
SWIDTH 559 0
DWIDTH 8 0
BBX 9 10 1 0
BITMAP
A800009E60
890006D100
7B000D5000
5C006C0000
3E00D50000
2F05D00000
0F2C500000
0D7D000000
0CD6000000
0AD0000000
ENDCHAR
STARTCHAR uni0475
ENCODING 1141
SWIDTH 439 0
DWIDTH 6 0
BBX 8 8 0 0
BITMAP
4D0007D3
3E002E10
1F109800
0E21E200
0D47A000
0B5D3000
0AAB0000
08F50000
ENDCHAR
STARTCHAR uni0476
ENCODING 1142
SWIDTH 559 0
DWIDTH 8 0
BBX 9 13 1 0
BITMAP
0A94E10000
01C2780000
0000000000
A800009E60
890006D100
7B000D5000
5C006C0000
3E00D50000
2F05D00000
0F2C500000
0D7D000000
0CD6000000
0AD0000000
ENDCHAR
STARTCHAR uni0477
ENCODING 1143
SWIDTH 439 0
DWIDTH 6 0
BBX 8 11 0 0
BITMAP
0C67C000
02C1A500
00000000
4D0007D3
3E002E10
1F109800
0E21E200
0D47A000
0B5D3000
0AAB0000
08F50000
ENDCHAR
STARTCHAR uni0478
ENCODING 1144
SWIDTH 1184 0
DWIDTH 17 0
BBX 17 13 1 -3
BITMAP
003AEEB30000000000
04E7229E1000000000
1E50000D62F0004E10
7C00000A90F200C600
C700000A90D405D000
E500000C70B60C5000
E500002F30885C0000
C80000AB0069C40000
5F612AE2004DB00000
05CED920002F300000
00000000008A000000
0000000004E2000000
00000003ED40000000
ENDCHAR
STARTCHAR uni0479
ENCODING 1145
SWIDTH 1003 0
DWIDTH 14 0
BBX 15 11 0 -3
BITMAP
004CEB20A7000B70
04E408D089004D00
0C6001F26B00C600
2F1000F23D05C000
4D0003F11F0D5000
4E0008A00E6B0000
1E504E300CD30000
04CEC3000AA00000
000000001E200000
00000001B9000000
000000AE90000000
ENDCHAR
STARTCHAR uni047A
ENCODING 1146
SWIDTH 738 0
DWIDTH 10 0
BBX 9 12 1 -1
BITMAP
00004E2000
004CFFE600
05E5455F40
1E500009B0
8B000006D0
C7000006D0
E5000008B0
E500000D70
C700005E20
5E4635E600
07EFFD5000
003E400000
ENDCHAR
STARTCHAR uni047B
ENCODING 1147
SWIDTH 578 0
DWIDTH 8 0
BBX 8 10 0 -1
BITMAP
0002D400
006EFE60
05D223F2
0D5000D5
2F1000D5
4E0000E3
4D0004E0
1E422D60
05DFE700
002E3000
ENDCHAR
STARTCHAR uni047C
ENCODING 1148
SWIDTH 953 0
DWIDTH 13 0
BBX 12 14 1 0
BITMAP
000005DDA610
0000065D4610
000000470000
000000000000
005DEB14DEB1
05E5250242C9
1E500000006D
6D000000006D
A9000000007B
D600000000B8
E400000001F3
D600000009B0
9C2279228E20
1AEE99EEB300
ENDCHAR
STARTCHAR uni047D
ENCODING 1149
SWIDTH 758 0
DWIDTH 11 0
BBX 10 12 0 0
BITMAP
00006BCCC3
000001C200
0000038000
0000000000
007EE35ED4
06D320117C
0D5000004E
2F1000004D
4D0000007B
4D000000C7
1F516418E1
05DEBDEB30
ENDCHAR
STARTCHAR uni047E
ENCODING 1150
SWIDTH 953 0
DWIDTH 13 0
BBX 12 12 1 0
BITMAP
00008ABAA900
000000000000
005DEB14DEB1
05E5250242C9
1E500000006D
6D000000006D
A9000000007B
D6000D5000B8
E4001F2001F3
D6005F0009B0
9C22CF528E20
1AEE75DEB300
ENDCHAR
STARTCHAR uni047F
ENCODING 1151
SWIDTH 717 0
DWIDTH 10 0
BBX 11 10 0 0
BITMAP
001C9C9C3000
000000000000
3E0098000F20
2F0089003E00
0F206B007A00
0D306C00D400
0C51EE05D000
0A698F1D5000
08AD0EAA0000
07F40CC10000
ENDCHAR
STARTCHAR uni0480
ENCODING 1152
SWIDTH 584 0
DWIDTH 8 0
BBX 8 13 1 -3
BITMAP
0029DFD7
03E93133
0D800000
6D000000
B8000000
D5000000
E5000000
C8000000
5E612000
06CF9000
000C5000
001F2000
004D0000
ENDCHAR
STARTCHAR uni0481
ENCODING 1153
SWIDTH 450 0
DWIDTH 6 0
BBX 7 11 0 -3
BITMAP
004CED30
03E50210
0C700000
2F100000
4E000000
4D000000
1E612000
04DFA000
000A7000
000E3000
002F0000
ENDCHAR
STARTCHAR uni0482
ENCODING 1154
SWIDTH 608 0
DWIDTH 9 0
BBX 8 9 0 0
BITMAP
000001C1
002B38A0
0006EF30
0000ACE6
0714D136
19ED6000
007FC300
01D35B00
04900000
ENDCHAR
STARTCHAR uni0483
ENCODING 1155
SWIDTH 560 0
DWIDTH 8 0
BBX 6 2 2 8
BITMAP
000096
7CBBB3
ENDCHAR
STARTCHAR uni0484
ENCODING 1156
SWIDTH 580 0
DWIDTH 8 0
BBX 6 2 2 9
BITMAP
005BD5
4C713A
ENDCHAR
STARTCHAR uni0485
ENCODING 1157
SWIDTH 580 0
DWIDTH 8 0
BBX 2 2 4 8
BITMAP
78
38
ENDCHAR
STARTCHAR uni0486
ENCODING 1158
SWIDTH 580 0
DWIDTH 8 0
BBX 2 2 4 8
BITMAP
3D
48
ENDCHAR
STARTCHAR uni0488
ENCODING 1160
SWIDTH 988 0
DWIDTH 14 0
BBX 14 13 0 -3
BITMAP
000003BA000000
00000504200000
02BB100003BA00
05133000060420
00000000000000
00000000000000
4B900000001BB2
60510000003315
00000000000000
02BB100003BA00
05133000060420
00000197000000
00000727300000
ENDCHAR
STARTCHAR uni0489
ENCODING 1161
SWIDTH 956 0
DWIDTH 13 0
BBX 14 13 0 -3
BITMAP
00000075000000
000000D1000000
0083000002A700
002A00000A6000
00000000000000
00000000000000
59700000003981
00000000000000
00000000000000
002C2000065000
02B4000003C000
000000A4008100
000000B0000000
ENDCHAR
STARTCHAR uni048A
ENCODING 1162
SWIDTH 703 0
DWIDTH 10 0
BBX 10 16 0 -3
BITMAP
0000E205C0
00007DDB30
0000000000
006B0001DB
0098000AE8
00C4007AC4
01F104D2F1
04D02D33D0
07A0C607A0
0A68900A70
0D8C100D40
1FE2001F10
5F50004FD0
0000000970
0000002E10
000000A900
ENDCHAR
STARTCHAR uni048B
ENCODING 1163
SWIDTH 579 0
DWIDTH 8 0
BBX 8 14 0 -3
BITMAP
003D0099
000ADDA1
00000000
03E00098
06C000C5
099000F2
0C6003E0
0F2007C0
3F001E90
3F21AD60
09EC3DF3
000003C0
00000A60
00002E10
ENDCHAR
STARTCHAR uni048C
ENCODING 1164
SWIDTH 553 0
DWIDTH 8 0
BBX 7 10 0 0
BITMAP
006B0000
0BFFF900
01D51000
01F10000
04FFEA20
07A12BA0
0A7005D0
0E4007C0
2F116E50
5FFEB400
ENDCHAR
STARTCHAR uni048D
ENCODING 1165
SWIDTH 519 0
DWIDTH 7 0
BBX 7 11 0 0
BITMAP
00890000
00A70000
0CFED100
01F10000
05C00000
08800000
0BEEE900
0E302E40
1F000C50
0F505E10
06DEC300
ENDCHAR
STARTCHAR uni048E
ENCODING 1166
SWIDTH 565 0
DWIDTH 8 0
BBX 8 10 0 0
BITMAP
006FFEA1
009802BA
00C5005D
01F2006C
04E068D8
07FFEFA0
0A701860
0D400000
1F100000
5D000000
ENDCHAR
STARTCHAR uni048F
ENCODING 1167
SWIDTH 577 0
DWIDTH 8 0
BBX 9 11 -1 -3
BITMAP
002E3CE900
005EB22E30
008E100C50
00B8000D40
00E4002F10
02F3399B00
05E81FE200
0998ED8000
0C60039000
0F30000000
3E00000000
ENDCHAR
STARTCHAR afii10050
ENCODING 1168
SWIDTH 476 0
DWIDTH 7 0
BBX 9 12 0 0
BITMAP
0000002F10
0000005C00
006FFFF900
0099111000
00C5000000
01F2000000
04E0000000
07B0000000
0A80000000
0D40000000
1F10000000
5D00000000
ENDCHAR
STARTCHAR afii10098
ENCODING 1169
SWIDTH 382 0
DWIDTH 5 0
BBX 7 10 0 0
BITMAP
00000E40
00003F10
01FDDA00
04C00000
07900000
0A600000
0D400000
1F100000
4D000000
7A000000
ENDCHAR
STARTCHAR uni0492
ENCODING 1170
SWIDTH 471 0
DWIDTH 7 0
BBX 8 10 0 0
BITMAP
006FFFF9
00991110
00C60000
00E30000
03F00000
5FFFF100
09900000
0C500000
1F200000
4D000000
ENDCHAR
STARTCHAR uni0493
ENCODING 1171
SWIDTH 382 0
DWIDTH 5 0
BBX 6 8 0 0
BITMAP
01FFFC
04D000
07A000
098000
BFDD20
1F2000
4D0000
7A0000
ENDCHAR
STARTCHAR uni0494
ENCODING 1172
SWIDTH 603 0
DWIDTH 8 0
BBX 8 13 0 -3
BITMAP
006FFFF9
00991110
00C60000
01F30000
04F00000
07FFD910
0A903BC0
0D5002F2
1F2000F4
5D0002F2
000009C0
03129E30
0CFEA300
ENDCHAR
STARTCHAR uni0495
ENCODING 1173
SWIDTH 491 0
DWIDTH 7 0
BBX 6 11 0 -3
BITMAP
01FFFD
04C000
079000
0AEEA1
0D42C8
1F005D
4C004D
7A006C
0000C8
1318E1
1DEB30
ENDCHAR
STARTCHAR uni0496
ENCODING 1174
SWIDTH 821 0
DWIDTH 12 0
BBX 13 13 -1 -3
BITMAP
004E100D400BA0
000B801F10AB00
0003E14D08C100
0000A98A7D1000
00003FCCD20000
0000ABEAC00000
0008C3F1E40000
007D15C07C0000
05E208901E5100
4E300C6007FA00
0000000000A700
0000000000C500
0000000000F200
ENDCHAR
STARTCHAR uni0497
ENCODING 1175
SWIDTH 837 0
DWIDTH 12 0
BBX 13 11 -1 -3
BITMAP
00EE700E119EE0
0004F23D0AC200
0000D5693F3000
0000DDEEED0000
0001E1C38A0000
0006A0E17A0000
004E32D03E2100
2EC405A008ED00
00000000007A00
0000000000A700
0000000000D400
ENDCHAR
STARTCHAR uni0498
ENCODING 1176
SWIDTH 532 0
DWIDTH 7 0
BBX 8 13 0 -3
BITMAP
018DED70
029204F2
000001F2
00003A90
02FFE600
00004E40
00000A90
00000B80
72018E20
ADFEA300
00580000
004A0000
08D50000
ENDCHAR
STARTCHAR uni0499
ENCODING 1177
SWIDTH 436 0
DWIDTH 6 0
BBX 6 11 0 -3
BITMAP
07DFD3
03209A
0002B7
03FF80
0003E1
0000E3
5106D0
BEEB30
00C000
00D200
3CA000
ENDCHAR
STARTCHAR uni049A
ENCODING 1178
SWIDTH 600 0
DWIDTH 8 0
BBX 9 13 0 -3
BITMAP
006B001C90
009801C800
00D51C8000
01F2C80000
04EB800000
07BD500000
0A74E10000
0D40AA0000
2F101E5100
5D0006F800
000000B500
000000E300
000002F000
ENDCHAR
STARTCHAR uni049B
ENCODING 1179
SWIDTH 520 0
DWIDTH 7 0
BBX 7 11 0 -3
BITMAP
02F109B0
05C08B10
0897C100
0BCC1000
0E9C0000
2F1B7000
4D02E200
7A008F80
00000C50
00000E20
00002E00
ENDCHAR
STARTCHAR uni049C
ENCODING 1180
SWIDTH 559 0
DWIDTH 8 0
BBX 9 10 0 0
BITMAP
006B001C90
009800B900
00D5DBA000
01F3FB0000
04EAC00000
07EDD00000
0A7CE50000
0D5E7D0000
2F100E5000
5D0007C000
ENDCHAR
STARTCHAR uni049D
ENCODING 1181
SWIDTH 475 0
DWIDTH 7 0
BBX 8 8 0 0
BITMAP
02E005D1
05C7AC10
089AD100
0BBD1000
0E9C0000
2F6F7000
5C96E200
89008B00
ENDCHAR
STARTCHAR uni049E
ENCODING 1182
SWIDTH 557 0
DWIDTH 8 0
BBX 9 10 0 0
BITMAP
007B001C80
0AFFC1C800
01E51C8000
01F2C80000
04ECC00000
07E5E20000
0B70990000
0E403E1000
2F100C6000
5D0006D000
ENDCHAR
STARTCHAR uni049F
ENCODING 1183
SWIDTH 478 0
DWIDTH 7 0
BBX 7 11 0 0
BITMAP
007A0000
0AFED300
00E30000
02F009B0
05C08C10
0897C100
0BBF3000
0EBB7000
2F14E000
5D00D600
8A007C00
ENDCHAR
STARTCHAR uni04A0
ENCODING 1184
SWIDTH 631 0
DWIDTH 9 0
BBX 9 10 1 0
BITMAP
9FFC001C90
009901C900
00C51B9000
01F3B90000
04EB800000
07BD600000
0A84E10000
0D40AA0000
1F101E5000
4D0005E100
ENDCHAR
STARTCHAR uni04A1
ENCODING 1185
SWIDTH 560 0
DWIDTH 8 0
BBX 9 8 0 0
BITMAP
5FFF206C10
003E05D100
006C4D2000
009CD20000
00C9E10000
00E3990000
02F01E4000
05C006D100
ENDCHAR
STARTCHAR uni04A2
ENCODING 1186
SWIDTH 676 0
DWIDTH 9 0
BBX 10 13 0 -3
BITMAP
006B0000B6
00980000E3
00C50003F0
01F10006C0
04FFFFFF90
07A1111D60
0A70001F20
0D40003E00
1F10006B10
5D00009F90
0000000A70
0000000D40
0000001F10
ENDCHAR
STARTCHAR uni04A3
ENCODING 1187
SWIDTH 599 0
DWIDTH 8 0
BBX 8 11 0 -3
BITMAP
01F1005D
04C0008A
079000B7
0AFFFFF4
0D3003F1
1F0005D0
4C0008A0
7A000BF7
000000E4
000002F1
000005D0
ENDCHAR
STARTCHAR uni04A4
ENCODING 1188
SWIDTH 754 0
DWIDTH 11 0
BBX 12 10 0 0
BITMAP
006B0000BFFA
00980000E400
00C50003F000
01F10006C000
04FFFFFF9000
07A1111D6000
0A70001F2000
0D40003E0000
1F10006B0000
5D0000980000
ENDCHAR
STARTCHAR uni04A5
ENCODING 1189
SWIDTH 687 0
DWIDTH 10 0
BBX 11 8 0 0
BITMAP
01F1005FFF30
04C0008A0000
079000B70000
0AFFFFF40000
0D3003F10000
1F0005D00000
4C0008A00000
7A000B700000
ENDCHAR
STARTCHAR uni04A6
ENCODING 1190
SWIDTH 996 0
DWIDTH 14 0
BBX 13 13 0 -3
BITMAP
006FFFFFF40000
00980002F10000
00C50005D00000
01F20008A00000
04E0000C800000
07A0000EFEC500
0A70003F116F40
0D40006D0009A0
1F1000990007B0
5D0000C6000A90
00000000002E50
0000002215DA00
0000006EFC7000
ENDCHAR
STARTCHAR uni04A7
ENCODING 1191
SWIDTH 817 0
DWIDTH 11 0
BBX 11 11 0 -3
BITMAP
01FFFFF80000
04C000C50000
079000F20000
0A6003FEE600
0D3006B15F20
1F1009800C60
4D000C500B70
7A000E300D50
000000003F10
00000213C900
000006EE8000
ENDCHAR
STARTCHAR uni04A8
ENCODING 1192
SWIDTH 720 0
DWIDTH 10 0
BBX 9 10 1 0
BITMAP
003AEE8000
05E7225100
1E502DEE20
7B00BA0C70
C702F30B80
E505F00C70
E506D02F20
B804E0AB00
5E62ECD400
05CEEDFC00
ENDCHAR
STARTCHAR uni04A9
ENCODING 1193
SWIDTH 599 0
DWIDTH 8 0
BBX 8 8 0 0
BITMAP
005DE700
05D30100
0D505DE4
3F02F49A
4D06D089
3E06C1D4
1E63FBA0
03CEDDE3
ENDCHAR
STARTCHAR uni04AA
ENCODING 1194
SWIDTH 584 0
DWIDTH 8 0
BBX 8 13 1 -3
BITMAP
0029DFD7
03E93133
0D800000
6D000000
B8000000
D5000000
E5000000
C8000000
5F612400
06CFEB00
000C0000
000D2000
03CA0000
ENDCHAR
STARTCHAR uni04AB
ENCODING 1195
SWIDTH 450 0
DWIDTH 6 0
BBX 7 11 0 -3
BITMAP
004CED30
03E50210
0C700000
2F100000
4D000000
4E000000
1E602200
04CED300
003A0000
002C0000
06D60000
ENDCHAR
STARTCHAR uni04AC
ENCODING 1196
SWIDTH 498 0
DWIDTH 7 0
BBX 8 13 1 -3
BITMAP
9FFFFFF2
001F2000
004E0000
007B0000
00A80000
00D40000
02F10000
05D00000
08A10000
0BF70000
00C50000
00F20000
03E00000
ENDCHAR
STARTCHAR uni04AD
ENCODING 1197
SWIDTH 884 0
DWIDTH 12 0
BBX 12 11 0 -3
BITMAP
01E3CE61AEB1
04EA14EA41D5
07E102F500C6
0A8005D000E3
0D40089003F0
1F100B6006C0
4D000E3008A0
7A002F0004E9
0000000000C6
0000000000E3
0000000002F1
ENDCHAR
STARTCHAR uni04AE
ENCODING 1198
SWIDTH 502 0
DWIDTH 7 0
BBX 8 10 1 0
BITMAP
990005E1
5C001E50
1F109900
0C44D100
089D4000
04F90000
02F10000
06C00000
09900000
0C600000
ENDCHAR
STARTCHAR uni04AF
ENCODING 1199
SWIDTH 461 0
DWIDTH 6 0
BBX 7 11 0 -3
BITMAP
4D0006C0
2F001D40
0F207B00
0D41E200
0B599000
099E1000
07F70000
05D00000
07A00000
0B700000
0E300000
ENDCHAR
STARTCHAR uni04B0
ENCODING 1200
SWIDTH 502 0
DWIDTH 7 0
BBX 9 10 0 0
BITMAP
0990005E10
05C001E600
02F109B000
00D44E2000
0099D70000
006FC00000
002F300000
2FFFFD0000
018A110000
00C6000000
ENDCHAR
STARTCHAR uni04B1
ENCODING 1201
SWIDTH 461 0
DWIDTH 6 0
BBX 8 11 -1 -3
BITMAP
04D0006D
02F001D5
00F207C0
00D41E40
00C59B00
00A9F300
008FA000
006F2000
1DEED600
00A70000
00D40000
ENDCHAR
STARTCHAR uni04B2
ENCODING 1202
SWIDTH 568 0
DWIDTH 8 0
BBX 10 13 -1 -3
BITMAP
004E0004D2
000D402D40
0007A0C600
0002EAA000
0000CD0000
0004ED0000
002D3D4000
00C7089000
09A003E100
5D1000DF20
0000002E00
0000005C00
0000008900
ENDCHAR
STARTCHAR uni04B3
ENCODING 1203
SWIDTH 520 0
DWIDTH 7 0
BBX 8 11 0 -3
BITMAP
04D004E2
00D42E40
007AB700
001FA000
005F8000
03E4E100
1D50B600
A9005F80
00000C50
00000E20
00002E00
ENDCHAR
STARTCHAR uni04B4
ENCODING 1204
SWIDTH 776 0
DWIDTH 11 0
BBX 10 13 1 -3
BITMAP
9FFFFFF26C
012F211099
004E0000C6
007B0000F3
00A70003E0
00E40006B0
02F1000980
05D0000D50
08A1111F30
0BFFFFFFF1
00000004D0
00000007A0
0000000A70
ENDCHAR
STARTCHAR uni04B5
ENCODING 1205
SWIDTH 657 0
DWIDTH 9 0
BBX 9 11 0 -3
BITMAP
4FFFFF2890
006C000B60
0099000E30
00C6003F00
00E3007C00
02F001D900
02F21AD700
008EC46F60
0000000E30
0000002F10
0000005D00
ENDCHAR
STARTCHAR uni04B6
ENCODING 1206
SWIDTH 636 0
DWIDTH 9 0
BBX 8 13 1 -3
BITMAP
08A0004E
0B60008A
0E3000B7
3F0000E4
4E2027F1
0AFFCCD0
000009A0
00000C60
00000F40
00003FF1
000004D0
000006A0
00000980
ENDCHAR
STARTCHAR uni04B7
ENCODING 1207
SWIDTH 543 0
DWIDTH 8 0
BBX 7 11 1 -3
BITMAP
7A000E40
B7003F10
D4009D00
D617EA00
5DD7B700
0000E400
0002F100
0005FD00
00008A00
0000B700
0000D400
ENDCHAR
STARTCHAR uni04B8
ENCODING 1208
SWIDTH 639 0
DWIDTH 9 0
BBX 8 10 1 0
BITMAP
08A0004E
0B60008B
0E3000B7
3E0770E4
4E2B67F1
0AFFCCD0
002D09A0
004A0C70
00680F30
00003F00
ENDCHAR
STARTCHAR uni04B9
ENCODING 1209
SWIDTH 554 0
DWIDTH 8 0
BBX 7 8 1 0
BITMAP
7A000E30
B7003F10
D4859D00
D7B8EA00
5DF7B700
02B0E400
0582F100
0005D000
ENDCHAR
STARTCHAR uni04BA
ENCODING 1210
SWIDTH 639 0
DWIDTH 9 0
BBX 8 10 0 0
BITMAP
006B0000
00980000
00D40000
01F9CED4
04E6218C
0790005D
0A70007A
0D4000A7
2F1000D4
5D0001F1
ENDCHAR
STARTCHAR uni04BB
ENCODING 1211
SWIDTH 576 0
DWIDTH 8 0
BBX 7 8 0 0
BITMAP
01F10000
04D00000
07A00000
0A89ED30
0DD40990
1F500890
4E000B70
7A000E40
ENDCHAR
STARTCHAR uni04BC
ENCODING 1212
SWIDTH 765 0
DWIDTH 11 0
BBX 11 10 0 0
BITMAP
000007CFE900
0001CB413D70
000AB0000B80
1E4F2124AE20
0CFFFFEB8100
008A00000000
008B00000000
005E10000000
000DA2138000
0002BEED8000
ENDCHAR
STARTCHAR uni04BD
ENCODING 1213
SWIDTH 592 0
DWIDTH 8 0
BBX 8 8 0 0
BITMAP
0002AEE6
001D816D
5B8B03B9
3DFEEB60
00E40000
00C60000
008C1150
001AEEA0
ENDCHAR
STARTCHAR uni04BE
ENCODING 1214
SWIDTH 765 0
DWIDTH 11 0
BBX 11 13 0 -3
BITMAP
000007CFE900
0001CB413D70
000AB0000B80
1E4F2124AE20
0CFFFFDB7100
008A00000000
008B00000000
005E00000000
000DA2027000
0002BFFE9000
00000D500000
00000F200000
00003F000000
ENDCHAR
STARTCHAR uni04BF
ENCODING 1215
SWIDTH 592 0
DWIDTH 8 0
BBX 8 11 0 -3
BITMAP
0002AEE6
001D816D
5B8B03B9
3DFEEB60
00E40000
00D60000
008C1150
001AFEA0
0002F000
0005D000
0007A000
ENDCHAR
STARTCHAR uni04C0
ENCODING 1216
SWIDTH 272 0
DWIDTH 4 0
BBX 4 10 0 0
BITMAP
006B
0098
00C5
01F2
04E0
07A0
0A70
0D40
1F10
5D00
ENDCHAR
STARTCHAR uni04C1
ENCODING 1217
SWIDTH 775 0
DWIDTH 11 0
BBX 13 13 -1 0
BITMAP
000002E0089000
0000009DDA1000
00000000000000
004E100D400BA0
000B801F10AB00
0003E14D08C100
0000A98A7D1000
00003FCCD20000
0000ABEAC00000
0008C3F1E40000
007D15C07C0000
05E208901E5000
4E300C6007C000
ENDCHAR
STARTCHAR uni04C2
ENCODING 1218
SWIDTH 833 0
DWIDTH 12 0
BBX 13 11 -1 0
BITMAP
000005B00B7000
000001BDD90000
00000000000000
00EE700E119EE0
0004F23D0AC200
0000D5693F3000
0000DDEEED0000
0001E1C38A0000
0006A0E17A0000
004E32D03E2000
2EC405A007EB00
ENDCHAR
STARTCHAR uni04C3
ENCODING 1219
SWIDTH 628 0
DWIDTH 9 0
BBX 9 13 0 -3
BITMAP
006B001C90
009800BA00
00C50AA000
01F29B0000
04E8C10000
07FFEB4000
0A9117F300
0D5000B800
1F10009900
5D0000C700
000003F300
03116E8000
08EEC60000
ENDCHAR
STARTCHAR uni04C4
ENCODING 1220
SWIDTH 514 0
DWIDTH 7 0
BBX 7 11 0 -3
BITMAP
02F108C0
05D05D10
08A3E300
0B9E5000
0EEDC400
2F206E10
4D000F30
7A001F20
00005E00
0314E700
0BFD7000
ENDCHAR
STARTCHAR uni04C5
ENCODING 1221
SWIDTH 649 0
DWIDTH 9 0
BBX 10 13 -1 -3
BITMAP
00000EFFFE
00003E117B
00007A0098
0000C600D5
0001F101F2
0005C004E0
000A8007B0
002F200A70
12AB000E50
6EB1002FF2
00000005B0
0000000D40
0000006D00
ENDCHAR
STARTCHAR uni04C6
ENCODING 1222
SWIDTH 536 0
DWIDTH 8 0
BBX 8 11 -1 -3
BITMAP
00005DEC
0003E35C
00098089
000E20B6
005C00E3
00A602F0
05E106C0
9D4009F9
000000B3
000003D0
00000A70
ENDCHAR
STARTCHAR uni04C7
ENCODING 1223
SWIDTH 678 0
DWIDTH 10 0
BBX 10 13 0 -3
BITMAP
006B0000B6
00980000E3
00C50003E0
01F10006C0
04FFFFFF80
07A1111D50
0A70001F20
0D40004E00
1F10007A00
5D0000C600
000004F100
04226E7000
08EEC50000
ENDCHAR
STARTCHAR uni04C8
ENCODING 1224
SWIDTH 599 0
DWIDTH 8 0
BBX 8 11 0 -3
BITMAP
01F1005D
04C0008A
079000B6
0AFFFFF3
0D3003F0
1F0006C0
4C000990
7A000C50
00002F10
0222BA00
04EEA100
ENDCHAR
STARTCHAR uni04C9
ENCODING 1225
SWIDTH 684 0
DWIDTH 10 0
BBX 10 13 0 -3
BITMAP
006B0000B6
00980000E3
00C50003F0
01F10006C0
04FFFFFF90
07A1111D60
0A70001F20
0D40003E00
1F10006B10
5D00009F90
0000000D30
0000006C00
000001E500
ENDCHAR
STARTCHAR uni04CA
ENCODING 1226
SWIDTH 599 0
DWIDTH 8 0
BBX 8 11 0 -3
BITMAP
01F1005D
04C0008A
079000B7
0AFFFFF4
0D3003F1
1F0005D0
4C0008A0
7A000BF8
000000D2
000005B0
00000C50
ENDCHAR
STARTCHAR uni04CB
ENCODING 1227
SWIDTH 639 0
DWIDTH 9 0
BBX 8 13 1 -3
BITMAP
08A0004E
0B60008B
0E3000B7
3E0000E4
4E2027F1
0AFFCBD0
000009A0
00000C70
00001E30
0003FF00
0006A000
00098000
000C5000
ENDCHAR
STARTCHAR uni04CC
ENCODING 1228
SWIDTH 578 0
DWIDTH 8 0
BBX 7 11 1 -3
BITMAP
2F000980
6C000D50
89004F20
8B14DE00
2CEA7C00
00009900
0000C600
000EF300
002F1000
005D0000
007A0000
ENDCHAR
STARTCHAR uni04CD
ENCODING 1229
SWIDTH 841 0
DWIDTH 12 0
BBX 12 13 0 -3
BITMAP
006F600005FA
009D80000DD7
00D9A0006AD4
01F4C001D4F1
04D1E00885C0
07A0E12D1890
0A60C2970B60
0D30A7D00E30
2F009F503F10
5C007C006FD0
000000000960
000000003E10
00000000B900
ENDCHAR
STARTCHAR uni04CE
ENCODING 1230
SWIDTH 688 0
DWIDTH 10 0
BBX 10 11 0 -3
BITMAP
01F50006F2
04F8001DE0
07BA007AB0
0A6C01C880
0D2D095A50
1E0C4C0D20
4B0AC41E00
7807B04FB0
0000000960
0000001E10
0000008900
ENDCHAR
STARTCHAR uni04CF
ENCODING 1231
SWIDTH 272 0
DWIDTH 4 0
BBX 4 10 0 0
BITMAP
006B
0098
00C5
01F2
04E0
07A0
0A70
0D40
1F10
5D00
ENDCHAR
STARTCHAR uni04D0
ENCODING 1232
SWIDTH 555 0
DWIDTH 8 0
BBX 10 13 -1 0
BITMAP
0000B602E1
00004DDC50
0000000000
000009E000
00003DF100
0000B7E300
0004E1C400
000C70B600
005E109800
00DFFFFA00
07D1116C00
1E50004E00
8C00002F10
ENDCHAR
STARTCHAR uni04D1
ENCODING 1233
SWIDTH 564 0
DWIDTH 8 0
BBX 8 11 0 0
BITMAP
000F107B
0008DDB2
00000000
004CE968
03E508E5
0B8003F2
1F2004E0
4E0008B0
4D001E80
2F21AD50
08EC4C20
ENDCHAR
STARTCHAR uni04D2
ENCODING 1234
SWIDTH 555 0
DWIDTH 8 0
BBX 9 12 -1 0
BITMAP
0000490B20
0000000000
000009E000
00003DF100
0000B7E300
0004E1C400
000C70B600
005E109800
00DFFFFA00
07D1116C00
1E50004E00
8C00002F10
ENDCHAR
STARTCHAR uni04D3
ENCODING 1235
SWIDTH 564 0
DWIDTH 8 0
BBX 8 10 0 0
BITMAP
000A34A0
00000000
004CE968
03E508E5
0B8003F2
1F2004E0
4E0008B0
4D001E80
2F21AD50
08EC4C20
ENDCHAR
STARTCHAR uni04D4
ENCODING 1236
SWIDTH 816 0
DWIDTH 11 0
BBX 13 10 -1 0
BITMAP
000000BFFFFFE0
000006D6C11110
00001E48900000
0000AB0B500000
0004F20EFFFB00
001D802E100000
009FFFFB000000
03F41198000000
0C8000C6111000
7D0001FFFFF000
ENDCHAR
STARTCHAR uni04D5
ENCODING 1237
SWIDTH 814 0
DWIDTH 11 0
BBX 12 8 0 0
BITMAP
004DE6A7DE90
03E51AFA23F1
0B8007D139C0
1F2008FDC710
4E000C700000
5D004F800000
3F23BFE20420
09EB3B9EEB20
ENDCHAR
STARTCHAR uni04D6
ENCODING 1238
SWIDTH 511 0
DWIDTH 7 0
BBX 8 13 0 0
BITMAP
000C403E
0005DDC4
00000000
006FFFF9
00981110
00C50000
01F10000
04FFFF70
07A11100
0A700000
0D400000
1F211100
5FFFFB00
ENDCHAR
STARTCHAR uni04D7
ENCODING 1239
SWIDTH 493 0
DWIDTH 7 0
BBX 8 11 0 0
BITMAP
00A602E2
004DDC50
00000000
004CEC20
03D30C70
0B526E30
2FED9300
4D000000
4E000000
1E702400
04DED500
ENDCHAR
STARTCHAR uni04D8
ENCODING 1240
SWIDTH 661 0
DWIDTH 9 0
BBX 9 10 0 0
BITMAP
006CEEC400
0074228F20
0000000C90
00000008B0
00000007A0
017BDEFF80
1DB5211E30
5E00008A00
4E413AC100
07DFD71000
ENDCHAR
STARTCHAR uni04D9
ENCODING 1241
SWIDTH 493 0
DWIDTH 7 0
BBX 7 8 0 0
BITMAP
06DEC300
04208D00
00001F20
00000F20
04ADEE00
5D416A00
8A04D200
3CEC3000
ENDCHAR
STARTCHAR uni04DA
ENCODING 1242
SWIDTH 661 0
DWIDTH 9 0
BBX 9 12 0 0
BITMAP
0000C25800
0000000000
006CEEC400
0074228F20
0000000C90
00000008B0
00000007A0
017BDEFF80
1DB5211E30
5E00008A00
4E413AC100
07DFD71000
ENDCHAR
STARTCHAR uni04DB
ENCODING 1243
SWIDTH 493 0
DWIDTH 7 0
BBX 7 10 0 0
BITMAP
00761C00
00000000
06DEC300
04208D00
00001F20
00000F20
04ADEE00
5D416A00
8A04D200
3CEC3000
ENDCHAR
STARTCHAR uni04DC
ENCODING 1244
SWIDTH 775 0
DWIDTH 11 0
BBX 13 12 -1 0
BITMAP
000000852B0000
00000000000000
004E100D400BA0
000B801F10AB00
0003E14D08C100
0000A98A7D1000
00003FCCD20000
0000ABEAC00000
0008C3F1E40000
007D15C07C0000
05E208901E5000
4E300C6007C000
ENDCHAR
STARTCHAR uni04DD
ENCODING 1245
SWIDTH 833 0
DWIDTH 12 0
BBX 13 10 -1 0
BITMAP
000000A34A0000
00000000000000
00EE700E119EE0
0004F23D0AC200
0000D5693F3000
0000DDEEED0000
0001E1C38A0000
0006A0E17A0000
004E32D03E2000
2EC405A007EB00
ENDCHAR
STARTCHAR uni04DE
ENCODING 1246
SWIDTH 532 0
DWIDTH 7 0
BBX 8 12 0 0
BITMAP
000A43A0
00000000
018DED70
029204F2
000001F2
00003A90
02FFE600
00004E40
00000A90
00000B80
72018E20
ADFEA300
ENDCHAR
STARTCHAR uni04DF
ENCODING 1247
SWIDTH 436 0
DWIDTH 6 0
BBX 6 10 0 0
BITMAP
00942B
000000
07DFD3
03209A
0002B7
03FF80
0003E1
0000E3
5106D0
BEEB30
ENDCHAR
STARTCHAR uni04E0
ENCODING 1248
SWIDTH 525 0
DWIDTH 7 0
BBX 8 10 0 0
BITMAP
00EFFFF8
00111AB1
0001B800
002C6000
009ED600
00003E40
00000B70
00000D50
6202AD10
8DFD9100
ENDCHAR
STARTCHAR uni04E1
ENCODING 1249
SWIDTH 456 0
DWIDTH 6 0
BBX 8 11 -1 -3
BITMAP
00EFFFF1
00001C50
0002C400
003C3000
00AEB200
00009B00
00002F10
00001F10
00005D00
5104D500
AEEC5000
ENDCHAR
STARTCHAR uni04E2
ENCODING 1250
SWIDTH 696 0
DWIDTH 10 0
BBX 10 12 0 0
BITMAP
00007FFF40
0000000000
006B0001DB
0098000AE8
00C4007AC5
01F104D2F1
04D02D33D0
07A0C607A0
0A68900A70
0D8C100D40
1FE2001F10
5F50004C00
ENDCHAR
STARTCHAR uni04E3
ENCODING 1251
SWIDTH 577 0
DWIDTH 8 0
BBX 8 10 0 0
BITMAP
000CFFD0
00000000
03E00098
06C000C5
099000F2
0C6003E0
0F2007B0
3F001E80
2F21AD50
09EC3D20
ENDCHAR
STARTCHAR uni04E4
ENCODING 1252
SWIDTH 696 0
DWIDTH 10 0
BBX 10 12 0 0
BITMAP
0000490B20
0000000000
006B0001DB
0098000AE8
00C4007AC5
01F104D2F1
04D02D33D0
07A0C607A0
0A68900A70
0D8C100D40
1FE2001F10
5F50004C00
ENDCHAR
STARTCHAR uni04E5
ENCODING 1253
SWIDTH 577 0
DWIDTH 8 0
BBX 8 10 0 0
BITMAP
000A33A0
00000000
03E00098
06C000C5
099000F2
0C6003E0
0F2007B0
3F001E80
2F21AD50
09EC3D20
ENDCHAR
STARTCHAR uni04E6
ENCODING 1254
SWIDTH 720 0
DWIDTH 10 0
BBX 9 12 1 0
BITMAP
000490B200
0000000000
003AEEB300
04E7229E10
1E50000D60
7C00000A90
C700000A90
E500000C70
E500002F30
C80000AB00
5F612AE200
05CED92000
ENDCHAR
STARTCHAR uni04E7
ENCODING 1255
SWIDTH 561 0
DWIDTH 8 0
BBX 8 10 0 0
BITMAP
000C1670
00000000
004CEB20
04E408D0
0C6001F2
2F1000F2
4D0003F1
4E0008A0
1E504E30
04CEC300
ENDCHAR
STARTCHAR uni04E8
ENCODING 1256
SWIDTH 720 0
DWIDTH 10 0
BBX 9 10 1 0
BITMAP
003AEEB300
04E6228E10
1E30000C60
7A00000990
CFFFFFFF90
E400000E70
E500003F30
C90000CB00
5F612AE200
05CED92000
ENDCHAR
STARTCHAR uni04E9
ENCODING 1257
SWIDTH 561 0
DWIDTH 8 0
BBX 8 8 0 0
BITMAP
004CEB30
04D306D0
0C4000F2
2FFFFFF2
4D0004E0
4E000AA0
1E606E20
04CEC300
ENDCHAR
STARTCHAR uni04EA
ENCODING 1258
SWIDTH 720 0
DWIDTH 10 0
BBX 9 12 1 0
BITMAP
000490B200
0000000000
003AEEB300
04E6228E10
1E30000C60
7A00000990
CFFFFFFF90
E400000E70
E500003F30
C90000CB00
5F612AE200
05CED92000
ENDCHAR
STARTCHAR uni04EB
ENCODING 1259
SWIDTH 561 0
DWIDTH 8 0
BBX 8 10 0 0
BITMAP
000C1670
00000000
004CEB30
04D306D0
0C4000F2
2FFFFFF2
4D0004E0
4E000AA0
1E606E20
04CEC300
ENDCHAR
STARTCHAR uni04EC
ENCODING 1260
SWIDTH 584 0
DWIDTH 8 0
BBX 8 12 0 0
BITMAP
000B2590
00000000
03BEEC40
015227F3
000000A9
0000008B
00CFFFFA
001111C9
000001F4
000009D0
6313AE30
8DFD9200
ENDCHAR
STARTCHAR uni04ED
ENCODING 1261
SWIDTH 456 0
DWIDTH 6 0
BBX 6 10 0 0
BITMAP
00C167
000000
1BEE80
0302D5
000079
0CFFFA
0000B8
0001E4
302BC0
AEE910
ENDCHAR
STARTCHAR uni04EE
ENCODING 1262
SWIDTH 571 0
DWIDTH 8 0
BBX 10 12 0 0
BITMAP
0007FFF300
0000000000
06C00005E1
01F1001D50
00C5008B00
007902E200
003E0B7000
000D6D0000
0009F40000
000B900000
32AC100000
EEA1000000
ENDCHAR
STARTCHAR uni04EF
ENCODING 1263
SWIDTH 461 0
DWIDTH 6 0
BBX 9 13 -2 -3
BITMAP
0000CFFD00
0000000000
004D0005D0
002F000D50
000E206C00
000C41D400
000A67B000
00087D3000
0006DA0000
0004F20000
0009800000
005E100000
5EC3000000
ENDCHAR
STARTCHAR uni04F0
ENCODING 1264
SWIDTH 571 0
DWIDTH 8 0
BBX 10 12 0 0
BITMAP
0004A0B300
0000000000
06C00005E1
01F1001D50
00C5008B00
007902E200
003E0B7000
000D6D0000
0009F40000
000B900000
32AC100000
EEA1000000
ENDCHAR
STARTCHAR uni04F1
ENCODING 1265
SWIDTH 461 0
DWIDTH 6 0
BBX 9 13 -2 -3
BITMAP
0000851C00
0000000000
004D0005D0
002F000D50
000E206C00
000C41D400
000A67B000
00087D3000
0006DA0000
0004F20000
0009800000
005E100000
5EC3000000
ENDCHAR
STARTCHAR uni04F2
ENCODING 1266
SWIDTH 571 0
DWIDTH 8 0
BBX 10 13 0 0
BITMAP
00003D2C50
0002A29400
0000000000
06C00005E1
01F1001D50
00C5008B00
007902E200
003E0B7000
000D6D0000
0009F40000
000B900000
32AC100000
EEA1000000
ENDCHAR
STARTCHAR uni04F3
ENCODING 1267
SWIDTH 461 0
DWIDTH 6 0
BBX 10 14 -2 -3
BITMAP
00000A85C1
0000773A10
0000000000
004D0005D0
002F000D50
000E206C00
000C41D400
000A67B000
00087D3000
0006DA0000
0004F20000
0009800000
005E100000
5EC3000000
ENDCHAR
STARTCHAR uni04F4
ENCODING 1268
SWIDTH 639 0
DWIDTH 9 0
BBX 8 12 1 0
BITMAP
000B3490
00000000
08A0004E
0B60008B
0E3000B7
3E0000E4
4F2027F1
0AFFCCD0
000009A0
00000C70
00000F30
00003F00
ENDCHAR
STARTCHAR uni04F5
ENCODING 1269
SWIDTH 555 0
DWIDTH 8 0
BBX 7 10 1 0
BITMAP
01C08600
00000000
7A000E40
A7003F10
D4009D00
D717FA00
5DE8B700
0000E400
0002F100
0005D000
ENDCHAR
STARTCHAR uni04F6
ENCODING 1270
SWIDTH 476 0
DWIDTH 7 0
BBX 8 13 0 -3
BITMAP
006FFFF9
00991110
00C50000
01F20000
04E00000
07B00000
0A800000
0D400000
1F200000
5FE00000
06B00000
09800000
0B500000
ENDCHAR
STARTCHAR uni04F7
ENCODING 1271
SWIDTH 382 0
DWIDTH 5 0
BBX 6 11 0 -3
BITMAP
01FFFC
04D000
07A000
0A7000
0D4000
1F1000
4D0000
7F9000
0B7000
0E4000
2F1000
ENDCHAR
STARTCHAR uni04F8
ENCODING 1272
SWIDTH 786 0
DWIDTH 11 0
BBX 11 12 0 0
BITMAP
00000A33A000
000000000000
006B000003E0
0098000006B0
00C500000980
01F100000D50
04FFEA201F20
07A02BB04E00
0A7005E07B00
0D4006C0A700
1F104D60D400
5FFEC501F100
ENDCHAR
STARTCHAR uni04F9
ENCODING 1273
SWIDTH 721 0
DWIDTH 10 0
BBX 10 10 0 0
BITMAP
0000B25900
0000000000
03E0000098
06C00000C5
09800000E2
0CCEE603E0
0E304F16B0
1F100F2980
0E507D0C50
05DEB20E20
ENDCHAR
STARTCHAR uni04FA
ENCODING 1274
SWIDTH 471 0
DWIDTH 7 0
BBX 8 13 0 -3
BITMAP
006FFFF9
00991110
00C60000
00E30000
03F00000
5FFFF100
09900000
0C500000
1F100000
4FC00000
05A00000
1A600000
CC100000
ENDCHAR
STARTCHAR uni04FB
ENCODING 1275
SWIDTH 382 0
DWIDTH 5 0
BBX 7 11 -1 -3
BITMAP
001FFFC0
004D0000
007A0000
00980000
0BFDD200
01F20000
04D00000
07F90000
00870000
01C30000
1EA00000
ENDCHAR
STARTCHAR uni04FC
ENCODING 1276
SWIDTH 508 0
DWIDTH 7 0
BBX 10 13 -1 -3
BITMAP
004E0004D2
000D402D40
0007A0C600
0002EAA000
0000CD0000
0004ED0000
002D3D4000
00C7089000
09A003E000
5D1000DF00
0000002C00
0000017900
000009D300
ENDCHAR
STARTCHAR uni04FD
ENCODING 1277
SWIDTH 469 0
DWIDTH 7 0
BBX 8 11 -1 -3
BITMAP
00A700AA
004D06C1
000D7E20
0006F500
000BF200
008A8900
05D12E10
2E300BE1
000001E0
000016A0
00008E30
ENDCHAR
STARTCHAR uni04FE
ENCODING 1278
SWIDTH 519 0
DWIDTH 7 0
BBX 10 10 -1 0
BITMAP
004E0004D2
000D402D30
0007A1D500
0001EB8000
00CFFFFD00
0016DE1000
002E2C4000
01C607A000
09A003E100
5D1000D500
ENDCHAR
STARTCHAR uni04FF
ENCODING 1279
SWIDTH 478 0
DWIDTH 7 0
BBX 8 8 -1 0
BITMAP
00A700A9
003D06A0
000A7B10
04DEFDD1
002EF500
00BA8B00
07D12F20
3E300B70
ENDCHAR
STARTCHAR uni0500
ENCODING 1280
SWIDTH 565 0
DWIDTH 8 0
BBX 8 10 0 0
BITMAP
0000004D
0000008A
000000B7
000000E4
018DFFF1
0CB206C0
4F100990
5E000C60
2F610E30
05CFFE00
ENDCHAR
STARTCHAR uni0501
ENCODING 1281
SWIDTH 577 0
DWIDTH 8 0
BBX 9 11 0 0
BITMAP
0000000E30
0000002F10
0000005C00
004CE98900
03E507E600
0B8002F300
1F2003F000
4E0007C000
4D001E9000
2F21AD6000
08EC3C3000
ENDCHAR
STARTCHAR uni0502
ENCODING 1282
SWIDTH 831 0
DWIDTH 12 0
BBX 11 10 0 0
BITMAP
0000003E0000
0000007B0000
000000A80000
000000E50000
006CEFF105D0
09D525D008A0
2F3008A00B70
4F000B700E30
2F516F917D00
06EEA3CFC300
ENDCHAR
STARTCHAR uni0503
ENCODING 1283
SWIDTH 850 0
DWIDTH 12 0
BBX 11 11 0 0
BITMAP
0000000E3000
0000002F0000
0000005C0000
004CE9890000
04E407E60000
0C8002F30000
1F2003E003D0
4E0007B007A0
4D001E900A70
2F21BAB03E20
08ED50AED500
ENDCHAR
STARTCHAR uni0504
ENCODING 1284
SWIDTH 837 0
DWIDTH 12 0
BBX 10 10 1 0
BITMAP
17CEE80000
19303E4000
00000E4000
0002AA0000
1FFF70003E
0004F4006B
0000C70098
0000C700D5
0000BA16E1
00003CFC40
ENDCHAR
STARTCHAR uni0505
ENCODING 1285
SWIDTH 743 0
DWIDTH 10 0
BBX 9 8 1 0
BITMAP
8DFC200000
420A900000
002C500000
4FF6000B60
004E000E30
000F103E00
000E40A900
0006EEA100
ENDCHAR
STARTCHAR uni0506
ENCODING 1286
SWIDTH 569 0
DWIDTH 8 0
BBX 7 13 1 -3
BITMAP
17CEE800
19303F40
00000E40
0002AA00
1FFF7000
0003E400
0000A800
0000B600
0000E400
0002FF20
00003E00
00006B00
00009800
ENDCHAR
STARTCHAR uni0507
ENCODING 1287
SWIDTH 470 0
DWIDTH 7 0
BBX 5 11 1 -3
BITMAP
8DFC20
420A90
002C50
4FF600
004E00
001F10
003F00
006FB0
000990
000C60
000E30
ENDCHAR
STARTCHAR uni0508
ENCODING 1288
SWIDTH 895 0
DWIDTH 13 0
BBX 13 10 -1 0
BITMAP
00000EFFFA0000
00003E11B70000
00007A00E30000
0000C603F00000
0001F106C007A0
0005C009900A70
000A800C500D40
002F200F302F10
12AB000E62AA00
6EB10005DEA100
ENDCHAR
STARTCHAR uni0509
ENCODING 1289
SWIDTH 806 0
DWIDTH 11 0
BBX 12 8 -1 0
BITMAP
00005DEC0000
0003E35C0000
000980890000
000E20B600D4
005C00E301F1
00A602F004D0
05E101F20B80
9D40008EEA10
ENDCHAR
STARTCHAR uni050A
ENCODING 1290
SWIDTH 953 0
DWIDTH 13 0
BBX 13 10 0 0
BITMAP
006B0000B70000
00980000E40000
00C50003F10000
01F10006C00000
04FFFFFF900A70
07A1111D600D40
0A70001F301F10
0D40003F004D00
1F10002F32B700
5D000007EE9000
ENDCHAR
STARTCHAR uni050B
ENCODING 1291
SWIDTH 867 0
DWIDTH 12 0
BBX 12 8 0 0
BITMAP
01F1005D0000
04C0008A0000
079000B70000
0AFFFFF400F2
0D3003F103E0
1F0004D007B0
4C0003E11D60
7A00008EE800
ENDCHAR
STARTCHAR uni050C
ENCODING 1292
SWIDTH 695 0
DWIDTH 10 0
BBX 9 10 1 0
BITMAP
0029DFDA10
03E9313700
1D70000000
6D00000000
B700000000
D5008FFF30
E500015E00
C80000A900
5E5128E200
05CEEA2000
ENDCHAR
STARTCHAR uni050D
ENCODING 1293
SWIDTH 588 0
DWIDTH 8 0
BBX 8 8 0 0
BITMAP
003ADEC4
03E60032
0C700000
2F100000
4D00CFF8
3E0000E3
1D7019B0
03BED910
ENDCHAR
STARTCHAR uni050E
ENCODING 1294
SWIDTH 658 0
DWIDTH 9 0
BBX 8 10 1 0
BITMAP
9FFFFFF2
001F2000
004E0000
007A0000
00A700C5
00E400E2
02F103E0
05D006B0
04E22D50
009EE800
ENDCHAR
STARTCHAR uni050F
ENCODING 1295
SWIDTH 586 0
DWIDTH 8 0
BBX 8 8 0 0
BITMAP
5FFFFF00
006B0000
00A80000
00D500E3
01F202F0
03E005C0
02F21C70
008EE800
ENDCHAR
STARTCHAR uni0510
ENCODING 1296
SWIDTH 539 0
DWIDTH 8 0
BBX 8 10 0 0
BITMAP
0008DEC5
008C2048
00C50000
008A2000
003CFF60
07C40000
1F400000
2F200000
0D910340
03BEEC50
ENDCHAR
STARTCHAR uni0511
ENCODING 1297
SWIDTH 444 0
DWIDTH 6 0
BBX 7 8 0 0
BITMAP
008DEC20
07B10300
07B10000
03DF9000
3D400000
89000000
7C104200
1AEEB200
ENDCHAR
STARTCHAR uni0512
ENCODING 1298
SWIDTH 633 0
DWIDTH 9 0
BBX 10 13 -1 -3
BITMAP
00000EFFFE
00003E116B
00007A0098
0000C600C5
0001F101F2
0005C004E0
000A8007B0
002F200A70
12AB000E40
6EB1002FF1
00000002D0
0000001690
0000008E30
ENDCHAR
STARTCHAR uni0513
ENCODING 1299
SWIDTH 526 0
DWIDTH 7 0
BBX 8 11 -1 -3
BITMAP
00005DEC
0003E35C
00098089
000E20B6
005C00E3
00A602F0
05E106C0
9D4009F8
00000096
000001D2
00001E90
ENDCHAR
STARTCHAR uni1E00
ENCODING 7680
SWIDTH 555 0
DWIDTH 8 0
BBX 9 14 -1 -4
BITMAP
000009E000
00003DF100
0000B7E300
0004E1C400
000C70B600
005E109800
00DFFFFA00
07D1116C00
1E50004E00
8C00002F10
0000000000
003BB20000
0084570000
003BB20000
ENDCHAR
STARTCHAR uni1E01
ENCODING 7681
SWIDTH 564 0
DWIDTH 8 0
BBX 8 12 0 -4
BITMAP
004CE968
03E508E5
0B8003F2
1F2004E0
4E0008B0
4D001E80
2F21AD50
08EC4C20
00000000
02BB4000
05639000
02BB4000
ENDCHAR
STARTCHAR uni1E3E
ENCODING 7742
SWIDTH 836 0
DWIDTH 12 0
BBX 12 13 0 0
BITMAP
00000002E400
0000001B3000
000000000000
006F600005FA
009D80000DD7
00D9A0006AD4
01F4C001D4F1
04D1E00885C0
07A0E12D1890
0A60C2970B60
0D30A7D00E30
2F009F503F00
5C007C006C00
ENDCHAR
STARTCHAR uni1E3F
ENCODING 7743
SWIDTH 872 0
DWIDTH 12 0
BBX 12 11 0 0
BITMAP
00000006D100
0000004B1000
000000000000
01E3CE61AEB1
04EA14EA41D5
07E102F500C5
0A8005D000E3
0D40089002F0
1F100B6006C0
4D000E300990
7A002F000C60
ENDCHAR
STARTCHAR Wgrave
ENCODING 7808
SWIDTH 852 0
DWIDTH 12 0
BBX 12 13 1 0
BITMAP
00002E200000
000004A00000
000000000000
7B0008E0005D
6B001DF000B7
5C0079E103E1
5C00D2E20980
4D06A0D21E20
4D0D30C37A00
3E5B00B4D300
2DB400A9B000
2EC000AE4000
1F60009C0000
ENDCHAR
STARTCHAR wgrave
ENCODING 7809
SWIDTH 716 0
DWIDTH 10 0
BBX 11 11 0 0
BITMAP
000099000000
00001B200000
000000000000
3E004F400D50
2E00AC504D00
2F02D860B700
1F087872E100
1F1D17789000
0F69078E2000
0EC206CB0000
0EA005F40000
ENDCHAR
STARTCHAR Wacute
ENCODING 7810
SWIDTH 852 0
DWIDTH 12 0
BBX 12 13 1 0
BITMAP
0000001D6000
000000A50000
000000000000
7B0008E0005D
6B001DF000B7
5C0079E103E1
5C00D2E20980
4D06A0D21E20
4D0D30C37A00
3E5B00B4D300
2DB400A9B000
2EC000AE4000
1F60009C0000
ENDCHAR
STARTCHAR wacute
ENCODING 7811
SWIDTH 716 0
DWIDTH 10 0
BBX 11 11 0 0
BITMAP
0000008B0000
000006900000
000000000000
3E004F400D50
2E00AC504D00
2F02D860B700
1F087872E100
1F1D17789000
0F69078E2000
0EC206CB0000
0EA005F40000
ENDCHAR
STARTCHAR Wdieresis
ENCODING 7812
SWIDTH 852 0
DWIDTH 12 0
BBX 12 12 1 0
BITMAP
00003A0A3000
000000000000
7B0008E0005D
6B001DF000B7
5C0079E103E1
5C00D2E20980
4D06A0D21E20
4D0D30C37A00
3E5B00B4D300
2DB400A9B000
2EC000AE4000
1F60009C0000
ENDCHAR
STARTCHAR wdieresis
ENCODING 7813
SWIDTH 716 0
DWIDTH 10 0
BBX 11 10 0 0
BITMAP
0000C1680000
000000000000
3E004F400D50
2E00AC504D00
2F02D860B700
1F087872E100
1F1D17789000
0F69078E2000
0EC206CB0000
0EA005F40000
ENDCHAR
STARTCHAR uni1EA0
ENCODING 7840
SWIDTH 555 0
DWIDTH 8 0
BBX 9 13 -1 -3
BITMAP
000009E000
00003DF100
0000B7E300
0004E1C400
000C70B600
005E109800
00DFFFFA00
07D1116C00
1E50004E00
8C00002F10
0000000000
0006900000
0008700000
ENDCHAR
STARTCHAR uni1EA1
ENCODING 7841
SWIDTH 564 0
DWIDTH 8 0
BBX 8 11 0 -3
BITMAP
004CE968
03E508E5
0B8003F2
1F2004E0
4E0008B0
4D001E80
2F21AD50
08EC4C20
00000000
00970000
00A50000
ENDCHAR
STARTCHAR uni1EA2
ENCODING 7842
SWIDTH 555 0
DWIDTH 8 0
BBX 9 14 -1 0
BITMAP
000002BC10
0000004C10
000001B100
0000000000
000009E000
00003DF100
0000B7E300
0004E1C400
000C70B600
005E109800
00DFFFFA00
07D1116C00
1E50004E00
8C00002F10
ENDCHAR
STARTCHAR uni1EA3
ENCODING 7843
SWIDTH 564 0
DWIDTH 8 0
BBX 8 12 0 0
BITMAP
00007C60
00002880
00009500
00000000
004CE968
03E508E5
0B8003F2
1F2004E0
4E0008B0
4D001E80
2F21AD50
08EC4C20
ENDCHAR
STARTCHAR uni1EA4
ENCODING 7844
SWIDTH 555 0
DWIDTH 8 0
BBX 11 14 -1 0
BITMAP
000000002E20
000006E7B300
0000681A1000
000000000000
000009E00000
00003DF10000
0000B7E30000
0004E1C40000
000C70B60000
005E10980000
00DFFFFA0000
07D1116C0000
1E50004E0000
8C00002F1000
ENDCHAR
STARTCHAR uni1EA5
ENCODING 7845
SWIDTH 564 0
DWIDTH 8 0
BBX 9 12 0 0
BITMAP
00000008A0
0000BE5A10
0019448000
0000000000
004CE96800
03E508E500
0B8003F200
1F2004E000
4E0008B000
4D001E8000
2F21AD5000
08EC4C2000
ENDCHAR
STARTCHAR uni1EA6
ENCODING 7846
SWIDTH 555 0
DWIDTH 8 0
BBX 9 14 -1 0
BITMAP
0009600000
0001B6E700
0000681A10
0000000000
000009E000
00003DF100
0000B7E300
0004E1C400
000C70B600
005E109800
00DFFFFA00
07D1116C00
1E50004E00
8C00002F10
ENDCHAR
STARTCHAR uni1EA7
ENCODING 7847
SWIDTH 564 0
DWIDTH 8 0
BBX 8 12 0 0
BITMAP
01D10000
0057BE10
00194480
00000000
004CE968
03E508E5
0B8003F2
1F2004E0
4E0008B0
4D001E80
2F21AD50
08EC4C20
ENDCHAR
STARTCHAR uni1EA8
ENCODING 7848
SWIDTH 555 0
DWIDTH 8 0
BBX 10 15 -1 0
BITMAP
0000000089
0000000085
000006E700
0000681A10
0000000000
000009E000
00003DF100
0000B7E300
0004E1C400
000C70B600
005E109800
00DFFFFA00
07D1116C00
1E50004E00
8C00002F10
ENDCHAR
STARTCHAR uni1EA9
ENCODING 7849
SWIDTH 564 0
DWIDTH 8 0
BBX 9 13 0 0
BITMAP
0000003A40
0000002920
0000BE1000
0019448000
0000000000
004CE96800
03E508E500
0B8003F200
1F2004E000
4E0008B000
4D001E8000
2F21AD5000
08EC4C2000
ENDCHAR
STARTCHAR uni1EAA
ENCODING 7850
SWIDTH 555 0
DWIDTH 8 0
BBX 10 15 -1 0
BITMAP
00001CC384
0000542B80
000006E700
0000681A10
0000000000
000009E000
00003DF100
0000B7E300
0004E1C400
000C70B600
005E109800
00DFFFFA00
07D1116C00
1E50004E00
8C00002F10
ENDCHAR
STARTCHAR uni1EAB
ENCODING 7851
SWIDTH 564 0
DWIDTH 8 0
BBX 8 13 0 0
BITMAP
0005D92B
000906B4
0000BE10
00094480
00000000
004CE968
03E508E5
0B8003F2
1F2004E0
4E0008B0
4D001E80
2F21AD50
08EC4C20
ENDCHAR
STARTCHAR uni1EAC
ENCODING 7852
SWIDTH 555 0
DWIDTH 8 0
BBX 9 16 -1 -3
BITMAP
000005F700
00006A2B30
0000000000
000009E000
00003DF100
0000B7E300
0004E1C400
000C70B600
005E109800
00DFFFFA00
07D1116C00
1E50004E00
8C00002F10
0000000000
0006900000
0008700000
ENDCHAR
STARTCHAR uni1EAD
ENCODING 7853
SWIDTH 564 0
DWIDTH 8 0
BBX 8 14 0 -3
BITMAP
0001CE10
001B5690
00000000
004CE968
03E508E5
0B8003F2
1F2004E0
4E0008B0
4D001E80
2F21AD50
08EC4C20
00000000
00970000
00A50000
ENDCHAR
STARTCHAR uni1EAE
ENCODING 7854
SWIDTH 555 0
DWIDTH 8 0
BBX 9 14 -1 0
BITMAP
0000005920
0000760850
00001CE900
0000000000
000009E000
00003DF100
0000B7E300
0004E1C400
000C70B600
005E109800
00DFFFFA00
07D1116C00
1E50004E00
8C00002F10
ENDCHAR
STARTCHAR uni1EAF
ENCODING 7855
SWIDTH 564 0
DWIDTH 8 0
BBX 8 12 0 0
BITMAP
00000870
000C21C1
0005ED50
00000000
004CE968
03E508E5
0B8003F2
1F2004E0
4E0008B0
4D001E80
2F21AD50
08EC4C20
ENDCHAR
STARTCHAR uni1EB0
ENCODING 7856
SWIDTH 555 0
DWIDTH 8 0
BBX 9 14 -1 0
BITMAP
0000058000
0000760850
00001CE900
0000000000
000009E000
00003DF100
0000B7E300
0004E1C400
000C70B600
005E109800
00DFFFFA00
07D1116C00
1E50004E00
8C00002F10
ENDCHAR
STARTCHAR uni1EB1
ENCODING 7857
SWIDTH 564 0
DWIDTH 8 0
BBX 8 12 0 0
BITMAP
00019400
000C21C1
0005ED50
00000000
004CE968
03E508E5
0B8003F2
1F2004E0
4E0008B0
4D001E80
2F21AD50
08EC4C20
ENDCHAR
STARTCHAR uni1EB2
ENCODING 7858
SWIDTH 555 0
DWIDTH 8 0
BBX 9 15 -1 0
BITMAP
0000009900
0000009500
0000760850
00001CE900
0000000000
000009E000
00003DF100
0000B7E300
0004E1C400
000C70B600
005E109800
00DFFFFA00
07D1116C00
1E50004E00
8C00002F10
ENDCHAR
STARTCHAR uni1EB3
ENCODING 7859
SWIDTH 564 0
DWIDTH 8 0
BBX 8 13 0 0
BITMAP
00003B40
00003920
000C21C1
0005ED50
00000000
004CE968
03E508E5
0B8003F2
1F2004E0
4E0008B0
4D001E80
2F21AD50
08EC4C20
ENDCHAR
STARTCHAR uni1EB4
ENCODING 7860
SWIDTH 555 0
DWIDTH 8 0
BBX 10 15 -1 0
BITMAP
00002CB2A2
0000723B70
0000760850
00001CE900
0000000000
000009E000
00003DF100
0000B7E300
0004E1C400
000C70B600
005E109800
00DFFFFA00
07D1116C00
1E50004E00
8C00002F10
ENDCHAR
STARTCHAR uni1EB5
ENCODING 7861
SWIDTH 564 0
DWIDTH 8 0
BBX 8 13 0 0
BITMAP
0006D82A
000907C3
000C21C1
0005ED50
00000000
004CE968
03E508E5
0B8003F2
1F2004E0
4E0008B0
4D001E80
2F21AD50
08EC4C20
ENDCHAR
STARTCHAR uni1EB6
ENCODING 7862
SWIDTH 555 0
DWIDTH 8 0
BBX 9 16 -1 -3
BITMAP
0000670850
00001CE900
0000000000
000009E000
00003DF100
0000B7E300
0004E1C400
000C70B600
005E109800
00DFFFFA00
07D1116C00
1E50004E00
8C00002F10
0000000000
0006900000
0008700000
ENDCHAR
STARTCHAR uni1EB7
ENCODING 7863
SWIDTH 564 0
DWIDTH 8 0
BBX 8 14 0 -3
BITMAP
000A31B1
0004EE50
00000000
004CE968
03E508E5
0B8003F2
1F2004E0
4E0008B0
4D001E80
2F21AD50
08EC4C20
00000000
00970000
00A50000
ENDCHAR
STARTCHAR uni1EB8
ENCODING 7864
SWIDTH 511 0
DWIDTH 7 0
BBX 8 13 0 -3
BITMAP
006FFFF9
00981110
00C50000
01F10000
04FFFF70
07A11100
0A700000
0D400000
1F211100
5FFFFB00
00000000
00960000
00A50000
ENDCHAR
STARTCHAR uni1EB9
ENCODING 7865
SWIDTH 493 0
DWIDTH 7 0
BBX 7 11 0 -3
BITMAP
004CEC20
03D30C70
0B526E30
2FED9300
4D000000
4E000000
1E702400
04DED500
00000000
00C40000
00D20000
ENDCHAR
STARTCHAR uni1EBA
ENCODING 7866
SWIDTH 511 0
DWIDTH 7 0
BBX 8 14 0 0
BITMAP
00003BB0
000005C0
00004A10
00000000
006FFFF9
00981110
00C50000
01F10000
04FFFF70
07A11100
0A700000
0D400000
1F211100
5FFFFB00
ENDCHAR
STARTCHAR uni1EBB
ENCODING 7867
SWIDTH 493 0
DWIDTH 7 0
BBX 7 12 0 0
BITMAP
0001BC20
00003C20
0000C100
00000000
004CEC20
03D30C70
0B526E30
2FED9300
4D000000
4E000000
1E702400
04DED500
ENDCHAR
STARTCHAR uni1EBC
ENCODING 7868
SWIDTH 511 0
DWIDTH 7 0
BBX 8 13 0 0
BITMAP
0007E72A
000B1AE4
00000000
006FFFF9
00981110
00C50000
01F10000
04FFFF70
07A11100
0A700000
0D400000
1F211100
5FFFFB00
ENDCHAR
STARTCHAR uni1EBD
ENCODING 7869
SWIDTH 493 0
DWIDTH 7 0
BBX 7 11 0 0
BITMAP
005E91B0
00B18E60
00000000
004CEC20
03D30C70
0B526E30
2FED9300
4D000000
4E000000
1E702400
04DED500
ENDCHAR
STARTCHAR uni1EBE
ENCODING 7870
SWIDTH 511 0
DWIDTH 7 0
BBX 10 14 0 0
BITMAP
00000002E2
00006E7B30
000681A100
0000000000
006FFFF900
0098111000
00C5000000
01F1000000
04FFFF7000
07A1110000
0A70000000
0D40000000
1F21110000
5FFFFB0000
ENDCHAR
STARTCHAR uni1EBF
ENCODING 7871
SWIDTH 493 0
DWIDTH 7 0
BBX 9 12 0 0
BITMAP
0000000C60
0002DB8700
0039285000
0000000000
004CEC2000
03D30C7000
0B526E3000
2FED930000
4D00000000
4E00000000
1E70240000
04DED50000
ENDCHAR
STARTCHAR uni1EC0
ENCODING 7872
SWIDTH 511 0
DWIDTH 7 0
BBX 8 14 0 0
BITMAP
00950000
001A6E70
000681A1
00000000
006FFFF9
00981110
00C50000
01F10000
04FFFF70
07A11100
0A700000
0D400000
1F211100
5FFFFB00
ENDCHAR
STARTCHAR uni1EC1
ENCODING 7873
SWIDTH 493 0
DWIDTH 7 0
BBX 7 12 0 0
BITMAP
04A00000
00A4DB00
00392850
00000000
004CEC20
03D30C70
0B526E30
2FED9300
4D000000
4E000000
1E702400
04DED500
ENDCHAR
STARTCHAR uni1EC2
ENCODING 7874
SWIDTH 511 0
DWIDTH 7 0
BBX 9 15 0 0
BITMAP
0000000890
0000000850
00006E7000
000681A100
0000000000
006FFFF900
0098111000
00C5000000
01F1000000
04FFFF7000
07A1110000
0A70000000
0D40000000
1F21110000
5FFFFB0000
ENDCHAR
STARTCHAR uni1EC3
ENCODING 7875
SWIDTH 493 0
DWIDTH 7 0
BBX 9 13 0 0
BITMAP
0000005B10
0000006700
0002DB0000
0039285000
0000000000
004CEC2000
03D30C7000
0B526E3000
2FED930000
4D00000000
4E00000000
1E70240000
04DED50000
ENDCHAR
STARTCHAR uni1EC4
ENCODING 7876
SWIDTH 511 0
DWIDTH 7 0
BBX 9 15 0 0
BITMAP
0001CC3830
000642B800
00006E7000
000681A100
0000000000
006FFFF900
0098111000
00C5000000
01F1000000
04FFFF7000
07A1110000
0A70000000
0D40000000
1F21110000
5FFFFB0000
ENDCHAR
STARTCHAR uni1EC5
ENCODING 7877
SWIDTH 493 0
DWIDTH 7 0
BBX 8 13 0 0
BITMAP
0009D648
002719B1
0002DB00
003A2750
00000000
004CEC20
03D30C70
0B526E30
2FED9300
4D000000
4E000000
1E702400
04DED500
ENDCHAR
STARTCHAR uni1EC6
ENCODING 7878
SWIDTH 511 0
DWIDTH 7 0
BBX 8 16 0 -3
BITMAP
00004F80
0006A2B3
00000000
006FFFF9
00981110
00C50000
01F10000
04FFFF70
07A11100
0A700000
0D400000
1F211100
5FFFFB00
00000000
00960000
00A50000
ENDCHAR
STARTCHAR uni1EC7
ENCODING 7879
SWIDTH 493 0
DWIDTH 7 0
BBX 7 14 0 -3
BITMAP
0003EB00
004B3A50
00000000
004CEC20
03D30C70
0B526E30
2FED9300
4D000000
4E000000
1E702400
04DED500
00000000
00C40000
00D20000
ENDCHAR
STARTCHAR uni1EC8
ENCODING 7880
SWIDTH 272 0
DWIDTH 4 0
BBX 6 14 0 0
BITMAP
000BC2
0003C3
000C20
000000
006B00
009800
00C500
01F200
04E000
07A000
0A7000
0D4000
1F1000
5D0000
ENDCHAR
STARTCHAR uni1EC9
ENCODING 7881
SWIDTH 253 0
DWIDTH 4 0
BBX 5 12 0 0
BITMAP
008C60
002970
00A400
000000
01F100
04D000
07A000
0A7000
0D4000
1F1000
4D0000
7A0000
ENDCHAR
STARTCHAR uni1ECA
ENCODING 7882
SWIDTH 272 0
DWIDTH 4 0
BBX 4 13 0 -3
BITMAP
006B
0098
00C5
01F2
04E0
07A0
0A70
0D40
1F10
5D00
0000
A600
B400
ENDCHAR
STARTCHAR uni1ECB
ENCODING 7883
SWIDTH 253 0
DWIDTH 4 0
BBX 4 14 0 -3
BITMAP
0079
0043
0000
01F1
04D0
07A0
0A70
0D40
1F10
4D00
7A00
0000
C300
D200
ENDCHAR
STARTCHAR uni1ECC
ENCODING 7884
SWIDTH 720 0
DWIDTH 10 0
BBX 9 13 1 -3
BITMAP
003AEEB300
04E7229E10
1E50000D60
7C00000A90
C700000A90
E500000C70
E500002F30
C80000AB00
5F612AE200
05CED92000
0000000000
0078000000
0096000000
ENDCHAR
STARTCHAR uni1ECD
ENCODING 7885
SWIDTH 561 0
DWIDTH 8 0
BBX 8 11 0 -3
BITMAP
004CEB20
04E408D0
0C6001F2
2F1000F2
4D0003F1
4E0008A0
1E504E30
04CEC300
00000000
006A0000
00780000
ENDCHAR
STARTCHAR uni1ECE
ENCODING 7886
SWIDTH 720 0
DWIDTH 10 0
BBX 9 14 1 0
BITMAP
00000BC200
000003C200
00000C1000
0000000000
003AEEB300
04E7229E10
1E50000D60
7C00000A90
C700000A90
E500000C70
E500002F30
C80000AB00
5F612AE200
05CED92000
ENDCHAR
STARTCHAR uni1ECF
ENCODING 7887
SWIDTH 561 0
DWIDTH 8 0
BBX 8 12 0 0
BITMAP
00009C40
00002A50
0000B300
00000000
004CEB20
04E408D0
0C6001F2
2F1000F2
4D0003F1
4E0008A0
1E504E30
04CEC300
ENDCHAR
STARTCHAR uni1ED0
ENCODING 7888
SWIDTH 720 0
DWIDTH 10 0
BBX 10 14 1 0
BITMAP
00000003D2
00007E7B30
000671A100
0000000000
003AEEB300
04E7229E10
1E50000D60
7C00000A90
C700000A90
E500000C70
E500002F30
C80000AB00
5F612AE200
05CED92000
ENDCHAR
STARTCHAR uni1ED1
ENCODING 7889
SWIDTH 561 0
DWIDTH 8 0
BBX 9 12 0 0
BITMAP
0000000B70
0002DC7800
0029266000
0000000000
004CEB2000
04E408D000
0C6001F200
2F1000F200
4D0003F100
4E0008A000
1E504E3000
04CEC30000
ENDCHAR
STARTCHAR uni1ED2
ENCODING 7890
SWIDTH 720 0
DWIDTH 10 0
BBX 9 14 1 0
BITMAP
00A5000000
002A7E6000
000671A100
0000000000
003AEEB300
04E7229E10
1E50000D60
7C00000A90
C700000A90
E500000C70
E500002F30
C80000AB00
5F612AE200
05CED92000
ENDCHAR
STARTCHAR uni1ED3
ENCODING 7891
SWIDTH 561 0
DWIDTH 8 0
BBX 8 12 0 0
BITMAP
03B00000
0095DC00
00292660
00000000
004CEB20
04E408D0
0C6001F2
2F1000F2
4D0003F1
4E0008A0
1E504E30
04CEC300
ENDCHAR
STARTCHAR uni1ED4
ENCODING 7892
SWIDTH 720 0
DWIDTH 10 0
BBX 9 15 1 0
BITMAP
0000000890
0000000940
00007E6000
000671A100
0000000000
003AEEB300
04E7229E10
1E50000D60
7C00000A90
C700000A90
E500000C70
E500002F30
C80000AB00
5F612AE200
05CED92000
ENDCHAR
STARTCHAR uni1ED5
ENCODING 7893
SWIDTH 561 0
DWIDTH 8 0
BBX 9 13 0 0
BITMAP
0000005B20
0000005800
0002DC0000
0029266000
0000000000
004CEB2000
04E408D000
0C6001F200
2F1000F200
4D0003F100
4E0008A000
1E504E3000
04CEC30000
ENDCHAR
STARTCHAR uni1ED6
ENCODING 7894
SWIDTH 720 0
DWIDTH 10 0
BBX 9 15 1 0
BITMAP
0002CB3920
000633B700
00007F6000
000671A100
0000000000
003AEEB300
04E7229E10
1E50000D60
7C00000A90
C700000A90
E500000C70
E500002F30
C80000AB00
5F612AE200
05CED92000
ENDCHAR
STARTCHAR uni1ED7
ENCODING 7895
SWIDTH 561 0
DWIDTH 8 0
BBX 8 13 0 0
BITMAP
0008D739
001808B2
0002DD00
002A2660
00000000
004CEB20
04E408D0
0C6001F2
2F1000F2
4D0003F1
4E0008A0
1E504E30
04CEC300
ENDCHAR
STARTCHAR uni1ED8
ENCODING 7896
SWIDTH 720 0
DWIDTH 10 0
BBX 9 16 1 -3
BITMAP
00005F7000
000792C200
0000000000
003AEEB300
04E7229E10
1E50000D60
7C00000A90
C700000A90
E500000C70
E500002F30
C80000AB00
5F612AE200
05CED92000
0000000000
0078000000
0096000000
ENDCHAR
STARTCHAR uni1ED9
ENCODING 7897
SWIDTH 561 0
DWIDTH 8 0
BBX 8 14 0 -3
BITMAP
0001CD10
002B4790
00000000
004CEB20
04E408D0
0C6001F2
2F1000F2
4D0003F1
4E0008A0
1E504E30
04CEC300
00000000
006A0000
00780000
ENDCHAR
STARTCHAR uni1EDA
ENCODING 7898
SWIDTH 713 0
DWIDTH 10 0
BBX 11 13 1 0
BITMAP
000004D20000
00003B200000
000000000000
003AEEB30D70
04E7229EC800
1E50000D7000
7C00000A9000
C700000A9000
E500000C7000
E500002F3000
C80000AB0000
5F612AE20000
05CED9200000
ENDCHAR
STARTCHAR uni1EDB
ENCODING 7899
SWIDTH 561 0
DWIDTH 8 0
BBX 10 11 0 0
BITMAP
00000C8000
0000960000
00000003F2
004CEC3B80
04E408F500
0C6001F200
2F1000F200
4D0003F000
4E0008A000
1E504E3000
04CEC30000
ENDCHAR
STARTCHAR uni1EDC
ENCODING 7900
SWIDTH 713 0
DWIDTH 10 0
BBX 11 13 1 0
BITMAP
0002E2000000
00005A000000
000000000000
003AEEB30D70
04E7229EC800
1E50000D7000
7C00000A9000
C700000A9000
E500000C7000
E500002F3000
C80000AB0000
5F612AE20000
05CED9200000
ENDCHAR
STARTCHAR uni1EDD
ENCODING 7901
SWIDTH 561 0
DWIDTH 8 0
BBX 10 11 0 0
BITMAP
000A900000
0001B20000
00000003F2
004CEC3B80
04E408F500
0C6001F200
2F1000F200
4D0003F000
4E0008A000
1E504E3000
04CEC30000
ENDCHAR
STARTCHAR uni1EDE
ENCODING 7902
SWIDTH 713 0
DWIDTH 10 0
BBX 11 14 1 0
BITMAP
00000BC20000
000003C20000
00000C100000
000000000000
003AEEB30D70
04E7229EC800
1E50000D7000
7C00000A9000
C700000A9000
E500000C7000
E500002F3000
C80000AB0000
5F612AE20000
05CED9200000
ENDCHAR
STARTCHAR uni1EDF
ENCODING 7903
SWIDTH 561 0
DWIDTH 8 0
BBX 10 12 0 0
BITMAP
00009C4000
00002A5000
0000B30000
00000003F2
004CEC3B80
04E408F500
0C6001F200
2F1000F200
4D0003F000
4E0008A000
1E504E3000
04CEC30000
ENDCHAR
STARTCHAR uni1EE0
ENCODING 7904
SWIDTH 713 0
DWIDTH 10 0
BBX 11 13 1 0
BITMAP
0007E72A0000
001B2AE30000
000000000000
003AEEB30D70
04E7229EC800
1E50000D7000
7C00000A9000
C700000A9000
E500000C7000
E500002F3000
C80000AB0000
5F612AE20000
05CED9200000
ENDCHAR
STARTCHAR uni1EE1
ENCODING 7905
SWIDTH 561 0
DWIDTH 8 0
BBX 10 11 0 0
BITMAP
002DC28300
00845DA000
00000003F2
004CEC3B80
04E408F500
0C6001F200
2F1000F200
4D0003F000
4E0008A000
1E504E3000
04CEC30000
ENDCHAR
STARTCHAR uni1EE2
ENCODING 7906
SWIDTH 713 0
DWIDTH 10 0
BBX 11 13 1 -3
BITMAP
003AEEB30D70
04E7229EC800
1E50000D7000
7C00000A9000
C700000A9000
E500000C7000
E500002F3000
C80000AB0000
5F612AE20000
05CED9200000
000000000000
007800000000
009600000000
ENDCHAR
STARTCHAR uni1EE3
ENCODING 7907
SWIDTH 561 0
DWIDTH 8 0
BBX 10 12 0 -3
BITMAP
00000003F2
004CEC3B80
04E408F500
0C6001F200
2F1000F200
4D0003F000
4E0008A000
1E504E3000
04CEC30000
0000000000
006A000000
0078000000
ENDCHAR
STARTCHAR uni1EE4
ENCODING 7908
SWIDTH 675 0
DWIDTH 9 0
BBX 9 13 1 -3
BITMAP
0890000A80
0B60000D40
0E30001F10
3E00005D00
6B00008A00
980000B700
C60000E300
D50005D000
9C214E5000
1AEEC50000
0000000000
00A6000000
00B4000000
ENDCHAR
STARTCHAR uni1EE5
ENCODING 7909
SWIDTH 577 0
DWIDTH 8 0
BBX 8 11 0 -3
BITMAP
03E00098
06C000C5
099000F2
0C6003E0
0F2007B0
3F001E80
2F21AD50
09EC3D20
00000000
003C0000
004B0000
ENDCHAR
STARTCHAR uni1EE6
ENCODING 7910
SWIDTH 675 0
DWIDTH 9 0
BBX 9 14 1 0
BITMAP
00005C9000
000016B000
0000680000
0000000000
0890000A80
0B60000D40
0E30001F10
3E00005D00
6B00008A00
980000B700
C60000E300
D50005D000
9C214E5000
1AEEC50000
ENDCHAR
STARTCHAR uni1EE7
ENCODING 7911
SWIDTH 577 0
DWIDTH 8 0
BBX 8 12 0 0
BITMAP
00007C70
00001880
00008600
00000000
03E00098
06C000C5
099000F2
0C6003E0
0F2007B0
3F001E80
2F21AD50
09EC3D20
ENDCHAR
STARTCHAR uni1EE8
ENCODING 7912
SWIDTH 722 0
DWIDTH 10 0
BBX 11 13 1 0
BITMAP
000004D20000
00003B200000
0000000005E0
0890000A8B80
0B60000DD800
0E30001F2000
3E00005D0000
6B00008A0000
980000B70000
C60000E30000
C50005D00000
9C215E600000
19EEC5000000
ENDCHAR
STARTCHAR uni1EE9
ENCODING 7913
SWIDTH 617 0
DWIDTH 9 0
BBX 11 11 0 0
BITMAP
000009A00000
000079000000
000000003F10
03E0009AB700
06C000CB4000
099000F20000
0C6003E00000
0F2007B00000
3F001E800000
2F21AD500000
09EC3D200000
ENDCHAR
STARTCHAR uni1EEA
ENCODING 7914
SWIDTH 722 0
DWIDTH 10 0
BBX 11 13 1 0
BITMAP
0006C0000000
000096000000
0000000005E0
0890000A8B80
0B60000DD800
0E30001F2000
3E00005D0000
6B00008A0000
980000B70000
C60000E30000
C50005D00000
9C215E600000
19EEC5000000
ENDCHAR
STARTCHAR uni1EEB
ENCODING 7915
SWIDTH 617 0
DWIDTH 9 0
BBX 11 11 0 0
BITMAP
000990000000
0001B3000000
000000003F10
03E0009AB700
06C000CB4000
099000F20000
0C6003E00000
0F2007B00000
3F001E800000
2F21AD500000
09EC3D200000
ENDCHAR
STARTCHAR uni1EEC
ENCODING 7916
SWIDTH 722 0
DWIDTH 10 0
BBX 11 14 1 0
BITMAP
00004BA00000
000016B00000
000058000000
0000000005E0
0890000A8B80
0B60000DD800
0E30001F2000
3E00005D0000
6B00008A0000
980000B70000
C60000E30000
C50005D00000
9C215E600000
19EEC5000000
ENDCHAR
STARTCHAR uni1EED
ENCODING 7917
SWIDTH 617 0
DWIDTH 9 0
BBX 11 12 0 0
BITMAP
00006C800000
000017900000
000076000000
000000003F10
03E0009AB700
06C000CB4000
099000F20000
0C6003E00000
0F2007B00000
3F001E800000
2F21AD500000
09EC3D200000
ENDCHAR
STARTCHAR uni1EEE
ENCODING 7918
SWIDTH 722 0
DWIDTH 10 0
BBX 11 13 1 0
BITMAP
0008E72A0000
001A2AE30000
0000000005E0
0890000A8B80
0B60000DD800
0E30001F2000
3E00005D0000
6B00008A0000
980000B70000
C60000E30000
C50005D00000
9C215E600000
19EEC5000000
ENDCHAR
STARTCHAR uni1EEF
ENCODING 7919
SWIDTH 617 0
DWIDTH 9 0
BBX 11 11 0 0
BITMAP
000AD5480000
00483CD10000
000000003F10
03E0009AB700
06C000CB4000
099000F20000
0C6003E00000
0F2007B00000
3F001E800000
2F21AD500000
09EC3D200000
ENDCHAR
STARTCHAR uni1EF0
ENCODING 7920
SWIDTH 722 0
DWIDTH 10 0
BBX 11 14 1 -3
BITMAP
0000000005E0
0890000A8B80
0B60000DD800
0E30001F2000
3E00005D0000
6B00008A0000
980000B70000
C60000E30000
C50005D00000
9C215E600000
19EEC5000000
000000000000
00A600000000
00B400000000
ENDCHAR
STARTCHAR uni1EF1
ENCODING 7921
SWIDTH 617 0
DWIDTH 9 0
BBX 11 12 0 -3
BITMAP
000000003F10
03E0009AB700
06C000CB4000
099000F20000
0C6003E00000
0F2007B00000
3F001E800000
2F21AD500000
09EC3D200000
000000000000
003C00000000
004B00000000
ENDCHAR
STARTCHAR Ygrave
ENCODING 7922
SWIDTH 502 0
DWIDTH 7 0
BBX 8 13 1 0
BITMAP
00B70000
001C1000
00000000
990005E1
5C001E50
1F109900
0C44D100
089D4000
04F90000
02F10000
06C00000
09900000
0C600000
ENDCHAR
STARTCHAR ygrave
ENCODING 7923
SWIDTH 461 0
DWIDTH 6 0
BBX 9 14 -2 -3
BITMAP
00007B0000
00000A4000
0000000000
004D0005D0
002F000D50
000E206C00
000C41D400
000A67B000
00087D3000
0006DA0000
0004F20000
0009800000
005E100000
5EC3000000
ENDCHAR
STARTCHAR uni1EF4
ENCODING 7924
SWIDTH 502 0
DWIDTH 7 0
BBX 8 13 1 -3
BITMAP
990005E1
5C001E50
1F109900
0C44D100
089D4000
04F90000
02F10000
06C00000
09900000
0C600000
00000000
2D000000
3C000000
ENDCHAR
STARTCHAR uni1EF5
ENCODING 7925
SWIDTH 461 0
DWIDTH 6 0
BBX 9 11 -2 -3
BITMAP
004D0005D0
002F000D50
000E206C00
000C41D400
000A67B000
00087D3000
0006DA0000
0004F20000
0009800000
005E11D100
5EC302D000
ENDCHAR
STARTCHAR uni1EF6
ENCODING 7926
SWIDTH 502 0
DWIDTH 7 0
BBX 8 14 1 0
BITMAP
0008C500
0002A600
000B3000
00000000
990005E1
5C001E50
1F109900
0C44D100
089D4000
04F90000
02F10000
06C00000
09900000
0C600000
ENDCHAR
STARTCHAR uni1EF7
ENCODING 7927
SWIDTH 461 0
DWIDTH 6 0
BBX 9 15 -2 -3
BITMAP
000007C700
0000018800
0000086000
0000000000
004D0005D0
002F000D50
000E206C00
000C41D400
000A67B000
00087D3000
0006DA0000
0004F20000
0009800000
005E100000
5EC3000000
ENDCHAR
STARTCHAR uni1EF8
ENCODING 7928
SWIDTH 502 0
DWIDTH 7 0
BBX 8 13 1 0
BITMAP
01CC3750
0664DB00
00000000
990005E1
5C001E50
1F109900
0C44D100
089D4000
04F90000
02F10000
06C00000
09900000
0C600000
ENDCHAR
STARTCHAR uni1EF9
ENCODING 7929
SWIDTH 461 0
DWIDTH 6 0
BBX 9 14 -2 -3
BITMAP
0000BD4570
000473CC10
0000000000
004D0005D0
002F000D50
000E206C00
000C41D400
000A67B000
00087D3000
0006DA0000
0004F20000
0009800000
005E100000
5EC3000000
ENDCHAR
STARTCHAR uni1F4D
ENCODING 8013
SWIDTH 778 0
DWIDTH 11 0
BBX 12 10 -1 0
BITMAP
688B04BEEA10
C5A07E623BC0
0003F30001E4
000A900000C6
000E500000C6
001F200000E4
001F200004F1
000E60000C90
0007E513BC10
00007DED8100
ENDCHAR
STARTCHAR uni2000
ENCODING 8192
SWIDTH 500 0
DWIDTH 7 0
BBX 1 1 0 0
BITMAP
00
ENDCHAR
STARTCHAR uni2001
ENCODING 8193
SWIDTH 1000 0
DWIDTH 14 0
BBX 1 1 0 0
BITMAP
00
ENDCHAR
STARTCHAR uni2002
ENCODING 8194
SWIDTH 500 0
DWIDTH 7 0
BBX 1 1 0 0
BITMAP
00
ENDCHAR
STARTCHAR uni2003
ENCODING 8195
SWIDTH 1000 0
DWIDTH 14 0
BBX 1 1 0 0
BITMAP
00
ENDCHAR
STARTCHAR uni2004
ENCODING 8196
SWIDTH 333 0
DWIDTH 5 0
BBX 1 1 0 0
BITMAP
00
ENDCHAR
STARTCHAR uni2005
ENCODING 8197
SWIDTH 250 0
DWIDTH 4 0
BBX 1 1 0 0
BITMAP
00
ENDCHAR
STARTCHAR uni2006
ENCODING 8198
SWIDTH 166 0
DWIDTH 2 0
BBX 1 1 0 0
BITMAP
00
ENDCHAR
STARTCHAR uni2007
ENCODING 8199
SWIDTH 559 0
DWIDTH 8 0
BBX 1 1 0 0
BITMAP
00
ENDCHAR
STARTCHAR uni2008
ENCODING 8200
SWIDTH 266 0
DWIDTH 4 0
BBX 1 1 0 0
BITMAP
00
ENDCHAR
STARTCHAR uni2009
ENCODING 8201
SWIDTH 200 0
DWIDTH 3 0
BBX 1 1 0 0
BITMAP
00
ENDCHAR
STARTCHAR uni200A
ENCODING 8202
SWIDTH 100 0
DWIDTH 1 0
BBX 1 1 0 0
BITMAP
00
ENDCHAR
STARTCHAR uni200B
ENCODING 8203
SWIDTH 0 0
DWIDTH 0 0
BBX 1 1 0 0
BITMAP
00
ENDCHAR
STARTCHAR endash
ENCODING 8211
SWIDTH 479 0
DWIDTH 7 0
BBX 7 2 0 2
BITMAP
7FFFFF20
11111100
ENDCHAR
STARTCHAR emdash
ENCODING 8212
SWIDTH 959 0
DWIDTH 13 0
BBX 13 2 0 2
BITMAP
7FFFFFFFFFFFD0
11111111111110
ENDCHAR
STARTCHAR afii00208
ENCODING 8213
SWIDTH 959 0
DWIDTH 13 0
BBX 13 2 0 2
BITMAP
7FFFFFFFFFFFD0
11111111111110
ENDCHAR
STARTCHAR underscoredbl
ENCODING 8215
SWIDTH 394 0
DWIDTH 6 0
BBX 7 3 -2 -3
BITMAP
0DEEEE90
00000000
4EEEEE30
ENDCHAR
STARTCHAR quoteleft
ENCODING 8216
SWIDTH 169 0
DWIDTH 2 0
BBX 4 3 0 7
BITMAP
00A5
05D0
1D60
ENDCHAR
STARTCHAR quoteright
ENCODING 8217
SWIDTH 169 0
DWIDTH 2 0
BBX 3 3 1 7
BITMAP
1E50
6C00
C200
ENDCHAR
STARTCHAR quotesinglbase
ENCODING 8218
SWIDTH 240 0
DWIDTH 3 0
BBX 3 3 -1 -1
BITMAP
08C0
1E30
7800
ENDCHAR
STARTCHAR quotereversed
ENCODING 8219
SWIDTH 169 0
DWIDTH 2 0
BBX 2 3 1 7
BITMAP
6C
4D
1D
ENDCHAR
STARTCHAR quotedblleft
ENCODING 8220
SWIDTH 351 0
DWIDTH 5 0
BBX 6 3 0 7
BITMAP
00A52C
05D0C6
1D66D0
ENDCHAR
STARTCHAR quotedblright
ENCODING 8221
SWIDTH 351 0
DWIDTH 5 0
BBX 5 3 1 7
BITMAP
1E57D0
6C0D40
C26900
ENDCHAR
STARTCHAR quotedblbase
ENCODING 8222
SWIDTH 418 0
DWIDTH 6 0
BBX 6 3 -1 -1
BITMAP
08C1E5
1E37B0
780D20
ENDCHAR
STARTCHAR dagger
ENCODING 8224
SWIDTH 465 0
DWIDTH 7 0
BBX 6 11 1 0
BITMAP
001F40
002E00
003900
6EDDD8
119311
00C000
02D000
06A000
0A8000
0E6000
2F3000
ENDCHAR
STARTCHAR daggerdbl
ENCODING 8225
SWIDTH 476 0
DWIDTH 7 0
BBX 7 11 0 0
BITMAP
0000E500
0000D000
05EDEDA0
01176110
000C6000
000F3000
001D0000
5EDEDA00
11761100
00B50000
01F40000
ENDCHAR
STARTCHAR bullet
ENCODING 8226
SWIDTH 377 0
DWIDTH 5 0
BBX 4 3 1 4
BITMAP
2CE4
9FF6
6EB1
ENDCHAR
STARTCHAR ellipsis
ENCODING 8230
SWIDTH 763 0
DWIDTH 11 0
BBX 9 2 0 0
BITMAP
6B00B504C0
9B01E507D0
ENDCHAR
STARTCHAR perthousand
ENCODING 8240
SWIDTH 1117 0
DWIDTH 16 0
BBX 14 10 1 0
BITMAP
07DC1006A00000
4B09502C100000
950950C3000000
C20C2970000000
C34B5A7DC21BD8
5DC4C4C086A51E
000C396096E00D
00970B40B6C03B
05B00B43C3C0A5
2D1005DC20BD80
ENDCHAR
STARTCHAR minute
ENCODING 8242
SWIDTH 216 0
DWIDTH 3 0
BBX 3 4 1 6
BITMAP
1F30
2E00
4A00
6600
ENDCHAR
STARTCHAR second
ENCODING 8243
SWIDTH 386 0
DWIDTH 5 0
BBX 5 4 1 6
BITMAP
1F3A90
2E0C50
4A0D10
660C00
ENDCHAR
STARTCHAR guilsinglleft
ENCODING 8249
SWIDTH 283 0
DWIDTH 4 0
BBX 4 6 0 1
BITMAP
0048
04D2
3E30
2E10
0970
02A0
ENDCHAR
STARTCHAR guilsinglright
ENCODING 8250
SWIDTH 283 0
DWIDTH 4 0
BBX 4 6 0 1
BITMAP
0B10
0880
01E1
03E3
2D30
8300
ENDCHAR
STARTCHAR exclamdbl
ENCODING 8252
SWIDTH 479 0
DWIDTH 7 0
BBX 9 10 -1 0
BITMAP
003F302F30
005E005E00
008A007A00
00B600A600
00D200D200
01D000D000
0390039000
0000000000
0B500B5000
1E501E5000
ENDCHAR
STARTCHAR fraction
ENCODING 8260
SWIDTH 130 0
DWIDTH 2 0
BBX 9 10 -4 0
BITMAP
00000004B0
0000002D20
000000B400
0000088000
00004C0000
0001D20000
000B500000
0079000000
03C0000000
1C20000000
ENDCHAR
STARTCHAR zerosuperior
ENCODING 8304
SWIDTH 350 0
DWIDTH 5 0
BBX 5 6 1 4
BITMAP
0ACA00
780B20
C20B30
E00D10
D05A00
7DB100
ENDCHAR
STARTCHAR foursuperior
ENCODING 8308
SWIDTH 350 0
DWIDTH 5 0
BBX 5 6 0 4
BITMAP
0005D0
003CA0
01B770
0A3940
3CCFB0
001C00
ENDCHAR
STARTCHAR fivesuperior
ENCODING 8309
SWIDTH 350 0
DWIDTH 5 0
BBX 6 6 0 4
BITMAP
00CCC2
02B000
05BD50
0003B0
010590
1CCB10
ENDCHAR
STARTCHAR sixsuperior
ENCODING 8310
SWIDTH 350 0
DWIDTH 5 0
BBX 5 6 1 4
BITMAP
04BC30
2C1000
9BC800
C30D00
C22C00
6DC200
ENDCHAR
STARTCHAR sevensuperior
ENCODING 8311
SWIDTH 350 0
DWIDTH 5 0
BBX 5 6 1 4
BITMAP
2CCE70
002D10
00A500
04B000
0D2000
880000
ENDCHAR
STARTCHAR eightsuperior
ENCODING 8312
SWIDTH 350 0
DWIDTH 5 0
BBX 6 6 0 4
BITMAP
009CB0
03A0B3
02C3C1
04CE40
1D04B0
0ACC40
ENDCHAR
STARTCHAR ninesuperior
ENCODING 8313
SWIDTH 350 0
DWIDTH 5 0
BBX 5 6 1 4
BITMAP
0ACA00
770B20
962D20
2A9D00
008700
CC8000
ENDCHAR
STARTCHAR nsuperior
ENCODING 8319
SWIDTH 368 0
DWIDTH 5 0
BBX 5 5 1 5
BITMAP
0B9C30
3E1660
580940
840C10
B10C00
ENDCHAR
STARTCHAR franc
ENCODING 8355
SWIDTH 550 0
DWIDTH 8 0
BBX 9 10 0 0
BITMAP
000DFFFF10
001F111100
005D000000
008A000000
00B7000000
00EFFFC000
03E1110000
8EED900000
0980000000
0C50000000
ENDCHAR
STARTCHAR afii08941
ENCODING 8356
SWIDTH 550 0
DWIDTH 8 0
BBX 9 10 -1 0
BITMAP
00002BEE90
0000D70140
0003E00000
0007A00000
00DFEED000
000D400000
05EFEE8000
005C000000
03C4111000
1FFFFFF700
ENDCHAR
STARTCHAR peseta
ENCODING 8359
SWIDTH 725 0
DWIDTH 10 0
BBX 10 10 0 0
BITMAP
009FEA1000
00C52C9000
01F206C000
04D008A4A0
07A16EBFEB
0AFDB30D40
0D40001F10
1F10004C00
5D00007B00
8900003ED1
ENDCHAR
STARTCHAR uni20AB
ENCODING 8363
SWIDTH 577 0
DWIDTH 8 0
BBX 9 13 0 -2
BITMAP
0000000E30
0000ADEFD0
0000006B00
004CE98800
04E408E500
0C8002F200
1F2003E000
4E0007C000
5D001D9000
2F21AD6000
08EC3C3000
0000000000
CEEEEA0000
ENDCHAR
STARTCHAR Euro
ENCODING 8364
SWIDTH 550 0
DWIDTH 8 0
BBX 9 10 0 0
BITMAP
00006DFC30
0007D41510
003E200000
00A8000000
1EFEEE2000
04E0000000
6EFDD40000
05D0000000
01E7123000
004CED5000
ENDCHAR
STARTCHAR afii61248
ENCODING 8453
SWIDTH 777 0
DWIDTH 11 0
BBX 9 10 1 0
BITMAP
02BB500880
0C20004B00
2C0001D200
2C000B4000
09B7780000
0004C5CC30
001D2D14A0
00B53A03A0
07903A0870
4C000AAA00
ENDCHAR
STARTCHAR afii61289
ENCODING 8467
SWIDTH 500 0
DWIDTH 7 0
BBX 6 10 1 0
BITMAP
02CC30
0882A0
0972A0
097570
098B10
2BC200
8B7000
097021
07A092
01CD80
ENDCHAR
STARTCHAR afii61352
ENCODING 8470
SWIDTH 950 0
DWIDTH 13 0
BBX 13 10 0 0
BITMAP
009E0002E00000
00CE4005B00000
00E99008800000
03C4D00B54CD40
0790E20E2D13B0
0A60A72D3B02B0
0D306B6A2D1960
1F001F9707B700
4C000CF4000000
790008F18FFA00
ENDCHAR
STARTCHAR uni2120
ENCODING 8480
SWIDTH 762 0
DWIDTH 11 0
BBX 10 5 0 5
BITMAP
2BA59B01E5
49009D15D5
08B3996A85
004994CA75
5BB493A575
ENDCHAR
STARTCHAR trademark
ENCODING 8482
SWIDTH 749 0
DWIDTH 10 0
BBX 10 5 0 5
BITMAP
2BEB7F308C
00C03D80BC
00C03AB48C
00C0399B3C
00C0393C1C
ENDCHAR
STARTCHAR Omega
ENCODING 8486
SWIDTH 732 0
DWIDTH 10 0
BBX 10 10 0 0
BITMAP
0004BEEB30
007E6229E2
03F30000C8
09B000008A
0C7000009A
0D600000C7
0B700004E1
07B0001D50
11D503D610
FFFB0EFFF2
ENDCHAR
STARTCHAR estimated
ENCODING 8494
SWIDTH 619 0
DWIDTH 9 0
BBX 9 8 0 0
BITMAP
00599A6000
0680008700
0D70007E00
1FC9999910
1F70000000
0D70000100
06A0005500
006A996000
ENDCHAR
STARTCHAR oneeighth
ENCODING 8539
SWIDTH 752 0
DWIDTH 11 0
BBX 10 10 0 0
BITMAP
019C0005A0
0788002C10
009500C300
00C2097000
00D05B1BC9
03B2D1770E
000C40594B
0087006CE2
04B004A077
2D1001CCB2
ENDCHAR
STARTCHAR threeeighths
ENCODING 8540
SWIDTH 812 0
DWIDTH 11 0
BBX 11 10 0 0
BITMAP
04CD70004B00
0101D002D100
0005A00B4000
02BC20880000
100774B3BC60
5CBB3D2951D0
0000B5087680
00078007CD10
004C00680950
01D2003CCB10
ENDCHAR
STARTCHAR fiveeighths
ENCODING 8541
SWIDTH 818 0
DWIDTH 11 0
BBX 11 10 0 0
BITMAP
02ECB0005A00
06700002C100
09BC200C3000
000770970000
100955B2BC80
4CC92D1860E0
0000C40695A0
00087006CD10
004B00490860
02D1002CCB20
ENDCHAR
STARTCHAR seveneighths
ENCODING 8542
SWIDTH 750 0
DWIDTH 11 0
BBX 10 10 0 0
BITMAP
06CCF206A0
0006903C10
001D11C300
0096097000
03C05A1BC8
0C32C1770E
000C30695A
0097006CD2
05B004A077
2D1002CCB2
ENDCHAR
STARTCHAR partialdiff
ENCODING 8706
SWIDTH 581 0
DWIDTH 8 0
BBX 8 10 0 0
BITMAP
003CEC40
002205E1
000000C5
005DEBA7
05E306F6
0C6000E4
1F1002F1
2F000990
0E507E20
05DEB200
ENDCHAR
STARTCHAR Delta
ENCODING 8710
SWIDTH 558 0
DWIDTH 8 0
BBX 8 10 -1 0
BITMAP
000009E0
00002CE0
0000A6E2
0003D0C4
000B60B5
003D0097
00B60089
04D0006A
0C61115C
4FFFFFFD
ENDCHAR
STARTCHAR product
ENCODING 8719
SWIDTH 741 0
DWIDTH 10 0
BBX 9 13 1 -3
BITMAP
5FFFFFFF40
5D11111D40
5D00000D40
5D00000D40
5D00000D40
5D00000D40
5D00000D40
5D00000D40
5D00000D40
5D00000D40
5D00000D40
5D00000D40
5D00000D40
ENDCHAR
STARTCHAR summation
ENCODING 8721
SWIDTH 630 0
DWIDTH 9 0
BBX 9 13 1 -3
BITMAP
8FFFFFFD00
1D71111100
03E4000000
006E100000
000AB00000
0001C80000
00009C0000
0005E20000
001E600000
00BA000000
06D1000000
2E51111100
AFFFFFFF50
ENDCHAR
STARTCHAR minus
ENCODING 8722
SWIDTH 550 0
DWIDTH 8 0
BBX 8 1 0 4
BITMAP
2FFFFFF2
ENDCHAR
STARTCHAR radical
ENCODING 8730
SWIDTH 548 0
DWIDTH 8 0
BBX 9 12 0 0
BITMAP
0000000680
0000000B30
0000001D00
0000006800
000000B300
000001D000
5ED0068000
00D30B3000
00891D0000
002E780000
000BE30000
0006D00000
ENDCHAR
STARTCHAR infinity
ENCODING 8734
SWIDTH 707 0
DWIDTH 10 0
BBX 9 4 1 3
BITMAP
4DC52BD800
C20AC20B30
D10AC10B30
5DC53CD900
ENDCHAR
STARTCHAR integral
ENCODING 8747
SWIDTH 383 0
DWIDTH 5 0
BBX 6 14 0 -3
BITMAP
001BE5
008A00
00A600
00A600
00A600
00A600
00A600
00A600
00A600
00A600
00A600
00A600
01D300
AE8000
ENDCHAR
STARTCHAR approxequal
ENCODING 8776
SWIDTH 550 0
DWIDTH 8 0
BBX 8 4 0 3
BITMAP
1AEB5044
3604BEB2
1AEC5044
3504BEB1
ENDCHAR
STARTCHAR notequal
ENCODING 8800
SWIDTH 550 0
DWIDTH 8 0
BBX 8 8 0 1
BITMAP
00001C00
00006A00
2EEEFEE2
0005B000
000B5000
2FFFFFF2
00A60000
00C10000
ENDCHAR
STARTCHAR lessequal
ENCODING 8804
SWIDTH 550 0
DWIDTH 8 0
BBX 8 8 0 0
BITMAP
000004B2
0005CB40
07C82000
1CB51000
0028D940
000005B2
00000000
2FFFFFF2
ENDCHAR
STARTCHAR greaterequal
ENCODING 8805
SWIDTH 550 0
DWIDTH 8 0
BBX 8 8 0 0
BITMAP
2B400000
04AC5000
00028C70
00005BC1
049D9300
2B500000
00000000
2FFFFFF2
ENDCHAR
STARTCHAR lozenge
ENCODING 9674
SWIDTH 583 0
DWIDTH 8 0
BBX 7 10 1 0
BITMAP
003D1000
00CC8000
06B1E300
1E206C00
A8000C60
A8000C60
1E206C00
06B1E300
00CC8000
003D1000
ENDCHAR
STARTCHAR ff
ENCODING 64256
SWIDTH 630 0
DWIDTH 9 0
BBX 13 14 -2 -3
BITMAP
000009ED04DE60
00005C110E5000
0000A7004D0000
002AFDDDEED400
0002F100A70000
0005C000E40000
00089002F10000
000B6005D00000
000E3008900000
002E000B600000
005C000E300000
0098002F000000
01E4008A000000
8E802EC2000000
ENDCHAR
STARTCHAR uniFB01
ENCODING 64257
SWIDTH 568 0
DWIDTH 8 0
BBX 10 14 -2 -3
BITMAP
000009ED3D
00005C1116
0000A70000
002AFDB0B7
0002F100E4
0005C002F1
00089005D0
000B6008A0
000E300B70
002E000E40
005C002F10
0098000000
01E4000000
8E80000000
ENDCHAR
STARTCHAR uniFB02
ENCODING 64258
SWIDTH 568 0
DWIDTH 8 0
BBX 11 14 -2 -3
BITMAP
000009ED1F10
00005C114D00
0000A7007A00
002AFDB0A700
0002F100D400
0005C001F100
00089004D000
000B6008A000
000E300B7000
002E000E3000
005C002F1000
009800000000
01E400000000
8E8000000000
ENDCHAR
STARTCHAR uniFB03
ENCODING 64259
SWIDTH 886 0
DWIDTH 12 0
BBX 15 14 -2 -3
BITMAP
000009ED04DE6970
00005C110E500520
0000A7004D000000
002AFDDDEED44E00
0002F100A7007B00
0005C000E400A800
00089002F100D500
000B6005D001F200
000E30089004E000
002E000B6007B000
005C000E300A8000
0098002F00000000
01E4008A00000000
8E802EC200000000
ENDCHAR
STARTCHAR uniFB04
ENCODING 64260
SWIDTH 886 0
DWIDTH 12 0
BBX 15 14 -2 -3
BITMAP
000009ED04DE6980
00005C110E500C50
0000A7004D000F20
002AFDDDEED43E00
0002F100A7006B00
0005C000E4009800
00089002F100D500
000B6005D001F200
000E30089004E000
002E000B6007A000
005C000E300A7000
0098002F00000000
01E4008A00000000
8E802EC200000000
ENDCHAR
STARTCHAR uniFEFF
ENCODING 65279
SWIDTH 0 0
DWIDTH 0 0
BBX 1 1 0 0
BITMAP
00
ENDCHAR
STARTCHAR uniFFFC
ENCODING 65532
SWIDTH 1000 0
DWIDTH 14 0
BBX 14 13 0 -3
BITMAP
6D76B4AB2B86C8
65000000000038
00000000000000
65000000000038
653CC58CC14838
00941C85C24800
65941C8CC15838
213CC58CC6C412
54000000000026
65000000000038
21000000000012
65000000000038
6D76B4AB2B86C8
ENDCHAR
STARTCHAR uniFFFD
ENCODING 65533
SWIDTH 1000 0
DWIDTH 14 0
BBX 14 13 0 -2
BITMAP
00000087000000
000007FF700000
00007FFFF70000
0007D4116F7000
007FF9E90BF600
07FFFFF60CFF60
3FFFFF609FFFF2
07FFFF17FFFF60
007FFFFFFFF600
0007FE17FF7000
00007E18F70000
000007FF700000
00000087000000
ENDCHAR
STARTCHAR .notdef
ENCODING -1
SWIDTH 600 0
DWIDTH 8 0
BBX 7 10 1 0
BITMAP
ABBBBE10
A0000A10
A0000A10
A0000A10
A0000A10
A0000A10
A0000A10
A0000A10
A0000A10
ABBBBE10
ENDCHAR
STARTCHAR null
ENCODING -1
SWIDTH 0 0
DWIDTH 0 0
BBX 1 1 0 0
BITMAP
00
ENDCHAR
STARTCHAR nonmarkingreturn
ENCODING -1
SWIDTH 509 0
DWIDTH 7 0
BBX 1 1 0 0
BITMAP
00
ENDCHAR
STARTCHAR I.alt
ENCODING -1
SWIDTH 317 0
DWIDTH 4 0
BBX 7 10 -1 0
BITMAP
002DFC20
0005C000
00089000
000B6000
000E3000
003E0000
006B0000
00980000
00C50000
2BFC2000
ENDCHAR
STARTCHAR Igrave.alt
ENCODING -1
SWIDTH 317 0
DWIDTH 4 0
BBX 7 13 -1 0
BITMAP
000A8000
0001B200
00000000
002DFC20
0005C000
00089000
000B6000
000E3000
003E0000
006B0000
00980000
00C50000
2BFC2000
ENDCHAR
STARTCHAR Iacute.alt
ENCODING -1
SWIDTH 317 0
DWIDTH 4 0
BBX 7 13 -1 0
BITMAP
00000B90
00009700
00000000
002DFC20
0005C000
00089000
000B6000
000E3000
003E0000
006B0000
00980000
00C50000
2BFC2000
ENDCHAR
STARTCHAR Icircumflex.alt
ENCODING -1
SWIDTH 317 0
DWIDTH 4 0
BBX 7 13 -1 0
BITMAP
0001DC00
002B4870
00000000
002DFC20
0005C000
00089000
000B6000
000E3000
003E0000
006B0000
00980000
00C50000
2BFC2000
ENDCHAR
STARTCHAR Idieresis.alt
ENCODING -1
SWIDTH 317 0
DWIDTH 4 0
BBX 7 12 -1 0
BITMAP
000C1670
00000000
002DFC20
0005C000
00089000
000B6000
000E3000
003E0000
006B0000
00980000
00C50000
2BFC2000
ENDCHAR
STARTCHAR Itilde.alt
ENCODING -1
SWIDTH 317 0
DWIDTH 4 0
BBX 8 13 -1 0
BITMAP
002DC283
00845DA0
00000000
002DFC20
0005C000
00089000
000B6000
000E3000
003E0000
006B0000
00980000
00C50000
2BFC2000
ENDCHAR
STARTCHAR Imacron.alt
ENCODING -1
SWIDTH 317 0
DWIDTH 4 0
BBX 7 12 -1 0
BITMAP
001FFF90
00000000
002DFC20
0005C000
00089000
000B6000
000E3000
003E0000
006B0000
00980000
00C50000
2BFC2000
ENDCHAR
STARTCHAR Ibreve.alt
ENCODING -1
SWIDTH 317 0
DWIDTH 4 0
BBX 7 13 -1 0
BITMAP
000C13A0
0008EC20
00000000
002DFC20
0005C000
00089000
000B6000
000E3000
003E0000
006B0000
00980000
00C50000
2BFC2000
ENDCHAR
STARTCHAR Iogonek.alt
ENCODING -1
SWIDTH 317 0
DWIDTH 4 0
BBX 7 13 -1 -3
BITMAP
002DFC20
0005C000
00089000
000B6000
000E3000
003E0000
006B0000
00980000
00C50000
2BFC2000
03A10000
0C200000
09C10000
ENDCHAR
STARTCHAR Idotaccent.alt
ENCODING -1
SWIDTH 317 0
DWIDTH 4 0
BBX 7 13 -1 0
BITMAP
0000A600
0000B400
00000000
002DFC20
0005C000
00089000
000B6000
000E3000
003E0000
006B0000
00980000
00C50000
2BFC2000
ENDCHAR
STARTCHAR IJ.alt
ENCODING -1
SWIDTH 583 0
DWIDTH 8 0
BBX 10 13 -1 -3
BITMAP
002DFC20E3
0005C003F0
00089006C0
000B600990
000E300C60
003E000F30
006B003E00
0098006B00
00C5009800
2BFC20C500
000001F200
000119B000
000AEB2000
ENDCHAR
STARTCHAR Iotatonos.alt
ENCODING -1
SWIDTH 439 0
DWIDTH 6 0
BBX 7 10 0 0
BITMAP
05E6EEA0
0B60A800
3B00D400
0001F100
0004D000
0007A000
000A7000
000E4000
002F1000
05DFA000
ENDCHAR
STARTCHAR Iota.alt
ENCODING -1
SWIDTH 317 0
DWIDTH 4 0
BBX 7 10 -1 0
BITMAP
002DFC20
0005C000
00089000
000B6000
000E3000
003E0000
006B0000
00980000
00C50000
2BFC2000
ENDCHAR
STARTCHAR Iotadieresis.alt
ENCODING -1
SWIDTH 317 0
DWIDTH 4 0
BBX 7 12 -1 0
BITMAP
000C1670
00000000
002DFC20
0005C000
00089000
000B6000
000E3000
003E0000
006B0000
00980000
00C50000
2BFC2000
ENDCHAR
STARTCHAR afii10055.alt
ENCODING -1
SWIDTH 317 0
DWIDTH 4 0
BBX 7 10 -1 0
BITMAP
002DFC20
0005C000
00089000
000B6000
000E3000
003E0000
006B0000
00980000
00C50000
2BFC2000
ENDCHAR
STARTCHAR afii10056.alt
ENCODING -1
SWIDTH 317 0
DWIDTH 4 0
BBX 7 12 -1 0
BITMAP
000C1670
00000000
002DFC20
0005C000
00089000
000B6000
000E3000
003E0000
006B0000
00980000
00C50000
2BFC2000
ENDCHAR
STARTCHAR cyrillicbreve
ENCODING -1
SWIDTH 562 0
DWIDTH 8 0
BBX 6 2 2 8
BITMAP
9701E3
3CDD60
ENDCHAR
STARTCHAR caroncommaaccent
ENCODING -1
SWIDTH 477 0
DWIDTH 7 0
BBX 3 2 3 9
BITMAP
0A60
4A00
ENDCHAR
STARTCHAR commaaccent
ENCODING -1
SWIDTH 477 0
DWIDTH 7 0
BBX 3 2 1 -3
BITMAP
3D10
A300
ENDCHAR
STARTCHAR commaaccentrotate
ENCODING -1
SWIDTH 477 0
DWIDTH 7 0
BBX 3 2 3 8
BITMAP
0850
5C00
ENDCHAR
STARTCHAR dasiaoxia
ENCODING -1
SWIDTH 418 0
DWIDTH 6 0
BBX 4 2 2 8
BITMAP
587B
B5A1
ENDCHAR
STARTCHAR uni04C0.alt
ENCODING -1
SWIDTH 317 0
DWIDTH 4 0
BBX 7 10 -1 0
BITMAP
002DFC20
0005C000
00089000
000B6000
000E3000
003E0000
006B0000
00980000
00C50000
2BFC2000
ENDCHAR
STARTCHAR uni04CF.alt
ENCODING -1
SWIDTH 317 0
DWIDTH 4 0
BBX 7 10 -1 0
BITMAP
002DFC20
0005C000
00089000
000B6000
000E3000
003E0000
006B0000
00980000
00C50000
2BFC2000
ENDCHAR
STARTCHAR uni1EC8.alt
ENCODING -1
SWIDTH 317 0
DWIDTH 4 0
BBX 7 14 -1 0
BITMAP
00009C40
00002A50
0000B300
00000000
002DFC20
0005C000
00089000
000B6000
000E3000
003E0000
006B0000
00980000
00C50000
2BFC2000
ENDCHAR
STARTCHAR uni1ECA.alt
ENCODING -1
SWIDTH 317 0
DWIDTH 4 0
BBX 7 13 -1 -3
BITMAP
002DFC20
0005C000
00089000
000B6000
000E3000
003E0000
006B0000
00980000
00C50000
2BFC2000
00000000
04B00000
05A00000
ENDCHAR
STARTCHAR circumflexacutecomb
ENCODING -1
SWIDTH 0 0
DWIDTH 0 0
BBX 7 3 -6 8
BITMAP
00000B70
02DC7800
29266000
ENDCHAR
STARTCHAR circumflexgravecomb
ENCODING -1
SWIDTH 0 0
DWIDTH 0 0
BBX 6 3 -7 8
BITMAP
3B0000
095DC0
029266
ENDCHAR
STARTCHAR circumflexhookcomb
ENCODING -1
SWIDTH 0 0
DWIDTH 0 0
BBX 7 4 -6 8
BITMAP
00005B20
00005800
02DC0000
29266000
ENDCHAR
STARTCHAR circumflextildecomb
ENCODING -1
SWIDTH 0 0
DWIDTH 0 0
BBX 6 4 -6 8
BITMAP
08D739
1808B2
02DD00
2A2660
ENDCHAR
STARTCHAR breveacutecomb
ENCODING -1
SWIDTH 0 0
DWIDTH 0 0
BBX 5 3 -6 8
BITMAP
002950
1B13A0
08EC20
ENDCHAR
STARTCHAR brevegravecomb
ENCODING -1
SWIDTH 0 0
DWIDTH 0 0
BBX 5 3 -6 8
BITMAP
02A100
1B13A0
08EC20
ENDCHAR
STARTCHAR brevehookcomb
ENCODING -1
SWIDTH 0 0
DWIDTH 0 0
BBX 5 4 -6 8
BITMAP
006B10
006700
1B13A0
08EC20
ENDCHAR
STARTCHAR brevetildecomb
ENCODING -1
SWIDTH 0 0
DWIDTH 0 0
BBX 6 4 -6 8
BITMAP
0AD557
2719A1
1B13A0
08EC20
ENDCHAR
STARTCHAR cyrillichookleft
ENCODING -1
SWIDTH 205 0
DWIDTH 3 0
BBX 4 3 -2 -3
BITMAP
00B1
00B4
1CB1
ENDCHAR
STARTCHAR one.pnum
ENCODING -1
SWIDTH 375 0
DWIDTH 5 0
BBX 4 10 1 0
BITMAP
02AE
6ECA
83A7
00D4
02F1
05D0
0890
0B60
0E30
3E00
ENDCHAR
STARTCHAR zero.os
ENCODING -1
SWIDTH 554 0
DWIDTH 8 0
BBX 7 8 0 0
BITMAP
005CEB20
05E408B0
0D6002F0
2F1002F0
4D0004D0
4E000990
1E505E20
04DEC300
ENDCHAR
STARTCHAR one.os
ENCODING -1
SWIDTH 358 0
DWIDTH 5 0
BBX 5 8 0 0
BITMAP
005E40
19CF10
394D00
007A00
00A700
00D400
01F100
04D000
ENDCHAR
STARTCHAR two.os
ENCODING -1
SWIDTH 483 0
DWIDTH 7 0
BBX 8 8 -1 0
BITMAP
002AEE70
009613F2
000001F1
000009B0
0001AB10
002C8000
05D41100
3FFFFF90
ENDCHAR
STARTCHAR three.os
ENCODING -1
SWIDTH 483 0
DWIDTH 7 0
BBX 7 10 -1 -2
BITMAP
017DED50
019206E0
000003E0
00003C70
00BFD400
00018D00
00000F40
00001F30
7201AC00
9DFE9100
ENDCHAR
STARTCHAR four.os
ENCODING -1
SWIDTH 540 0
DWIDTH 8 0
BBX 8 10 -1 -2
BITMAP
000002EA
00000CC7
000098C4
0006B1F1
003D14D0
01D407A0
0B700A70
4EEEEFE9
00002F00
00005B00
ENDCHAR
STARTCHAR five.os
ENCODING -1
SWIDTH 503 0
DWIDTH 7 0
BBX 8 10 -1 -2
BITMAP
001FFFF9
004C1110
00880000
00D30000
01FDEB20
00101AC0
000004F0
000006D0
25104E60
2BEEC600
ENDCHAR
STARTCHAR six.os
ENCODING -1
SWIDTH 540 0
DWIDTH 8 0
BBX 8 10 0 0
BITMAP
0003AEE5
005E6210
01E40000
08A00000
0D9CEC20
2FA10AA0
3F1005C0
3E0008A0
1E604E30
04DEC400
ENDCHAR
STARTCHAR seven.os
ENCODING -1
SWIDTH 474 0
DWIDTH 7 0
BBX 7 10 0 -2
BITMAP
8FFFFF80
00002E20
00009800
0003E100
000C6000
006C0000
01E40000
08A00000
2E200000
B8000000
ENDCHAR
STARTCHAR eight.os
ENCODING -1
SWIDTH 534 0
DWIDTH 7 0
BBX 8 10 0 0
BITMAP
002BEE70
00D803E3
01F100E4
00D72AC0
005FF810
07A26C10
5C000B70
8A000A80
6E304E40
08EEC500
ENDCHAR
STARTCHAR nine.os
ENCODING -1
SWIDTH 527 0
DWIDTH 7 0
BBX 7 10 0 -2
BITMAP
019EE900
0B911D60
3E000890
5C000990
2E316F80
06DD7E50
00003E10
0000A900
2029D100
CEE91000
ENDCHAR
STARTCHAR g.alt
ENCODING -1
SWIDTH 577 0
DWIDTH 8 0
BBX 8 11 0 -3
BITMAP
004CE968
03E508E5
0B8003F2
1F2004E0
4E0008B0
4D001E80
2F21BE40
08EC4F10
00004C00
4202C600
6DED7000
ENDCHAR
STARTCHAR gcircumflex.alt
ENCODING -1
SWIDTH 577 0
DWIDTH 8 0
BBX 8 14 0 -3
BITMAP
00009F30
000973B0
00000000
004CE968
03E508E5
0B8003F2
1F2004E0
4E0008B0
4D001E80
2F21BE40
08EC4F10
00004C00
4202C600
6DED7000
ENDCHAR
STARTCHAR gbreve.alt
ENCODING -1
SWIDTH 577 0
DWIDTH 8 0
BBX 8 14 0 -3
BITMAP
000A31B1
0004EE60
00000000
004CE968
03E508E5
0B8003F2
1F2004E0
4E0008B0
4D001E80
2F21BE40
08EC4F10
00004C00
4202C600
6DED7000
ENDCHAR
STARTCHAR gdot.alt
ENCODING -1
SWIDTH 577 0
DWIDTH 8 0
BBX 8 14 0 -3
BITMAP
00009700
0000A500
00000000
004CE968
03E508E5
0B8003F2
1F2004E0
4E0008B0
4D001E80
2F21BE40
08EC4F10
00004C00
4202C600
6DED7000
ENDCHAR
STARTCHAR gcommaaccent.alt
ENCODING -1
SWIDTH 577 0
DWIDTH 8 0
BBX 8 14 0 -3
BITMAP
00000A30
00007900
00000000
004CE968
03E508E5
0B8003F2
1F2004E0
4E0008B0
4D001E80
2F21BE40
08EC4F10
00004C00
4202C600
6DED7000
ENDCHAR
ENDFONT
